<?xml version="1.0" encoding="UTF-8" standalone="no"?>
<?xml-stylesheet type="text/css" href="bar.css" ?>
<svg
   xmlns:dc="http://purl.org/dc/elements/1.1/"
   xmlns:cc="http://web.resource.org/cc/"
   xmlns:rdf="http://www.w3.org/1999/02/22-rdf-syntax-ns#"
   xmlns:svg="http://www.w3.org/2000/svg"
   xmlns="http://www.w3.org/2000/svg"
   xmlns:sodipodi="http://sodipodi.sourceforge.net/DTD/sodipodi-0.dtd"
   xmlns:inkscape="http://www.inkscape.org/namespaces/inkscape"
   height="80"
   width="80"
   id="svg2"
   sodipodi:version="0.32"
   inkscape:version="0.44.1"
   sodipodi:docname="inhabitant.svg"
   sodipodi:docbase="/home/fred/work/r-opencity/graphism/frodrigo/main_status_bar/icon">
  <metadata
     id="metadata12">
    <rdf:RDF>
      <cc:Work
         rdf:about="">
        <dc:format>image/svg+xml</dc:format>
        <dc:type
           rdf:resource="http://purl.org/dc/dcmitype/StillImage" />
      </cc:Work>
    </rdf:RDF>
  </metadata>
  <defs
     id="defs10" />
  <sodipodi:namedview
     inkscape:window-height="1002"
     inkscape:window-width="1248"
     inkscape:pageshadow="2"
     inkscape:pageopacity="0.0"
     guidetolerance="10.0"
     gridtolerance="10.0"
     objecttolerance="10.0"
     borderopacity="1.0"
     bordercolor="#666666"
     pagecolor="#ffffff"
     id="base"
     showgrid="true"
     gridspacingx="5px"
     gridspacingy="5px"
     gridempspacing="5"
     inkscape:object-nodes="true"
     inkscape:object-paths="false"
     inkscape:grid-points="true"
     inkscape:zoom="6.9650018"
     inkscape:cx="79.404516"
     inkscape:cy="35.722387"
     inkscape:window-x="0"
     inkscape:window-y="0"
     inkscape:current-layer="svg2" />
  <g
     class="icon"
     id="inhabitant">
    <rect
       ry="20"
       rx="20"
       y="0"
       x="0"
       height="80"
       width="80"
       class="contener"
       id="rect5" />
    <path
       d="M 38.71875,10 C 35.883096,10 31.656249,11.402769 31.65625,15.65625 C 31.65625,18.090331 33.027126,20.072887 34.21875,20.78125 C 35.306381,21.994575 36.912123,22.75 38.71875,22.75 C 41.045208,22.75 43.060812,21.481298 44.03125,19.625 C 45.02816,18.653013 45.8125,17.251306 45.8125,15.65625 C 45.8125,11.402769 41.554406,10 38.71875,10 z M 38.71875,22.75 L 38.25,22.75 L 38.25,22.875 C 37.248024,22.875865 36.293312,22.873729 35.53125,22.90625 C 32.497614,23.014002 30.990794,23.477956 28.8125,25.65625 C 25.997679,28.471071 23.166207,34.089258 23.125,39.71875 C 23.124823,39.739243 23.12508,39.760756 23.125,39.78125 C 23.124924,39.802082 23.125,39.822918 23.125,39.84375 L 24.5625,39.84375 L 24.5625,45.5 L 23.125,48.34375 L 28.59375,48.34375 L 26.25,62.25 C 26.072771,62.382921 25.96875,62.46875 25.96875,62.46875 L 25.96875,65.375 L 35.4375,65.375 L 35.4375,62.53125 L 35.6875,62.53125 L 38.84375,46.125 L 42.03125,62.53125 L 42.03125,65.375 L 51.5,65.375 L 51.5,62.53125 L 51.75,62.53125 L 48.90625,45.5 L 48.90625,34.40625 L 52.90625,38.40625 L 52.90625,38.4375 L 54.34375,39.84375 L 54.34375,39.59375 L 54.59375,39.84375 L 54.59375,37.25 L 60,42.6875 L 60,37 L 54.59375,31.59375 L 54.59375,31.34375 L 48.90625,25.65625 C 46.728422,23.478422 45.226028,23.01414 42.1875,22.90625 C 41.352348,22.870689 40.312364,22.875219 39.1875,22.875 L 39.1875,22.75 L 38.71875,22.75 z M 28.8125,42.625 L 29.0625,42.625 L 29.0625,45.5 L 28.8125,47 L 28.8125,42.625 z "
       id="pantalon"
       class="content" />
  </g>
</svg>
