<?xml version="1.0" encoding="UTF-8" standalone="no"?>
<?xml-stylesheet type="text/css" href="bar.css" ?>
<svg
   xmlns:dc="http://purl.org/dc/elements/1.1/"
   xmlns:cc="http://web.resource.org/cc/"
   xmlns:rdf="http://www.w3.org/1999/02/22-rdf-syntax-ns#"
   xmlns:svg="http://www.w3.org/2000/svg"
   xmlns="http://www.w3.org/2000/svg"
   xmlns:sodipodi="http://sodipodi.sourceforge.net/DTD/sodipodi-0.dtd"
   xmlns:inkscape="http://www.inkscape.org/namespaces/inkscape"
   height="80"
   width="80"
   id="svg2"
   sodipodi:version="0.32"
   inkscape:version="0.44.1"
   sodipodi:docname="money.svg"
   sodipodi:docbase="/home/fred/work/r-opencity/graphism/frodrigo/main_status_bar/icon">
  <metadata
     id="metadata12">
    <rdf:RDF>
      <cc:Work
         rdf:about="">
        <dc:format>image/svg+xml</dc:format>
        <dc:type
           rdf:resource="http://purl.org/dc/dcmitype/StillImage" />
      </cc:Work>
    </rdf:RDF>
  </metadata>
  <defs
     id="defs10" />
  <sodipodi:namedview
     inkscape:window-height="1002"
     inkscape:window-width="1248"
     inkscape:pageshadow="2"
     inkscape:pageopacity="0.0"
     guidetolerance="10.0"
     gridtolerance="10.0"
     objecttolerance="10.0"
     borderopacity="1.0"
     bordercolor="#666666"
     pagecolor="#ffffff"
     id="base"
     showgrid="true"
     gridspacingx="5px"
     gridspacingy="5px"
     gridempspacing="5"
     inkscape:object-nodes="true"
     inkscape:object-paths="false"
     inkscape:grid-points="true"
     inkscape:zoom="6.9650018"
     inkscape:cx="66.398415"
     inkscape:cy="44.008146"
     inkscape:window-x="0"
     inkscape:window-y="0"
     inkscape:current-layer="svg2" />
  <g
     class="icon"
     id="money">
    <rect
       ry="20"
       rx="20"
       y="0"
       x="0"
       height="80"
       width="80"
       class="contener"
       id="rect5" />
    <path
       sodipodi:type="arc"
       id="path1880"
       sodipodi:cx="40"
       sodipodi:cy="40"
       sodipodi:rx="30"
       sodipodi:ry="30"
       d="M 70 40 A 30 30 0 1 1  10,40 A 30 30 0 1 1  70 40 z"
       class="content"
       transform="matrix(0.833333,0,0,0.833333,6.66668,6.66668)" />
    <path
       transform="matrix(0.75676,0,0,0.75676,9.729603,9.729623)"
       class="content2"
       d="M 70 40 A 30 30 0 1 1  10,40 A 30 30 0 1 1  70 40 z"
       sodipodi:ry="30"
       sodipodi:rx="30"
       sodipodi:cy="40"
       sodipodi:cx="40"
       id="path1871"
       sodipodi:type="arc" />
    <path
       d="M 37.34375,20.03125 C 37.230743,20.078893 37.117161,20.129568 37,20.15625 C 36.648518,20.236296 36.271483,20.242385 35.90625,20.25 C 35.419272,20.260153 34.937898,20.257054 34.5,20.5 C 34.114478,20.49917 33.777535,20.637901 33.4375,20.78125 C 33.269487,20.852079 33.097082,20.90716 32.9375,21 C 32.871403,21.03912 32.81367,21.081742 32.75,21.125 C 32.33831,21.385474 31.942993,21.689459 31.5625,21.96875 C 31.506401,22.004057 31.464466,22.06197 31.40625,22.09375 C 31.264182,22.20725 31.121657,22.30306 30.96875,22.40625 C 30.33942,22.830957 29.668193,23.218188 29.34375,23.9375 C 29.307203,24.000081 29.281546,24.058038 29.25,24.125 C 29.002231,24.511663 28.769062,24.901438 28.5625,25.3125 C 28.360095,25.715289 28.159607,26.140962 28,26.5625 C 27.706387,27.337958 27.477158,28.120847 27.34375,28.9375 C 27.337098,29.029596 27.349519,29.126376 27.34375,29.21875 C 27.2992,29.932056 27.285515,30.662701 27.34375,31.375 C 27.37319,31.7351 27.427218,32.083647 27.5,32.4375 C 27.555569,32.707666 27.600773,32.985544 27.6875,33.25 C 28.220335,35.313137 28.504746,37.468643 29.4375,39.40625 C 29.471691,39.753626 29.656276,39.998918 29.875,40.25 C 29.892025,40.239308 29.920475,40.229442 29.9375,40.21875 C 29.965942,40.26287 30.001519,40.300455 30.03125,40.34375 C 29.989584,40.34375 29.947916,40.34375 29.90625,40.34375 C 30.010801,40.417244 30.108172,40.470862 30.1875,40.5625 C 30.210641,40.592603 30.226104,40.626645 30.25,40.65625 C 30.730617,41.30135 30.662638,42.276136 30.28125,42.96875 C 30.176969,43.500234 29.437545,44.034212 29.40625,44.5625 C 28.6716,45.188422 27.945126,45.846285 26.9375,45.9375 C 24.552864,46.545038 22.137651,47.136387 19.90625,48.1875 C 23.140882,56.107509 30.920927,61.687501 40,61.6875 C 44.754334,61.6875 49.1424,60.15898 52.71875,57.5625 C 52.410862,56.800586 52.018814,56.082016 51.53125,55.40625 C 50.096079,53.574158 48.208283,52.025081 45.96875,51.3125 C 45.780714,51.328135 45.62079,51.215712 45.46875,51.09375 C 45.204915,50.76802 44.937147,50.420758 44.71875,50.0625 C 44.330048,49.411509 44.207588,48.582698 44.59375,47.90625 C 45.027855,47.035869 44.886033,45.860641 43.9375,45.40625 C 43.233804,45.140473 41.913545,44.56845 42.78125,43.6875 C 42.907223,43.560521 43.044119,43.453091 43.1875,43.34375 C 43.236102,43.309629 43.294099,43.282746 43.34375,43.25 C 43.417231,43.197916 43.486622,43.143041 43.5625,43.09375 C 44.226282,42.687885 44.933474,42.361854 45.53125,41.875 C 45.601248,41.815244 45.684577,41.752293 45.75,41.6875 C 45.873358,41.571342 46.018007,41.449534 46.125,41.3125 C 46.358785,41.138041 46.485199,40.877858 46.46875,40.65625 C 46.5487,40.494523 46.601059,40.327804 46.65625,40.15625 C 46.729406,40.135132 46.874592,39.541215 46.84375,39.375 C 46.84758,39.313633 46.840836,39.248891 46.84375,39.1875 C 46.892409,38.633394 46.856538,38.082578 46.8125,37.53125 C 46.79961,37.279823 46.800383,37.032096 46.78125,36.78125 C 46.773954,36.775948 46.757934,36.784556 46.75,36.78125 C 46.68209,36.211998 46.600324,35.659616 46.53125,35.09375 C 46.540655,34.227511 46.034315,33.477381 45.6875,32.71875 C 45.770597,31.359003 46.012954,29.981613 45.75,28.625 C 45.716541,28.37233 45.676383,28.128146 45.625,27.875 C 45.504037,27.279063 45.338778,26.677334 44.96875,26.1875 C 44.639471,25.35813 44.258275,24.559147 43.8125,23.78125 C 43.455907,23.15898 43.062293,22.560822 42.53125,22.0625 C 42.204007,21.750069 41.83624,21.459358 41.46875,21.1875 C 41.274549,21.043836 41.081592,20.904498 40.875,20.78125 C 40.616121,20.626808 40.373493,20.455021 40.09375,20.34375 C 39.23366,20.098829 38.329674,20.021387 37.4375,20.03125 C 37.42311,20.031408 37.3892,20.030776 37.375,20.03125 C 37.360801,20.031724 37.358132,20.030995 37.34375,20.03125 z "
       id="path1990"
       class="content" />
  </g>
</svg>
