<?xml version="1.0" encoding="UTF-8" standalone="no"?>
<!DOCTYPE svg PUBLIC "-//W3C//DTD SVG 20010904//EN"
"http://www.w3.org/TR/2001/REC-SVG-20010904/DTD/svg10.dtd">
<!-- Created with Inkscape (http://www.inkscape.org/) -->
<svg
   width="128.00000pt"
   height="128.00000pt"
   id="svg1"
   sodipodi:version="0.32"
   inkscape:version="0.40"
   sodipodi:docbase="/home/fred/work/r-opencity/graphism/frodrigo/2/industrial/hazard"
   sodipodi:docname="bio.svg"
   xmlns="http://www.w3.org/2000/svg"
   xmlns:cc="http://web.resource.org/cc/"
   xmlns:inkscape="http://www.inkscape.org/namespaces/inkscape"
   xmlns:sodipodi="http://sodipodi.sourceforge.net/DTD/sodipodi-0.dtd"
   xmlns:rdf="http://www.w3.org/1999/02/22-rdf-syntax-ns#"
   xmlns:dc="http://purl.org/dc/elements/1.1/"
   xmlns:xlink="http://www.w3.org/1999/xlink">
  <defs
     id="defs3" />
  <sodipodi:namedview
     id="base"
     pagecolor="#ff0000"
     bordercolor="#666666"
     borderopacity="1.0"
     inkscape:pageopacity="1.0000000"
     inkscape:pageshadow="2"
     inkscape:zoom="3.4732669"
     inkscape:cx="33.029309"
     inkscape:cy="59.211563"
     inkscape:current-layer="svg1"
     gridspacingy="4.0000000pt"
     gridspacingx="4.0000000pt"
     gridoriginy="0.0000000pt"
     gridoriginx="0.0000000pt"
     gridempspacing="4"
     showgrid="true"
     inkscape:grid-points="true"
     inkscape:window-width="992"
     inkscape:window-height="746"
     inkscape:window-x="0"
     inkscape:window-y="0" />
  <metadata
     id="metadata4">
    <rdf:RDF
       id="RDF5">
      <cc:Work
         rdf:about=""
         id="Work6">
        <dc:format
           id="format7">image/svg+xml</dc:format>
        <dc:type
           id="type9"
           rdf:resource="http://purl.org/dc/dcmitype/StillImage" />
      </cc:Work>
    </rdf:RDF>
  </metadata>
  <g
     inkscape:label="Layer 1"
     inkscape:groupmode="layer"
     id="layer1" />
  <path
     d="M 61.845393,117.45435 C 58.187698,116.92808 54.173144,115.10211 50.980951,112.51279 C 49.032799,110.93256 46.238832,107.53555 46.509676,107.07645 C 46.617702,106.89334 47.562528,107.56289 48.609290,108.56434 C 52.380225,112.17204 57.249830,113.76259 61.873790,112.89690 C 70.204259,111.33727 75.399029,104.81981 75.365238,95.970269 C 75.357333,93.900158 75.118290,92.161252 74.649836,90.766113 C 73.763471,88.126360 73.764191,88.005381 74.669785,87.412897 C 75.319337,86.987930 75.560638,87.050642 76.515867,87.892692 C 77.944494,89.152044 80.780829,89.239343 82.596262,88.079835 C 83.695727,87.377614 83.895683,87.356269 84.633058,87.862421 L 85.450705,88.423675 L 84.605113,91.023465 C 81.939102,99.220181 85.572636,108.09545 93.129978,111.84630 C 95.418847,112.98230 95.800094,113.05183 99.740745,113.05183 C 103.67406,113.05183 104.06569,112.98078 106.33107,111.85632 C 107.65574,111.19879 109.39376,110.04165 110.19332,109.28489 C 110.99288,108.52814 111.83179,107.90897 112.05755,107.90897 C 112.96732,107.90897 112.36626,109.04629 110.55893,110.74464 C 107.92426,113.22044 105.16136,114.90612 101.73725,116.12683 C 99.282687,117.00191 98.238963,117.16024 95.013473,117.14681 C 89.754040,117.12491 85.324153,115.59002 80.980211,112.28449 C 80.274956,111.74783 80.116374,111.79321 78.798393,112.90896 C 77.127916,114.32312 72.973452,116.39570 70.649836,116.97412 C 68.236121,117.57498 64.210042,117.79457 61.845393,117.45435 z M 114.42504,103.28073 C 115.89413,97.862901 115.99254,96.832471 115.36958,93.391187 C 114.78999,90.189499 113.13494,86.908936 110.94895,84.628821 C 104.50822,77.910767 93.936116,78.125275 87.954240,85.095385 C 86.482069,86.810764 86.162687,87.015282 85.465225,86.689244 C 84.772833,86.365579 84.664069,86.012151 84.657465,84.064475 C 84.648123,81.308657 83.706938,79.710951 81.563618,78.812528 C 80.545182,78.385625 80.104382,77.971961 80.104382,77.443122 C 80.104382,76.668258 80.332069,76.568678 83.195291,76.091313 C 85.451942,75.715076 88.820283,73.759195 90.942756,71.592625 C 94.464989,67.997214 96.323407,62.087178 95.460429,57.225776 C 94.303203,50.706812 90.253102,45.756383 84.569814,43.914208 C 82.449207,43.226837 81.596974,42.385161 83.021589,42.385161 C 86.338360,42.385161 92.262949,45.307071 95.623131,48.600033 C 100.31848,53.201454 102.68185,58.807783 102.87965,65.813732 L 102.99796,70.004208 L 104.55117,70.904900 C 111.05010,74.673564 114.60750,78.979515 116.86824,85.813732 C 117.53948,87.842882 117.68826,89.115225 117.69237,92.861351 C 117.69686,96.952985 117.58437,97.772246 116.62063,100.66718 C 115.84739,102.98985 115.35195,103.94030 114.86303,104.03894 C 114.30376,104.15177 114.22556,104.01638 114.42504,103.28073 z M 86.538054,101.90897 C 86.197556,100.91373 85.919774,99.974360 85.920763,99.821473 C 85.921753,99.668589 86.610622,99.175766 87.451585,98.726307 C 88.292549,98.276852 89.898971,96.944795 91.021418,95.766185 C 94.051887,92.584078 95.712025,88.444791 95.731854,84.021469 C 95.740585,82.074238 95.762683,82.034421 96.965840,81.797960 C 97.639640,81.665534 98.580549,81.614909 99.056749,81.685457 C 99.896782,81.809911 99.920156,81.907534 99.841756,84.964029 C 99.695851,90.652014 97.604025,95.328939 93.334465,99.513092 C 91.480302,101.33017 88.041407,103.71849 87.279214,103.71849 C 87.212073,103.71849 86.878553,102.90421 86.538054,101.90897 z M 68.889724,101.79385 C 63.424244,97.970345 59.740745,90.814120 59.740745,84.019408 L 59.740745,81.623256 L 61.286200,81.629088 C 63.476878,81.637358 63.781478,81.967656 63.953742,84.521675 C 64.147075,87.388082 64.998859,90.492596 66.189633,92.670875 C 67.315364,94.730174 70.004735,97.530269 71.852631,98.567027 C 72.609886,98.991884 73.195291,99.609111 73.195291,99.982676 C 73.195291,100.98420 72.029254,103.33754 71.533014,103.33754 C 71.292847,103.33754 70.103367,102.64288 68.889724,101.79385 z M 43.725705,101.96276 C 41.491985,95.807869 41.911334,88.710364 44.881667,82.398056 C 46.860752,78.192265 50.678574,74.110457 54.663937,71.939384 L 57.405309,70.445989 L 57.259505,66.953546 C 56.815807,56.325680 63.184749,46.854134 73.195291,43.254708 C 75.678185,42.361950 77.922563,42.126533 77.922563,42.758855 C 77.922563,42.964387 77.472563,43.236926 76.922563,43.364498 C 73.345113,44.194281 70.041674,46.073265 68.001943,48.438515 C 66.215556,50.509989 64.541599,54.390384 64.134163,57.404406 C 62.960243,66.088506 68.451895,74.333774 76.559347,76.059812 C 78.385949,76.448686 78.853367,76.696871 78.942349,77.325112 C 79.026582,77.919819 78.676967,78.297374 77.479858,78.904478 C 75.477728,79.919846 74.649836,81.375579 74.649836,83.880676 C 74.649836,85.561046 74.531073,85.886756 73.789245,86.240848 C 73.013505,86.611130 72.756813,86.459176 71.185803,84.699659 C 67.825414,80.936059 62.129586,78.891141 57.221481,79.686181 C 53.997450,80.208429 50.018986,82.362315 47.904929,84.730036 C 45.315458,87.630216 43.989781,90.979069 43.801952,95.094753 C 43.709144,97.128337 43.834855,99.303381 44.116209,100.53205 C 44.627835,102.76630 44.365772,103.72644 43.725705,101.96276 z M 87.723622,69.407938 C 83.267378,66.477249 77.370062,66.449490 71.933590,69.333613 L 70.126435,70.292333 L 68.933590,68.846705 C 68.277526,68.051609 67.741038,67.301067 67.741395,67.178833 C 67.742526,66.792416 70.757614,64.949698 72.687523,64.155929 C 76.786552,62.470005 82.530207,62.424524 86.602963,64.045740 C 89.113927,65.045265 91.743836,66.694110 91.727091,67.258362 C 91.719582,67.511434 91.187763,68.343291 90.545273,69.106931 L 89.377109,70.495368 L 87.723622,69.407938 z "
     id="path2402" />
</svg>
