<?xml version="1.0" encoding="UTF-8" standalone="no"?>
<!-- Created with Inkscape (http://www.inkscape.org/) -->
<svg
   xmlns:dc="http://purl.org/dc/elements/1.1/"
   xmlns:cc="http://web.resource.org/cc/"
   xmlns:rdf="http://www.w3.org/1999/02/22-rdf-syntax-ns#"
   xmlns:svg="http://www.w3.org/2000/svg"
   xmlns="http://www.w3.org/2000/svg"
   xmlns:xlink="http://www.w3.org/1999/xlink"
   xmlns:sodipodi="http://sodipodi.sourceforge.net/DTD/sodipodi-0.dtd"
   xmlns:inkscape="http://www.inkscape.org/namespaces/inkscape"
   width="512.00000pt"
   height="512.00000pt"
   id="svg3134"
   sodipodi:version="0.32"
   inkscape:version="0.45.1"
   sodipodi:docbase="/home/fred/work/r-opencity/graphism/models/commercial/hotel"
   sodipodi:docname="facade.svg"
   inkscape:export-filename="/home/fred/work/r-opencity/graphism/models/commercial/hotel/facade.png"
   inkscape:export-xdpi="72.000000"
   inkscape:export-ydpi="72.000000"
   inkscape:output_extension="org.inkscape.output.svg.inkscape">
  <defs
     id="defs3">
    <linearGradient
       id="linearGradient2320">
      <stop
         id="stop2322"
         offset="0"
         style="stop-color:#ff9d9d;stop-opacity:1;" />
      <stop
         style="stop-color:#de8888;stop-opacity:1.0000000;"
         offset="0.69148934"
         id="stop2328" />
      <stop
         id="stop2324"
         offset="1.0000000"
         style="stop-color:#bd7474;stop-opacity:1.0000000;" />
    </linearGradient>
    <linearGradient
       id="linearGradient4451">
      <stop
         style="stop-color:#7a7a7a;stop-opacity:1.0000000;"
         offset="0.0000000"
         id="stop4452" />
      <stop
         style="stop-color:#272727;stop-opacity:1.0000000;"
         offset="1.0000000"
         id="stop4453" />
    </linearGradient>
    <linearGradient
       id="linearGradient4407">
      <stop
         style="stop-color:#8ab0cf;stop-opacity:1.0000000;"
         offset="0.0000000"
         id="stop4408" />
      <stop
         style="stop-color:#315f85;stop-opacity:1.0000000;"
         offset="1.0000000"
         id="stop4409" />
    </linearGradient>
    <linearGradient
       id="linearGradient3767">
      <stop
         style="stop-color:#7a7a7a;stop-opacity:1.0000000;"
         offset="0.0000000"
         id="stop3768" />
      <stop
         style="stop-color:#282828;stop-opacity:1.0000000;"
         offset="1.0000000"
         id="stop3769" />
    </linearGradient>
    <linearGradient
       inkscape:collect="always"
       xlink:href="#linearGradient3767"
       id="linearGradient3770"
       gradientTransform="scale(0.732279,1.365600)"
       x1="92.177994"
       y1="231.54283"
       x2="106.02106"
       y2="231.54283"
       gradientUnits="userSpaceOnUse"
       spreadMethod="repeat" />
    <linearGradient
       id="linearGradient1700">
      <stop
         id="stop1701"
         offset="0.0000000"
         style="stop-color:#7d97d9;stop-opacity:1.0000000;" />
      <stop
         id="stop1702"
         offset="1.0000000"
         style="stop-color:#505193;stop-opacity:1.0000000;" />
    </linearGradient>
    <linearGradient
       id="linearGradient1705">
      <stop
         id="stop1706"
         offset="0.0000000"
         style="stop-color:#7f7f7f;stop-opacity:1.0000000;" />
      <stop
         id="stop1707"
         offset="1.0000000"
         style="stop-color:#000000;stop-opacity:1.0000000;" />
    </linearGradient>
    <radialGradient
       inkscape:collect="always"
       xlink:href="#linearGradient1700"
       id="radialGradient1609"
       gradientUnits="userSpaceOnUse"
       cx="0.29319373"
       cy="59.267017"
       fx="0.29319373"
       fy="59.267017"
       r="204.24559" />
    <radialGradient
       inkscape:collect="always"
       xlink:href="#linearGradient1705"
       id="radialGradient1611"
       gradientUnits="userSpaceOnUse"
       cx="162.37444"
       cy="138.93578"
       fx="162.37444"
       fy="138.93578"
       r="309.46848" />
    <radialGradient
       r="180.92862"
       fy="23.467348"
       fx="142.45944"
       cy="23.467348"
       cx="142.45944"
       gradientTransform="scale(1.000201,0.999799)"
       gradientUnits="userSpaceOnUse"
       id="radialGradient3107"
       xlink:href="#linearGradient2344"
       inkscape:collect="always" />
    <radialGradient
       r="185.25616"
       fy="123.97585"
       fx="10.750310"
       cy="123.97585"
       cx="10.750310"
       gradientTransform="scale(1.000201,0.999799)"
       gradientUnits="userSpaceOnUse"
       id="radialGradient3106"
       xlink:href="#linearGradient2335"
       inkscape:collect="always" />
    <radialGradient
       r="180.92862"
       fy="23.467348"
       fx="142.45944"
       cy="23.467348"
       cx="142.45944"
       gradientTransform="scale(1.000201,0.999799)"
       gradientUnits="userSpaceOnUse"
       id="radialGradient3013"
       xlink:href="#linearGradient2344"
       inkscape:collect="always" />
    <radialGradient
       r="185.25616"
       fy="123.97585"
       fx="10.750310"
       cy="123.97585"
       cx="10.750310"
       gradientTransform="scale(1.000201,0.999799)"
       gradientUnits="userSpaceOnUse"
       id="radialGradient3012"
       xlink:href="#linearGradient2335"
       inkscape:collect="always" />
    <radialGradient
       r="180.92862"
       fy="23.467348"
       fx="142.45944"
       cy="23.467348"
       cx="142.45944"
       gradientTransform="scale(1.000201,0.999799)"
       gradientUnits="userSpaceOnUse"
       id="radialGradient3006"
       xlink:href="#linearGradient2344"
       inkscape:collect="always" />
    <radialGradient
       r="185.25616"
       fy="123.97585"
       fx="10.750310"
       cy="123.97585"
       cx="10.750310"
       gradientTransform="scale(1.000201,0.999799)"
       gradientUnits="userSpaceOnUse"
       id="radialGradient3005"
       xlink:href="#linearGradient2335"
       inkscape:collect="always" />
    <radialGradient
       r="180.92862"
       fy="23.467348"
       fx="142.45944"
       cy="23.467348"
       cx="142.45944"
       gradientTransform="scale(1.000201,0.999799)"
       gradientUnits="userSpaceOnUse"
       id="radialGradient2999"
       xlink:href="#linearGradient2344"
       inkscape:collect="always" />
    <radialGradient
       r="185.25616"
       fy="123.97585"
       fx="10.750310"
       cy="123.97585"
       cx="10.750310"
       gradientTransform="scale(1.000201,0.999799)"
       gradientUnits="userSpaceOnUse"
       id="radialGradient2998"
       xlink:href="#linearGradient2335"
       inkscape:collect="always" />
    <radialGradient
       r="180.92862"
       fy="23.467348"
       fx="142.45944"
       cy="23.467348"
       cx="142.45944"
       gradientTransform="scale(1.000201,0.999799)"
       gradientUnits="userSpaceOnUse"
       id="radialGradient2990"
       xlink:href="#linearGradient2344"
       inkscape:collect="always" />
    <radialGradient
       r="185.25616"
       fy="123.97585"
       fx="10.750310"
       cy="123.97585"
       cx="10.750310"
       gradientTransform="scale(1.000201,0.999799)"
       gradientUnits="userSpaceOnUse"
       id="radialGradient2989"
       xlink:href="#linearGradient2335"
       inkscape:collect="always" />
    <linearGradient
       id="linearGradient2335">
      <stop
         id="stop2336"
         offset="0.0000000"
         style="stop-color:#ffb53c;stop-opacity:1.0000000;" />
      <stop
         id="stop2337"
         offset="1.0000000"
         style="stop-color:#ffdd6a;stop-opacity:1.0000000;" />
    </linearGradient>
    <linearGradient
       id="linearGradient2344">
      <stop
         id="stop2345"
         offset="0.0000000"
         style="stop-color:#ddbe7f;stop-opacity:1.0000000;" />
      <stop
         id="stop2346"
         offset="1.0000000"
         style="stop-color:#c4983d;stop-opacity:1.0000000;" />
    </linearGradient>
    <linearGradient
       gradientUnits="userSpaceOnUse"
       y2="644.98889"
       x2="47.093540"
       y1="54.877506"
       x1="274.33185"
       id="linearGradient2326"
       xlink:href="#linearGradient2320"
       inkscape:collect="always" />
    <linearGradient
       spreadMethod="repeat"
       gradientUnits="userSpaceOnUse"
       y2="171.55852"
       x2="440.00000"
       y1="172.56642"
       x1="437.90619"
       id="linearGradient3794"
       xlink:href="#linearGradient2344"
       inkscape:collect="always" />
    <linearGradient
       spreadMethod="repeat"
       gradientUnits="userSpaceOnUse"
       y2="185.88936"
       x2="540.00000"
       y1="178.61641"
       x1="550.07904"
       id="linearGradient4531"
       xlink:href="#linearGradient2344"
       inkscape:collect="always" />
    <linearGradient
       gradientUnits="userSpaceOnUse"
       y2="213.00668"
       x2="600.00000"
       y1="360.00000"
       x1="449.97772"
       id="linearGradient5993"
       xlink:href="#linearGradient2335"
       inkscape:collect="always" />
    <radialGradient
       inkscape:collect="always"
       xlink:href="#linearGradient4407"
       id="radialGradient2017"
       gradientUnits="userSpaceOnUse"
       gradientTransform="scale(0.735476,1.359664)"
       cx="55.641403"
       cy="382.17349"
       fx="55.641403"
       fy="382.17349"
       r="110.37390" />
    <radialGradient
       inkscape:collect="always"
       xlink:href="#linearGradient4451"
       id="radialGradient2019"
       gradientUnits="userSpaceOnUse"
       gradientTransform="scale(0.735476,1.359664)"
       cx="111.46736"
       cy="436.85309"
       fx="111.46736"
       fy="436.85309"
       r="150.42493" />
  </defs>
  <sodipodi:namedview
     id="base"
     pagecolor="#ffffff"
     bordercolor="#666666"
     borderopacity="1.0"
     inkscape:pageopacity="0.0"
     inkscape:pageshadow="2"
     inkscape:zoom="0.7015625"
     inkscape:cx="502.06201"
     inkscape:cy="304.56604"
     inkscape:current-layer="layer1"
     showgrid="true"
     inkscape:grid-points="true"
     gridspacingy="8.0000000pt"
     gridspacingx="8.0000000pt"
     gridoriginy="0.0000000pt"
     gridoriginx="0.0000000pt"
     gridempspacing="4"
     inkscape:window-width="992"
     inkscape:window-height="746"
     inkscape:window-x="256"
     inkscape:window-y="0"
     gridtolerance="4.0000000px" />
  <metadata
     id="metadata4">
    <rdf:RDF>
      <cc:Work
         rdf:about="">
        <dc:format>image/svg+xml</dc:format>
        <dc:type
           rdf:resource="http://purl.org/dc/dcmitype/StillImage" />
      </cc:Work>
    </rdf:RDF>
  </metadata>
  <g
     inkscape:label="Layer 1"
     inkscape:groupmode="layer"
     id="layer1">
    <path
       style="display:block;visibility:visible;marker-end:none;marker-mid:none;marker-start:none;marker:none;stroke-opacity:1.0000000;stroke-dashoffset:0.0000000;stroke-miterlimit:4.0000000;stroke-linejoin:miter;stroke-linecap:butt;stroke-width:50.000000;stroke:url(#linearGradient3770);fill-rule:nonzero;fill-opacity:1.0;fill:url(#linearGradient2326);color:#000000"
       d="M 0.0000000,640.00000 L 0.0000000,0.0000000 L 320.00000,0.0000000 L 320.00000,640.00000"
       id="rect3144"
       sodipodi:nodetypes="cccc" />
    <g
       id="g4468">
      <g
         id="g2009"
         transform="matrix(0.5,0,0,1,18.21709,0)">
        <rect
           y="520"
           x="40"
           height="80"
           width="40"
           id="rect4393"
           style="color:black;fill:url(#radialGradient2017);fill-opacity:1;fill-rule:nonzero;stroke:url(#radialGradient2019);stroke-width:7.1316309;stroke-linecap:butt;stroke-linejoin:miter;marker:none;marker-start:none;marker-mid:none;marker-end:none;stroke-miterlimit:4;stroke-dashoffset:0;stroke-opacity:1;visibility:visible;display:block" />
        <use
           height="640"
           width="320"
           transform="translate(40,0)"
           id="use4446"
           xlink:href="#rect4393"
           y="0"
           x="0" />
        <use
           x="0"
           y="0"
           xlink:href="#use4446"
           id="use4447"
           transform="translate(40,0)"
           width="320"
           height="640" />
        <use
           x="0"
           y="0"
           xlink:href="#use4447"
           id="use4448"
           transform="translate(40,0)"
           width="320"
           height="640" />
        <use
           x="0"
           y="0"
           xlink:href="#use4448"
           id="use4449"
           transform="translate(40,0)"
           width="320"
           height="640" />
        <use
           x="0"
           y="0"
           xlink:href="#use4449"
           id="use4450"
           transform="translate(40,0)"
           width="320"
           height="640" />
      </g>
      <use
         x="0"
         y="0"
         xlink:href="#g2009"
         id="use2021"
         transform="translate(119.2615,0)"
         width="640"
         height="640" />
    </g>
    <use
       x="0.0000000"
       y="0.0000000"
       xlink:href="#g4468"
       id="use4482"
       transform="translate(0.000000,-120.0000)"
       width="320.00000"
       height="640.00000" />
    <use
       x="0.0000000"
       y="0.0000000"
       xlink:href="#g4468"
       id="use4483"
       transform="translate(0.000000,-240.0000)"
       width="320.00000"
       height="640.00000" />
    <use
       x="0.0000000"
       y="0.0000000"
       xlink:href="#g4468"
       id="use4484"
       transform="translate(0.000000,-360.0000)"
       width="320.00000"
       height="640.00000" />
    <use
       x="0.0000000"
       y="0.0000000"
       xlink:href="#g4468"
       id="use4485"
       transform="translate(0.000000,-480.0000)"
       width="320.00000"
       height="640.00000" />
    <rect
       style="color:#000000;fill:url(#radialGradient1609);fill-opacity:1.0000000;fill-rule:nonzero;stroke:url(#radialGradient1611);stroke-width:16.000000;stroke-linecap:butt;stroke-linejoin:miter;marker:none;marker-start:none;marker-mid:none;marker-end:none;stroke-miterlimit:4.0000000;stroke-dashoffset:0.0000000;stroke-opacity:1.0000000;visibility:visible;display:block"
       id="rect1078"
       width="160.00000"
       height="160.00000"
       x="0.0000000"
       y="0.0000000"
       transform="matrix(0.227273,0.000000,0.000000,0.227273,361.8182,361.8181)"
       inkscape:tile-w="40.000048"
       inkscape:tile-h="40.000048"
       inkscape:tile-cx="380.00004"
       inkscape:tile-cy="379.99994" />
    <use
       x="0"
       y="0"
       inkscape:tiled-clone-of="#rect1078"
       xlink:href="#rect1078"
       id="use1614" />
    <use
       x="0"
       y="0"
       inkscape:tiled-clone-of="#rect1078"
       xlink:href="#rect1078"
       transform="translate(0.000000,40.00005)"
       id="use1616" />
    <use
       x="0"
       y="0"
       inkscape:tiled-clone-of="#rect1078"
       xlink:href="#rect1078"
       transform="translate(0.000000,80.00010)"
       id="use1618" />
    <use
       x="0"
       y="0"
       inkscape:tiled-clone-of="#rect1078"
       xlink:href="#rect1078"
       transform="translate(0.000000,120.0001)"
       id="use1620" />
    <use
       x="0"
       y="0"
       inkscape:tiled-clone-of="#rect1078"
       xlink:href="#rect1078"
       transform="translate(0.000000,160.0002)"
       id="use1622" />
    <use
       x="0"
       y="0"
       inkscape:tiled-clone-of="#rect1078"
       xlink:href="#rect1078"
       transform="translate(0.000000,200.0002)"
       id="use1624" />
    <use
       x="0"
       y="0"
       inkscape:tiled-clone-of="#rect1078"
       xlink:href="#rect1078"
       transform="translate(0.000000,240.0003)"
       id="use1626" />
    <use
       x="0"
       y="0"
       inkscape:tiled-clone-of="#rect1078"
       xlink:href="#rect1078"
       transform="translate(39.80005,0.000000)"
       id="use1628" />
    <use
       x="0"
       y="0"
       inkscape:tiled-clone-of="#rect1078"
       xlink:href="#rect1078"
       transform="translate(39.80005,40.00005)"
       id="use1630" />
    <use
       x="0"
       y="0"
       inkscape:tiled-clone-of="#rect1078"
       xlink:href="#rect1078"
       transform="translate(39.80005,80.00010)"
       id="use1632" />
    <use
       x="0"
       y="0"
       inkscape:tiled-clone-of="#rect1078"
       xlink:href="#rect1078"
       transform="translate(39.80005,120.0001)"
       id="use1634" />
    <use
       x="0"
       y="0"
       inkscape:tiled-clone-of="#rect1078"
       xlink:href="#rect1078"
       transform="translate(39.80005,160.0002)"
       id="use1636" />
    <use
       x="0"
       y="0"
       inkscape:tiled-clone-of="#rect1078"
       xlink:href="#rect1078"
       transform="translate(39.80005,200.0002)"
       id="use1638" />
    <use
       x="0"
       y="0"
       inkscape:tiled-clone-of="#rect1078"
       xlink:href="#rect1078"
       transform="translate(39.80005,240.0003)"
       id="use1640" />
    <use
       x="0"
       y="0"
       inkscape:tiled-clone-of="#rect1078"
       xlink:href="#rect1078"
       transform="translate(79.60010,0.000000)"
       id="use1642" />
    <use
       x="0"
       y="0"
       inkscape:tiled-clone-of="#rect1078"
       xlink:href="#rect1078"
       transform="translate(79.60010,40.00005)"
       id="use1644" />
    <use
       x="0"
       y="0"
       inkscape:tiled-clone-of="#rect1078"
       xlink:href="#rect1078"
       transform="translate(79.60010,80.00010)"
       id="use1646" />
    <use
       x="0"
       y="0"
       inkscape:tiled-clone-of="#rect1078"
       xlink:href="#rect1078"
       transform="translate(79.60010,120.0001)"
       id="use1648" />
    <use
       x="0"
       y="0"
       inkscape:tiled-clone-of="#rect1078"
       xlink:href="#rect1078"
       transform="translate(79.60010,160.0002)"
       id="use1650" />
    <use
       x="0"
       y="0"
       inkscape:tiled-clone-of="#rect1078"
       xlink:href="#rect1078"
       transform="translate(79.60010,200.0002)"
       id="use1652" />
    <use
       x="0"
       y="0"
       inkscape:tiled-clone-of="#rect1078"
       xlink:href="#rect1078"
       transform="translate(79.60010,240.0003)"
       id="use1654" />
    <use
       x="0"
       y="0"
       inkscape:tiled-clone-of="#rect1078"
       xlink:href="#rect1078"
       transform="translate(119.4001,0.000000)"
       id="use1656" />
    <use
       x="0"
       y="0"
       inkscape:tiled-clone-of="#rect1078"
       xlink:href="#rect1078"
       transform="translate(119.4001,40.00005)"
       id="use1658" />
    <use
       x="0"
       y="0"
       inkscape:tiled-clone-of="#rect1078"
       xlink:href="#rect1078"
       transform="translate(119.4001,80.00010)"
       id="use1660" />
    <use
       x="0"
       y="0"
       inkscape:tiled-clone-of="#rect1078"
       xlink:href="#rect1078"
       transform="translate(119.4001,120.0001)"
       id="use1662" />
    <use
       x="0"
       y="0"
       inkscape:tiled-clone-of="#rect1078"
       xlink:href="#rect1078"
       transform="translate(119.4001,160.0002)"
       id="use1664" />
    <use
       x="0"
       y="0"
       inkscape:tiled-clone-of="#rect1078"
       xlink:href="#rect1078"
       transform="translate(119.4001,200.0002)"
       id="use1666" />
    <use
       x="0"
       y="0"
       inkscape:tiled-clone-of="#rect1078"
       xlink:href="#rect1078"
       transform="translate(119.4001,240.0003)"
       id="use1668" />
    <use
       x="0"
       y="0"
       inkscape:tiled-clone-of="#rect1078"
       xlink:href="#rect1078"
       transform="translate(159.2002,0.000000)"
       id="use1670" />
    <use
       x="0"
       y="0"
       inkscape:tiled-clone-of="#rect1078"
       xlink:href="#rect1078"
       transform="translate(159.2002,40.00005)"
       id="use1672" />
    <use
       x="0"
       y="0"
       inkscape:tiled-clone-of="#rect1078"
       xlink:href="#rect1078"
       transform="translate(159.2002,80.00010)"
       id="use1674" />
    <use
       x="0"
       y="0"
       inkscape:tiled-clone-of="#rect1078"
       xlink:href="#rect1078"
       transform="translate(159.2002,120.0001)"
       id="use1676" />
    <use
       x="0"
       y="0"
       inkscape:tiled-clone-of="#rect1078"
       xlink:href="#rect1078"
       transform="translate(159.2002,160.0002)"
       id="use1678" />
    <use
       x="0"
       y="0"
       inkscape:tiled-clone-of="#rect1078"
       xlink:href="#rect1078"
       transform="translate(159.2002,200.0002)"
       id="use1680" />
    <use
       x="0"
       y="0"
       inkscape:tiled-clone-of="#rect1078"
       xlink:href="#rect1078"
       transform="translate(159.2002,240.0003)"
       id="use1682" />
    <use
       x="0"
       y="0"
       inkscape:tiled-clone-of="#rect1078"
       xlink:href="#rect1078"
       transform="translate(199.0002,0.000000)"
       id="use1684" />
    <use
       x="0"
       y="0"
       inkscape:tiled-clone-of="#rect1078"
       xlink:href="#rect1078"
       transform="translate(199.0002,40.00005)"
       id="use1686" />
    <use
       x="0"
       y="0"
       inkscape:tiled-clone-of="#rect1078"
       xlink:href="#rect1078"
       transform="translate(199.0002,80.00010)"
       id="use1688" />
    <use
       x="0"
       y="0"
       inkscape:tiled-clone-of="#rect1078"
       xlink:href="#rect1078"
       transform="translate(199.0002,120.0001)"
       id="use1690" />
    <use
       x="0"
       y="0"
       inkscape:tiled-clone-of="#rect1078"
       xlink:href="#rect1078"
       transform="translate(199.0002,160.0002)"
       id="use1692" />
    <use
       x="0"
       y="0"
       inkscape:tiled-clone-of="#rect1078"
       xlink:href="#rect1078"
       transform="translate(199.0002,200.0002)"
       id="use1694" />
    <use
       x="0"
       y="0"
       inkscape:tiled-clone-of="#rect1078"
       xlink:href="#rect1078"
       transform="translate(199.0002,240.0003)"
       id="use1696" />
    <use
       x="0"
       y="0"
       inkscape:tiled-clone-of="#rect1078"
       xlink:href="#rect1078"
       transform="translate(238.8003,0.000000)"
       id="use1698" />
    <use
       x="0"
       y="0"
       inkscape:tiled-clone-of="#rect1078"
       xlink:href="#rect1078"
       transform="translate(238.8003,40.00005)"
       id="use1700" />
    <use
       x="0"
       y="0"
       inkscape:tiled-clone-of="#rect1078"
       xlink:href="#rect1078"
       transform="translate(238.8003,80.00010)"
       id="use1702" />
    <use
       x="0"
       y="0"
       inkscape:tiled-clone-of="#rect1078"
       xlink:href="#rect1078"
       transform="translate(238.8003,120.0001)"
       id="use1704" />
    <use
       x="0"
       y="0"
       inkscape:tiled-clone-of="#rect1078"
       xlink:href="#rect1078"
       transform="translate(238.8003,160.0002)"
       id="use1706" />
    <use
       x="0"
       y="0"
       inkscape:tiled-clone-of="#rect1078"
       xlink:href="#rect1078"
       transform="translate(238.8003,200.0002)"
       id="use1708" />
    <use
       x="0"
       y="0"
       inkscape:tiled-clone-of="#rect1078"
       xlink:href="#rect1078"
       transform="translate(238.8003,240.0003)"
       id="use1710" />
    <g
       id="g1834"
       inkscape:label="Layer 1"
       transform="matrix(0.450001,0.000000,0.000000,0.450001,359.9700,-1.149129e-3)">
      <g
         id="g3108">
        <rect
           y="7.4337015"
           x="7.4276686"
           height="145.08029"
           width="145.14467"
           id="rect2334"
           style="color:#000000;fill:url(#radialGradient3106);fill-opacity:1.0000000;fill-rule:nonzero;stroke:url(#radialGradient3107);stroke-width:14.912500;stroke-linecap:butt;stroke-linejoin:round;marker:none;marker-start:none;marker-mid:none;marker-end:none;stroke-miterlimit:4.0000000;stroke-dashoffset:0.0000000;stroke-opacity:1.0000000;visibility:visible;display:block" />
        <rect
           transform="translate(2.858162e-2,160.0298)"
           y="7.4337015"
           x="7.4276686"
           height="145.08029"
           width="145.14467"
           id="rect2985"
           style="color:#000000;fill:url(#radialGradient2989);fill-opacity:1.0000000;fill-rule:nonzero;stroke:url(#radialGradient2990);stroke-width:14.912500;stroke-linecap:butt;stroke-linejoin:round;marker:none;marker-start:none;marker-mid:none;marker-end:none;stroke-miterlimit:4.0000000;stroke-dashoffset:0.0000000;stroke-opacity:1.0000000;visibility:visible;display:block" />
        <rect
           transform="translate(2.858162e-2,320.0298)"
           y="7.4337015"
           x="7.4276686"
           height="145.08029"
           width="145.14467"
           id="rect2994"
           style="color:#000000;fill:url(#radialGradient2998);fill-opacity:1.0000000;fill-rule:nonzero;stroke:url(#radialGradient2999);stroke-width:14.912500;stroke-linecap:butt;stroke-linejoin:round;marker:none;marker-start:none;marker-mid:none;marker-end:none;stroke-miterlimit:4.0000000;stroke-dashoffset:0.0000000;stroke-opacity:1.0000000;visibility:visible;display:block" />
        <rect
           transform="translate(2.858162e-2,480.0298)"
           y="7.4337015"
           x="7.4276686"
           height="145.08029"
           width="145.14467"
           id="rect3001"
           style="color:#000000;fill:url(#radialGradient3005);fill-opacity:1.0000000;fill-rule:nonzero;stroke:url(#radialGradient3006);stroke-width:14.912500;stroke-linecap:butt;stroke-linejoin:round;marker:none;marker-start:none;marker-mid:none;marker-end:none;stroke-miterlimit:4.0000000;stroke-dashoffset:0.0000000;stroke-opacity:1.0000000;visibility:visible;display:block" />
        <rect
           transform="translate(2.858162e-2,640.0298)"
           y="7.4337015"
           x="7.4276686"
           height="145.08029"
           width="145.14467"
           id="rect3008"
           style="color:#000000;fill:url(#radialGradient3012);fill-opacity:1.0000000;fill-rule:nonzero;stroke:url(#radialGradient3013);stroke-width:14.912500;stroke-linecap:butt;stroke-linejoin:round;marker:none;marker-start:none;marker-mid:none;marker-end:none;stroke-miterlimit:4.0000000;stroke-dashoffset:0.0000000;stroke-opacity:1.0000000;visibility:visible;display:block" />
      </g>
      <g
         style="fill:#ffffff;fill-opacity:1.0000000;stroke:#ffffff;stroke-opacity:1.0000000"
         transform="translate(-4.005498,3.289354e-5)"
         id="g3060">
        <text
           transform="matrix(6.236252,0.000000,0.000000,6.236252,-316.8087,-350.1002)"
           id="text2348"
           y="76.25354"
           x="57.003941"
           style="font-size:20.000000px;font-style:normal;font-variant:normal;font-weight:normal;font-stretch:normal;writing-mode:lr-tb;text-anchor:start;fill:#ffffff;fill-opacity:1.0000000;stroke:#ffffff;stroke-width:1.2493988;stroke-linecap:round;stroke-linejoin:round;stroke-miterlimit:4.0000000;stroke-opacity:1.0000000;font-family:Helvetica"
           xml:space="preserve"><tspan
             y="76.25354"
             x="57.003941"
             id="tspan2349"
             sodipodi:role="line">H</tspan></text>
        <text
           transform="matrix(6.236252,0.000000,0.000000,6.236252,-320.7999,-190.0704)"
           id="text2986"
           y="76.25354"
           x="57.003941"
           style="font-size:20.000000px;font-style:normal;font-variant:normal;font-weight:normal;font-stretch:normal;writing-mode:lr-tb;text-anchor:start;fill:#ffffff;fill-opacity:1.0000000;stroke:#ffffff;stroke-width:1.2493988;stroke-linecap:round;stroke-linejoin:round;stroke-miterlimit:4.0000000;stroke-opacity:1.0000000;font-family:Helvetica"
           xml:space="preserve"><tspan
             y="76.25354"
             x="57.003941"
             id="tspan2987"
             sodipodi:role="line">O</tspan></text>
        <text
           transform="matrix(6.236252,0.000000,0.000000,6.236252,-309.7617,-30.07040)"
           id="text2995"
           y="76.25354"
           x="57.003941"
           style="font-size:20.000000px;font-style:normal;font-variant:normal;font-weight:normal;font-stretch:normal;writing-mode:lr-tb;text-anchor:start;fill:#ffffff;fill-opacity:1.0000000;stroke:#ffffff;stroke-width:1.2493988;stroke-linecap:round;stroke-linejoin:round;stroke-miterlimit:4.0000000;stroke-opacity:1.0000000;font-family:Helvetica"
           xml:space="preserve"><tspan
             y="76.25354"
             x="57.003941"
             id="tspan2996"
             sodipodi:role="line">T</tspan></text>
        <text
           transform="matrix(6.236252,0.000000,0.000000,6.236252,-315.3120,129.9296)"
           id="text3002"
           y="76.25354"
           x="57.003941"
           style="font-size:20.000000px;font-style:normal;font-variant:normal;font-weight:normal;font-stretch:normal;writing-mode:lr-tb;text-anchor:start;fill:#ffffff;fill-opacity:1.0000000;stroke:#ffffff;stroke-width:1.2493988;stroke-linecap:round;stroke-linejoin:round;stroke-miterlimit:4.0000000;stroke-opacity:1.0000000;font-family:Helvetica"
           xml:space="preserve"><tspan
             y="76.25354"
             x="57.003941"
             id="tspan3003"
             sodipodi:role="line">E</tspan></text>
        <text
           transform="matrix(6.236252,0.000000,0.000000,6.236252,-309.6994,289.9296)"
           id="text3009"
           y="76.25354"
           x="57.003941"
           style="font-size:20.000000px;font-style:normal;font-variant:normal;font-weight:normal;font-stretch:normal;writing-mode:lr-tb;text-anchor:start;fill:#ffffff;fill-opacity:1.0000000;stroke:#ffffff;stroke-width:1.2493988;stroke-linecap:round;stroke-linejoin:round;stroke-miterlimit:4.0000000;stroke-opacity:1.0000000;font-family:Helvetica"
           xml:space="preserve"><tspan
             y="76.25354"
             x="57.003941"
             id="tspan3010"
             sodipodi:role="line">L</tspan></text>
      </g>
    </g>
    <rect
       y="0.0000000"
       x="440.00000"
       height="200.00000"
       width="200.00000"
       id="rect2330"
       style="opacity:1.0000000;color:#000000;fill:url(#linearGradient4531);fill-opacity:1.0;fill-rule:evenodd;stroke:none;stroke-width:100.00000;stroke-linecap:round;stroke-linejoin:miter;marker:none;marker-start:none;marker-mid:none;marker-end:none;stroke-miterlimit:4.0000000;stroke-dasharray:none;stroke-dashoffset:0.0000000;stroke-opacity:1.0000000;visibility:visible;display:inline;overflow:visible" />
    <path
       id="path2332"
       d="M 445.18750 0.0000000 C 443.38184 1.7339566 441.72090 3.6510837 440.00000 5.5000000 L 440.00000 17.031250 C 445.12477 10.729772 450.77549 5.0708537 456.81250 0.0000000 L 445.18750 0.0000000 z M 457.40625 0.0000000 C 451.14549 5.2288999 445.28777 11.073724 440.00000 17.625000 L 440.00000 30.843750 C 441.88306 28.040645 443.81932 25.262517 445.96875 22.593750 C 453.09675 13.743520 461.34310 6.2760182 470.28125 0.0000000 L 457.40625 0.0000000 z M 470.96875 0.0000000 C 461.86781 6.3393220 453.49310 13.929037 446.25000 22.937500 C 444.00103 25.734606 441.95632 28.650765 440.00000 31.593750 L 440.00000 46.937500 C 443.39511 40.249953 447.50092 33.835669 452.34375 27.812500 C 461.75191 16.111290 473.19372 6.8618410 485.75000 0.0000000 L 470.96875 0.0000000 z M 486.62500 0.0000000 C 473.84427 6.8893794 462.24393 16.309361 452.68750 28.218750 C 447.65237 34.493616 443.46281 41.203661 440.00000 48.187500 L 440.00000 69.750000 C 443.64678 56.672379 449.86018 44.172407 458.75000 33.093750 C 471.45914 17.255395 488.12846 6.2274105 506.31250 0.0000000 L 486.62500 0.0000000 z M 507.96875 0.0000000 C 489.29532 6.1096560 472.16481 17.312359 459.15625 33.562500 C 449.82286 45.221664 443.51976 58.454404 440.00000 72.250000 L 440.00000 124.34375 C 445.29810 145.34480 456.95900 164.82996 474.90625 179.18750 C 489.19261 190.61638 505.88332 197.43965 523.06250 200.00000 L 553.53125 200.00000 C 577.98036 196.41180 601.17635 184.24744 617.56250 163.75000 C 651.31874 121.52430 644.77280 57.962591 602.37500 24.093750 C 561.04468 -8.9223446 498.84775 -2.5351433 465.71875 38.968750 C 433.44519 79.400934 439.73647 140.23822 480.34375 172.62500 C 519.87495 204.15355 579.32664 198.02039 610.96875 158.31250 C 641.74974 119.68522 635.74316 61.582388 596.93750 30.687500 C 559.21717 0.65669039 502.52003 6.5370170 472.37500 44.437500 C 443.09710 81.247758 448.82022 136.57628 485.81250 165.96875 C 521.70946 194.49093 575.64413 188.86221 604.28125 152.78125 C 632.04479 117.80092 626.57266 65.285057 591.40625 37.406250 C 557.34601 10.404381 506.21124 15.751460 479.09375 50.000000 C 452.85670 83.136569 458.07902 132.83447 491.40625 159.18750 C 523.61544 184.65646 571.91470 179.58986 597.50000 147.18750 C 622.19746 115.90955 617.25503 69.032919 585.78125 44.218750 C 555.43856 20.296348 509.97697 25.114847 485.93750 55.656250 C 462.79388 85.059504 467.45746 129.05144 497.06250 152.31250 C 525.52195 174.67345 568.11500 170.16457 590.59375 141.50000 C 612.16794 113.98891 607.78231 72.848579 580.06250 51.156250 C 553.50454 30.373121 513.83909 34.635700 492.93750 61.406250 C 472.94996 87.006070 477.02712 125.20617 502.84375 145.31250 C 527.48016 164.49966 564.22500 160.54537 583.53125 135.68750 C 601.91296 112.02005 598.08151 76.751072 574.18750 58.250000 C 551.49487 40.679145 517.72170 44.356433 500.03125 67.281250 C 483.27701 88.992853 486.83123 121.28225 508.78125 138.15625 C 529.50522 154.08771 560.26121 150.68815 576.31250 129.71875 C 591.41453 109.98946 588.17010 80.721828 568.18750 65.500000 C 549.46043 51.234585 521.72876 54.354381 507.34375 73.343750 C 493.92278 91.060496 496.91694 117.24107 514.90625 130.78125 C 531.60390 143.34920 556.21982 140.51346 568.90625 123.53125 C 580.61169 107.86224 577.93640 84.822816 561.96875 73.000000 C 547.33881 62.167643 525.85422 64.710889 514.90625 79.656250 C 504.95892 93.235606 507.36601 113.09599 521.28125 123.15625 C 533.79721 132.20488 552.03006 129.97102 561.18750 117.09375 C 569.32151 105.65561 567.23826 89.017589 555.40625 80.781250 C 545.06238 73.580833 530.10478 75.531434 522.81250 86.312500 C 516.56892 95.543121 518.36565 108.83859 528.09375 115.15625 C 536.18891 120.41345 547.76407 118.74487 553.06250 110.06250 C 557.29388 103.12868 555.76201 93.234889 548.09375 89.031250 C 545.22057 87.456206 541.89702 87.043274 538.78125 87.812500 C 535.66548 88.581726 532.62633 90.744527 531.15625 94.125000 C 530.29331 96.101144 531.21135 98.387055 533.18750 99.250000 C 535.16364 100.11294 537.44956 99.226144 538.31250 97.250000 C 538.75025 96.243395 539.50070 95.691534 540.65625 95.406250 C 541.81180 95.120966 543.28998 95.297335 544.34375 95.875000 C 547.74605 97.740094 548.47697 102.60677 546.40625 106.00000 C 543.56529 110.65539 536.94409 111.61257 532.34375 108.62500 C 526.50178 104.83108 525.35212 96.450202 529.25000 90.687500 C 533.97622 83.700151 544.04369 82.388685 550.93750 87.187500 C 559.04098 92.828385 560.53342 104.56163 554.84375 112.56250 C 548.30340 121.75960 534.93211 123.41434 525.84375 116.84375 C 515.57139 109.41718 513.74546 94.409322 521.18750 84.250000 C 529.48864 72.917902 546.09651 70.945413 557.31250 79.250000 C 569.69097 88.415309 571.81507 106.61492 562.65625 118.87500 C 552.63617 132.28800 532.88666 134.56778 519.59375 124.56250 C 505.15681 113.69612 502.71801 92.378083 513.56250 78.062500 C 525.26737 62.611143 548.13976 60.041834 563.46875 71.718750 C 579.92575 84.254940 582.62798 108.63486 570.12500 124.96875 C 556.76414 142.42338 530.86218 145.29183 513.53125 131.96875 C 495.08647 117.78940 492.08121 90.383150 506.21875 72.062500 C 521.21081 52.634481 550.13395 49.459559 569.43750 64.406250 C 589.84226 80.205600 593.12581 110.59496 577.37500 130.87500 C 560.77347 152.25039 528.90675 155.70642 507.65625 139.15625 C 485.31598 121.75735 481.71750 88.402780 499.06250 66.187500 C 517.25420 42.887761 552.07533 39.176991 575.25000 57.312500 C 599.50407 76.292687 603.35941 112.55855 584.43750 136.68750 C 564.67295 161.89096 526.98461 165.89188 501.90625 146.18750 C 475.75806 125.64253 471.61066 86.491874 492.09375 60.468750 C 513.41539 33.380269 553.97404 29.085562 580.93750 50.343750 C 608.96199 72.438474 613.40483 114.44421 591.37500 142.34375 C 568.51065 171.30018 525.08155 175.86065 496.25000 153.06250 C 466.36555 129.43180 461.65549 84.603408 485.21875 54.843750 C 509.61261 24.035074 555.87850 19.205955 586.56250 43.531250 C 618.29178 68.685209 623.24060 116.33278 598.15625 147.93750 C 572.24512 180.58389 523.20945 185.68429 490.68750 159.84375 C 457.12739 133.17833 451.87480 82.748300 478.46875 49.312500 C 505.88572 14.841930 557.71610 9.4678271 592.06250 36.812500 C 627.44038 64.978381 632.96780 118.18366 604.87500 153.43750 C 575.96279 189.71962 521.34573 195.36965 485.18750 166.53125 C 448.00409 136.87521 442.23094 80.903408 471.81250 43.843750 C 502.20995 5.7619317 559.57303 -0.13484028 597.53125 30.187500 C 636.50868 61.324032 642.52957 120.02101 611.46875 158.87500 C 579.59542 198.74536 519.52831 204.92206 479.78125 173.12500 C 439.02061 140.51709 432.71889 79.074988 465.25000 38.437500 C 498.59034 -3.2108563 561.38089 -9.6380445 602.90625 23.625000 C 645.43982 57.695658 651.99291 121.80802 618.00000 164.21875 C 602.36979 183.71953 580.52926 195.73763 557.31250 200.00000 L 583.71875 200.00000 C 599.05719 193.21267 613.01688 182.94487 624.09375 169.12500 C 630.89236 160.64282 636.17434 151.34924 640.00000 141.62500 L 640.00000 61.718750 C 633.44820 44.867254 622.70667 29.486960 607.78125 17.531250 C 597.82612 9.5569001 586.72566 3.8083326 575.12500 0.0000000 L 507.96875 0.0000000 z M 576.87500 0.0000000 C 588.00809 3.8400970 598.64509 9.4699943 608.21875 17.156250 C 622.76438 28.834272 633.38644 43.759073 640.00000 60.156250 L 640.00000 42.625000 C 633.16442 30.815855 624.25883 20.026431 613.09375 11.062500 C 607.76118 6.7812230 602.10044 3.1646060 596.25000 0.0000000 L 576.87500 0.0000000 z M 597.21875 0.0000000 C 602.86484 3.1042144 608.34535 6.6036245 613.50000 10.750000 C 624.44380 19.553146 633.21061 30.124221 640.00000 41.687500 L 640.00000 27.500000 C 633.88853 19.150635 626.75816 11.399625 618.37500 4.6562500 C 616.29231 2.9809446 614.10122 1.5155942 611.93750 0.0000000 L 597.21875 0.0000000 z M 612.62500 0.0000000 C 614.66595 1.4429534 616.75101 2.8208160 618.71875 4.4062500 C 626.94928 11.037701 633.95777 18.651330 640.00000 26.843750 L 640.00000 14.312500 C 635.59342 9.2276470 630.75747 4.4356153 625.46875 0.0000000 L 612.62500 0.0000000 z M 626.00000 0.0000000 C 631.08350 4.2924507 635.73535 8.9133429 640.00000 13.812500 L 640.00000 2.2187500 C 639.24575 1.4578995 638.43117 0.74564469 637.65625 0.0000000 L 626.00000 0.0000000 z M 440.00000 126.68750 L 440.00000 148.59375 C 446.89062 162.63095 456.70786 175.40956 469.56250 185.71875 C 476.93661 191.63265 484.94782 196.29459 493.28125 200.00000 L 519.09375 200.00000 C 503.13819 197.01729 487.73905 190.29260 474.43750 179.62500 C 457.08307 165.70705 445.56512 146.97081 440.00000 126.68750 z M 640.00000 142.96875 C 636.18811 152.35688 631.05938 161.32644 624.46875 169.53125 C 613.58358 183.08243 599.87784 193.19491 584.84375 200.00000 L 601.46875 200.00000 C 612.28309 193.29056 622.18613 184.82651 630.53125 174.43750 C 634.11907 169.97094 637.18277 165.23999 640.00000 160.40625 L 640.00000 142.96875 z M 440.00000 149.78125 L 440.00000 165.53125 C 446.52587 175.39850 454.61875 184.41604 464.25000 192.15625 C 467.83631 195.03841 471.58146 197.60667 475.40625 200.00000 L 492.00000 200.00000 C 483.97554 196.33618 476.27141 191.78064 469.15625 186.06250 C 456.58464 175.95926 446.87979 163.49491 440.00000 149.78125 z M 640.00000 161.31250 C 637.25753 165.94613 634.29657 170.49066 630.84375 174.78125 C 622.63541 184.98120 612.92405 193.34109 602.31250 200.00000 L 615.96875 200.00000 C 623.59076 194.15301 630.68993 187.45093 636.93750 179.68750 C 638.03784 178.32018 638.96744 176.87105 640.00000 175.46875 L 640.00000 161.31250 z M 440.00000 166.25000 L 440.00000 179.40625 C 445.54979 186.32052 451.85294 192.74605 459.00000 198.50000 C 459.66790 199.03771 460.38624 199.47821 461.06250 200.00000 L 474.53125 200.00000 C 470.88936 197.68999 467.32820 195.19244 463.90625 192.43750 C 454.43985 184.81630 446.47087 175.94448 440.00000 166.25000 z M 640.00000 176.12500 C 639.04664 177.40815 638.19780 178.74655 637.18750 180.00000 C 631.04384 187.62227 624.07285 194.22308 616.59375 200.00000 L 628.71875 200.00000 C 632.67790 196.44529 636.43857 192.62665 640.00000 188.53125 L 640.00000 176.12500 z M 440.00000 180.03125 L 440.00000 191.75000 C 442.65530 194.60887 445.46594 197.35079 448.40625 200.00000 L 460.43750 200.00000 C 459.87507 199.56230 459.27532 199.19876 458.71875 198.75000 C 451.71321 193.10140 445.47332 186.80511 440.00000 180.03125 z M 640.00000 189.03125 C 636.62703 192.89405 633.04243 196.54795 629.25000 200.00000 L 640.00000 200.00000 L 640.00000 189.03125 z "
       style="fill:url(#linearGradient3794);fill-opacity:1.0;fill-rule:evenodd;stroke:none;stroke-width:7.8000002;stroke-linecap:round;stroke-linejoin:miter;stroke-miterlimit:4.0000000;stroke-dasharray:23.400000 7.8000000;stroke-dashoffset:0.0000000;stroke-opacity:1.0000000" />
  </g>
</svg>
