<?xml version="1.0" encoding="UTF-8" standalone="no"?>
<?xml-stylesheet type="text/css" href="css/default.css" ?>
<?xml-stylesheet type="text/css" title="Menu" href="css/menu.css" alternate="yes" ?>
<?xml-stylesheet type="text/css" title="MenuOver" href="css/menu_over.css" alternate="yes" ?>
<?xml-stylesheet type="text/css" title="MenuDisable" href="css/menu_disable.css" alternate="yes" ?>
<?xml-stylesheet type="text/css" title="MenuActivate" href="css/menu_activate.css" alternate="yes" ?>
<?xml-stylesheet type="text/css" title="Splash" href="css/splash.css" alternate="yes" ?>
<?xml-stylesheet type="text/css" title="Bar" href="css/bar.css" alternate="yes" ?>
<?xml-stylesheet type="text/css" title="BarOver" href="css/bar_over.css" alternate="yes" ?>
<?xml-stylesheet type="text/css" title="Cursor" href="css/cursor.css" alternate="yes" ?>
<?xml-stylesheet type="text/css" title="Cursor" href="css/cursor.css" alternate="yes" ?>
<svg height="80" width="80" xmlns:xlink="http://www.w3.org/1999/xlink">
  <g class="icon" id="tool">
	<use xlink:href="css/backgroundBox.svg#root" x="0" y="0"/>
    <path class="content" d="M 53.461515,19.360849 L 49.871778,22.950586 L 49.871778,33.719799 L 39.102565,33.719799 L 39.102565,28.335193 L 35.512828,28.335193 L 35.512828,33.719799 L 30.128222,33.719799 L 30.128222,42.694143 L 22.948747,48.078749 L 22.948747,40.899274 L 5.0000590,58.847961 L 19.359009,58.847961 L 28.333353,49.873618 L 30.128222,49.873618 L 30.128222,51.668486 L 28.333353,53.463355 L 28.333353,57.053093 L 31.923090,60.639148 L 71.410203,60.639148 L 74.999940,57.053093 L 74.999940,51.664805 L 71.410203,48.075067 L 67.820465,48.075067 L 67.820465,22.950586 L 64.230728,19.360849 L 53.461515,19.360849 z M 53.461515,21.155718 L 64.230728,21.155718 L 66.025597,22.950586 L 66.025597,31.924930 L 60.640990,31.924930 L 60.640990,37.309536 L 53.461515,37.309536 L 57.051253,33.719799 L 55.256384,31.924930 L 51.666647,31.924930 L 51.666647,22.950586 L 53.461515,21.155718 z " />
  </g>
</svg>
