<?xml version="1.0" encoding="UTF-8" standalone="no"?>
<?xml-stylesheet type="text/css" href="css/default.css" ?>
<?xml-stylesheet type="text/css" title="Menu" href="css/menu.css" alternate="yes" ?>
<?xml-stylesheet type="text/css" title="MenuOver" href="css/menu_over.css" alternate="yes" ?>
<?xml-stylesheet type="text/css" title="MenuDisable" href="css/menu_disable.css" alternate="yes" ?>
<?xml-stylesheet type="text/css" title="MenuActivate" href="css/menu_activate.css" alternate="yes" ?>
<?xml-stylesheet type="text/css" title="Splash" href="css/splash.css" alternate="yes" ?>
<?xml-stylesheet type="text/css" title="Bar" href="css/bar.css" alternate="yes" ?>
<?xml-stylesheet type="text/css" title="BarOver" href="css/bar_over.css" alternate="yes" ?>
<svg width="80" height="80">
  <g class="icon" id="firedept">
    <rect
       class="contener"
       width="80.000000"
       height="80.000000"
       x="0.0000000"
       y="0.0000000"
       rx="20.000000"
       ry="20.000000" />
    <path class="content" d="M 33.605172,6.8760835 C 33.017337,7.2393849 32.826932,9.6529795 32.839263,12.859750 C 32.834208,13.679886 32.857185,14.380478 32.935002,15.348955 C 32.993425,16.776258 32.927817,17.832799 33.078610,19.561456 C 33.824467,28.111822 33.518211,33.830116 32.456308,35.262597 C 32.433438,35.293432 32.384129,35.379582 32.360570,35.406205 C 32.209441,35.510307 32.045230,35.460232 31.881876,35.454074 C 31.646160,35.455866 31.397791,35.310313 31.115967,34.975381 C 30.984706,34.831650 30.868073,34.714512 30.733013,34.496687 C 30.146066,33.287424 29.975375,30.611766 30.397927,28.177936 L 31.163836,23.486741 L 28.100199,27.938589 C 25.840966,31.192938 25.273443,33.838235 25.898210,37.895410 C 26.366181,40.934170 26.162342,42.897441 25.467386,42.251519 C 23.230426,40.172397 20.586246,49.358682 21.015539,57.761182 C 21.320554,63.731199 22.361961,66.890774 24.892954,69.584906 C 28.313674,73.226100 30.441247,73.981133 30.541535,71.978372 C 30.551140,71.953251 30.580535,71.957111 30.589405,71.930503 C 30.881476,71.054272 30.545702,69.902712 29.967103,68.962605 C 29.406580,67.114282 28.688709,64.777462 28.243807,63.314024 C 27.920517,62.250651 27.960635,61.945007 28.004461,61.638597 C 28.016976,61.470756 28.034117,61.340842 28.052330,61.207773 C 28.340189,61.183724 28.922296,61.572499 30.110711,62.548114 C 32.679939,64.657245 32.792022,64.568445 31.786138,61.399251 C 31.383790,60.131564 31.325106,58.731435 31.403183,57.378227 C 31.649775,55.995439 31.841314,54.547028 32.312700,53.692288 C 32.387897,53.555712 32.470064,53.374007 32.552047,53.261465 C 32.690171,53.102385 32.832998,52.968412 32.982871,52.878510 C 33.268356,52.676861 33.566632,52.609936 33.892388,52.734902 C 33.933977,52.747003 33.994070,52.766274 34.035996,52.782771 C 34.350111,53.113904 34.746975,54.163798 35.136991,55.128368 C 35.352717,56.106297 35.508089,57.242171 35.519945,58.431352 C 35.566758,63.127770 35.682088,63.193945 37.913412,60.250387 L 38.344236,59.340869 C 39.256143,57.768810 39.835094,55.952150 39.493100,54.889022 C 39.086586,53.625271 38.280283,50.867998 37.721935,48.761748 C 36.768868,45.166432 36.896897,45.234705 39.876054,49.527657 C 42.338652,53.076252 42.870683,55.449192 42.125913,60.106779 C 41.879597,61.647099 41.912653,62.216491 41.886566,63.026808 C 41.897902,63.146765 41.802270,63.581112 41.838697,63.649109 C 41.884192,64.902703 42.207099,65.446560 43.179038,64.845842 C 43.906775,64.396070 44.230969,64.298018 44.375771,64.510757 C 44.182303,65.745970 43.516636,67.712319 42.365260,70.542293 C 42.329614,70.629897 42.353955,70.644633 42.317390,70.733770 C 42.184520,71.059787 42.224577,70.997656 42.078044,71.356071 C 40.794196,74.496253 44.116572,73.551259 49.114835,69.345559 C 49.629465,68.912530 50.094357,67.981046 50.598784,67.382917 C 51.199533,66.735494 51.694923,65.972480 52.226342,65.228797 C 53.088939,63.895226 53.816783,62.550473 54.571939,60.920557 C 55.046098,59.878048 55.588607,58.910934 55.960149,57.761182 C 58.451667,51.212780 59.865582,43.983699 58.497224,40.384615 C 57.643863,38.140148 56.917536,34.633356 56.917536,32.581914 C 56.917536,30.530503 56.328337,28.848106 55.577195,28.848106 C 53.509148,28.848106 52.258663,35.615589 53.327336,40.959047 C 53.574311,42.193968 53.557982,43.016095 53.518813,43.783337 C 53.513835,43.875078 53.525017,44.033284 53.518813,44.118423 C 53.498348,44.255980 53.493140,44.467202 53.470944,44.597116 C 53.313075,45.244493 53.010127,45.698110 52.513558,45.698110 C 51.392772,45.698110 50.790262,41.750905 50.790262,34.400949 C 50.790262,31.425682 50.594403,29.632673 50.407307,27.747112 C 50.415150,27.380624 50.384391,27.056645 50.359438,26.693987 C 50.279753,26.066737 50.180567,25.335447 50.072222,24.827083 C 49.827207,23.772211 49.495369,22.794804 49.019096,22.146400 C 49.003656,22.119609 48.986913,22.124235 48.971227,22.098531 C 48.944512,22.063176 48.902785,22.084239 48.875488,22.050662 C 48.721587,21.850101 48.669153,21.335593 48.492534,21.189014 C 46.527977,19.558577 46.219698,20.027206 46.194806,24.444128 L 46.194806,25.401515 L 46.194806,25.880208 C 46.191788,26.403829 46.173759,26.828833 46.146937,27.172680 C 45.666405,27.528429 44.685658,26.738670 43.514124,25.401515 L 41.551481,22.242139 C 40.456813,20.498761 39.406583,18.529516 38.487844,16.641427 C 38.311547,16.279106 38.124328,15.941402 37.961281,15.588302 C 37.001076,13.508843 36.238828,11.619360 35.998639,10.418414 C 35.828929,9.5698475 35.556954,8.9995825 35.280599,8.4079021 C 35.229697,8.1441382 35.160780,7.7009831 35.041252,7.7377314 C 34.574216,6.9761572 34.059510,6.5952858 33.605172,6.8760835 z M 42.413129,41.916433 C 42.521766,41.590508 42.850034,41.731037 43.418385,42.299388 C 44.308525,43.189528 44.744143,44.784457 44.375771,45.889588 C 44.245276,46.281090 44.033900,46.195752 43.849209,46.176804 C 43.674704,46.020757 43.480745,45.901030 43.322646,45.698110 C 43.119451,45.330382 42.934223,45.021184 42.748214,44.309900 C 42.415059,43.035917 42.304492,42.242358 42.413129,41.916433 z " />
  </g>
</svg>
