<?xml version="1.0" encoding="UTF-8" standalone="no"?>
<?xml-stylesheet type="text/css" href="css/default.css" ?>
<?xml-stylesheet type="text/css" title="Menu" href="css/menu.css" alternate="yes" ?>
<?xml-stylesheet type="text/css" title="MenuOver" href="css/menu_over.css" alternate="yes" ?>
<?xml-stylesheet type="text/css" title="MenuDisable" href="css/menu_disable.css" alternate="yes" ?>
<?xml-stylesheet type="text/css" title="MenuActivate" href="css/menu_activate.css" alternate="yes" ?>
<?xml-stylesheet type="text/css" title="Splash" href="css/splash.css" alternate="yes" ?>
<?xml-stylesheet type="text/css" title="Bar" href="css/bar.css" alternate="yes" ?>
<?xml-stylesheet type="text/css" title="BarOver" href="css/bar_over.css" alternate="yes" ?>
<?xml-stylesheet type="text/css" title="Cursor" href="css/cursor.css" alternate="yes" ?>
<svg height="80" width="80" xmlns:xlink="http://www.w3.org/1999/xlink">
  <g class="icon" id="monument">
	<use xlink:href="css/backgroundBox.svg#root" x="0" y="0"/>
    <path
       d="M 15,10 L 15,15 L 10,15 L 10,20 L 15,20 L 15,60 L 5,60 L 5,65 L 15,65 L 30,65 L 50,65 L 65,65 L 75,65 L 75,60 L 65,60 L 65,20 L 70,20 L 70,15 L 65,15 L 65,10 L 15,10 z M 40,27.5 C 45,27.5 50,30 50,35 L 50,60 L 30,60 L 30,35 C 30,30 35,27.5 40,27.5 z "
       class="content" />
  </g>
</svg>
