<?xml version="1.0" encoding="UTF-8" standalone="no"?>
<?xml-stylesheet type="text/css" href="css/default.css" ?>
<?xml-stylesheet type="text/css" title="Menu" href="css/menu.css" alternate="yes" ?>
<?xml-stylesheet type="text/css" title="MenuOver" href="css/menu_over.css" alternate="yes" ?>
<?xml-stylesheet type="text/css" title="MenuDisable" href="css/menu_disable.css" alternate="yes" ?>
<?xml-stylesheet type="text/css" title="MenuActivate" href="css/menu_activate.css" alternate="yes" ?>
<?xml-stylesheet type="text/css" title="Splash" href="css/splash.css" alternate="yes" ?>
<?xml-stylesheet type="text/css" title="Bar" href="css/bar.css" alternate="yes" ?>
<?xml-stylesheet type="text/css" title="BarOver" href="css/bar_over.css" alternate="yes" ?>
<svg width="80" height="80">
  <g class="icon" id="powerPlant">
    <rect
       width="80.000000"
       height="80.000000"
       x="0.0000000"
       y="0.0000000"
       rx="20.000000"
       ry="20.000000"
       class="contener" />
    <path class="content" d="M 25.468750,8.9062500 C 22.630591,8.5291157 19.905106,8.9580223 17.781250,10.562500 C 15.657394,12.166978 14.475416,14.698075 14.062500,17.531250 C 13.649584,20.364425 13.944984,23.580605 14.812500,27.093750 C 14.844661,27.223992 14.903764,27.368970 14.937500,27.500000 C 14.809639,27.553249 14.657473,27.602154 14.531250,27.656250 C 11.205167,29.081714 8.4179589,30.806496 6.4062500,32.843750 C 4.3945411,34.881004 3.1250000,37.338213 3.1250000,40.000000 C 3.1250000,42.661787 4.3945411,45.118996 6.4062500,47.156250 C 8.4179589,49.193504 11.205167,50.918286 14.531250,52.343750 C 14.657473,52.397846 14.809639,52.446751 14.937500,52.500000 C 14.903764,52.631030 14.844661,52.776008 14.812500,52.906250 C 13.944984,56.419395 13.649584,59.635575 14.062500,62.468750 C 14.475416,65.301925 15.657394,67.833022 17.781250,69.437500 C 19.905106,71.041978 22.630591,71.470884 25.468750,71.093750 C 28.306909,70.716616 31.326461,69.544657 34.468750,67.750000 C 36.284068,66.713217 38.136054,65.405961 40.000000,63.968750 C 41.863946,65.405961 43.715932,66.713217 45.531250,67.750000 C 48.673539,69.544657 51.693090,70.716616 54.531250,71.093750 C 57.369410,71.470884 60.094894,71.041978 62.218750,69.437500 C 64.342606,67.833022 65.524584,65.301925 65.937500,62.468750 C 66.350416,59.635575 66.055017,56.419395 65.187500,52.906250 C 65.155339,52.776008 65.096236,52.631030 65.062500,52.500000 C 65.190361,52.446751 65.342527,52.397846 65.468750,52.343750 C 68.794833,50.918286 71.582041,49.193504 73.593750,47.156250 C 75.605459,45.118996 76.875000,42.661787 76.875000,40.000000 C 76.875000,37.338213 75.605459,34.881004 73.593750,32.843750 C 71.582041,30.806496 68.794833,29.081714 65.468750,27.656250 C 65.342527,27.602154 65.190361,27.553249 65.062500,27.500000 C 65.096236,27.368970 65.155339,27.223992 65.187500,27.093750 C 66.055017,23.580605 66.350416,20.364425 65.937500,17.531250 C 65.524584,14.698075 64.342606,12.166978 62.218750,10.562500 C 60.094894,8.9580224 57.369409,8.5291157 54.531250,8.9062500 C 51.693091,9.2833843 48.673539,10.455343 45.531250,12.250000 C 43.715932,13.286783 41.863946,14.594039 40.000000,16.031250 C 38.136054,14.594039 36.284068,13.286783 34.468750,12.250000 C 31.326461,10.455343 28.306909,9.2833843 25.468750,8.9062500 z M 24.968750,12.593750 C 27.130184,12.880961 29.782350,13.876476 32.625000,15.500000 C 34.067525,16.323870 35.544793,17.328351 37.062500,18.468750 C 35.296769,20.016046 33.538591,21.702375 31.812500,23.562500 C 26.901314,24.051781 22.427101,24.999899 18.468750,26.281250 C 18.461261,26.251264 18.444888,26.217421 18.437500,26.187500 C 17.652707,23.009358 17.435539,20.220138 17.750000,18.062500 C 18.064461,15.904862 18.851775,14.453540 20.031250,13.562500 C 21.210725,12.671460 22.807316,12.306539 24.968750,12.593750 z M 55.031250,12.593750 C 57.192685,12.306539 58.789275,12.671460 59.968750,13.562500 C 61.148225,14.453540 61.935539,15.904862 62.250000,18.062500 C 62.564461,20.220138 62.347293,23.009358 61.562500,26.187500 C 61.555112,26.217421 61.538739,26.251264 61.531250,26.281250 C 57.572899,24.999899 53.098686,24.051781 48.187500,23.562500 C 46.461409,21.702375 44.703231,20.016046 42.937500,18.468750 C 44.455207,17.328351 45.932475,16.323870 47.375000,15.500000 C 50.217650,13.876476 52.869815,12.880961 55.031250,12.593750 z M 40.000000,20.906250 C 40.859817,21.647992 41.701695,22.421655 42.562500,23.250000 C 41.701455,23.223877 40.876773,23.125000 40.000000,23.125000 C 39.123227,23.125000 38.298545,23.223877 37.437500,23.250000 C 38.298305,22.421655 39.140183,21.647992 40.000000,20.906250 z M 40.000000,26.875000 C 42.199544,26.875000 44.325165,26.984561 46.406250,27.156250 C 47.792379,28.709872 49.146719,30.343770 50.468750,32.093750 C 52.452195,34.719248 54.110228,37.377856 55.625000,40.000000 C 54.110228,42.622144 52.452195,45.280752 50.468750,47.906250 C 49.146719,49.656230 47.792379,51.290128 46.406250,52.843750 C 44.325165,53.015439 42.199544,53.125000 40.000000,53.125000 C 37.800456,53.125000 35.674835,53.015439 33.593750,52.843750 C 32.207621,51.290128 30.853281,49.656230 29.531250,47.906250 C 27.547804,45.280752 25.889772,42.622144 24.375000,40.000000 C 25.889772,37.377856 27.547804,34.719248 29.531250,32.093750 C 30.853281,30.343770 32.207621,28.709872 33.593750,27.156250 C 35.674835,26.984561 37.800456,26.875000 40.000000,26.875000 z M 28.156250,27.843750 C 27.617793,28.512454 27.057956,29.115297 26.531250,29.812500 C 24.947951,31.908321 23.522946,34.013590 22.218750,36.125000 C 21.142867,33.950297 20.297809,31.863324 19.593750,29.843750 C 22.173158,29.009241 25.035327,28.343726 28.156250,27.843750 z M 51.843750,27.843750 C 54.964673,28.343726 57.826842,29.009241 60.406250,29.843750 C 59.702191,31.863324 58.857133,33.950297 57.781250,36.125000 C 56.477054,34.013590 55.052048,31.908321 53.468750,29.812500 C 52.942044,29.115297 52.382207,28.512454 51.843750,27.843750 z M 16.062500,31.093750 C 17.056492,33.965902 18.388187,36.944744 20.031250,40.000000 C 18.388187,43.055256 17.056492,46.034098 16.062500,48.906250 C 16.042645,48.897784 16.019800,48.883486 16.000000,48.875000 C 12.991083,47.585464 10.625791,46.082746 9.0937500,44.531250 C 7.5617089,42.979754 6.8750000,41.478213 6.8750000,40.000000 C 6.8750000,38.521787 7.5617089,37.020246 9.0937500,35.468750 C 10.625791,33.917254 12.991083,32.414536 16.000000,31.125000 C 16.019800,31.116514 16.042645,31.102216 16.062500,31.093750 z M 63.937500,31.093750 C 63.957355,31.102216 63.980200,31.116514 64.000000,31.125000 C 67.008917,32.414536 69.374209,33.917254 70.906250,35.468750 C 72.438291,37.020246 73.125000,38.521787 73.125000,40.000000 C 73.125000,41.478213 72.438291,42.979754 70.906250,44.531250 C 69.374209,46.082746 67.008917,47.585464 64.000000,48.875000 C 63.980200,48.883486 63.957355,48.897784 63.937500,48.906250 C 62.943508,46.034098 61.611813,43.055256 59.968750,40.000000 C 61.611813,36.944744 62.943508,33.965902 63.937500,31.093750 z M 22.218750,43.875000 C 23.522946,45.986410 24.947951,48.091679 26.531250,50.187500 C 27.057956,50.884703 27.617793,51.487546 28.156250,52.156250 C 25.035327,51.656274 22.173158,50.990759 19.593750,50.156250 C 20.297809,48.136675 21.142867,46.049703 22.218750,43.875000 z M 57.781250,43.875000 C 58.857133,46.049703 59.702191,48.136675 60.406250,50.156250 C 57.826842,50.990759 54.964673,51.656274 51.843750,52.156250 C 52.382207,51.487546 52.942044,50.884703 53.468750,50.187500 C 55.052048,48.091679 56.477054,45.986410 57.781250,43.875000 z M 18.468750,53.718750 C 22.427101,55.000101 26.901314,55.948219 31.812500,56.437500 C 33.538591,58.297625 35.296769,59.983954 37.062500,61.531250 C 35.544793,62.671649 34.067525,63.676130 32.625000,64.500000 C 29.782350,66.123524 27.130184,67.119039 24.968750,67.406250 C 22.807316,67.693461 21.210725,67.328540 20.031250,66.437500 C 18.851775,65.546460 18.064461,64.095138 17.750000,61.937500 C 17.435539,59.779862 17.652707,56.990642 18.437500,53.812500 C 18.444888,53.782579 18.461261,53.748736 18.468750,53.718750 z M 61.531250,53.718750 C 61.538739,53.748736 61.555112,53.782579 61.562500,53.812500 C 62.347293,56.990642 62.564461,59.779862 62.250000,61.937500 C 61.935539,64.095138 61.148225,65.546460 59.968750,66.437500 C 58.789275,67.328540 57.192685,67.693461 55.031250,67.406250 C 52.869815,67.119039 50.217650,66.123524 47.375000,64.500000 C 45.932475,63.676130 44.455207,62.671649 42.937500,61.531250 C 44.703231,59.983954 46.461409,58.297625 48.187500,56.437500 C 53.098686,55.948219 57.572899,55.000101 61.531250,53.718750 z M 37.437500,56.750000 C 38.298545,56.776123 39.123227,56.875000 40.000000,56.875000 C 40.876773,56.875000 41.701455,56.776123 42.562500,56.750000 C 41.701695,57.578345 40.859817,58.352008 40.000000,59.093750 C 39.140183,58.352008 38.298305,57.578345 37.437500,56.750000 z " />
    <path class="content" d="M 45.000000,40.000000 C 45.000000,42.761424 42.761424,45.000000 40.000000,45.000000 C 37.238576,45.000000 35.000000,42.761424 35.000000,40.000000 C 35.000000,37.238576 37.238576,35.000000 40.000000,35.000000 C 42.761424,35.000000 45.000000,37.238576 45.000000,40.000000 z " />
  </g>
</svg>
