<?xml version="1.0" encoding="UTF-8" standalone="no"?>
<?xml-stylesheet type="text/css" href="css/default.css" ?>
<?xml-stylesheet type="text/css" title="Menu" href="css/menu.css" alternate="yes" ?>
<?xml-stylesheet type="text/css" title="MenuOver" href="css/menu_over.css" alternate="yes" ?>
<?xml-stylesheet type="text/css" title="MenuDisable" href="css/menu_disable.css" alternate="yes" ?>
<?xml-stylesheet type="text/css" title="MenuActivate" href="css/menu_activate.css" alternate="yes" ?>
<?xml-stylesheet type="text/css" title="Splash" href="css/splash.css" alternate="yes" ?>
<?xml-stylesheet type="text/css" title="Bar" href="css/bar.css" alternate="yes" ?>
<?xml-stylesheet type="text/css" title="BarOver" href="css/bar_over.css" alternate="yes" ?>
<?xml-stylesheet type="text/css" title="Cursor" href="css/cursor.css" alternate="yes" ?>
<svg width="80" height="80" xmlns:xlink="http://www.w3.org/1999/xlink">
  <g class="icon" id="powerLine">
	<use xlink:href="css/backgroundBox.svg#root" x="0" y="0"/>
    <g class="content">
      <path d="M 37.500000,22.500000 L 42.500000,25.000000 L 42.500000,70.000000 L 37.500000,67.500000 L 37.500000,22.500000 z " />
      <path d="M 22.500000,15.000000 L 57.500000,30.000000 L 57.500000,32.500000 L 22.500000,17.500000 L 22.500000,15.000000 z " />
      <path d="M 25.000000,14.166667 L 27.500000,15.277778 L 27.500000,17.500000 L 25.000000,16.388889 L 25.000000,14.166667 z " />
      <path d="M 52.500000,26.388889 L 55.000000,27.500000 L 55.000000,29.722222 L 52.500000,28.611111 L 52.500000,26.388889 z " />
      <g
         id="g1300">
        <rect
           width="63.245541"
           height="2.5000000"
           x="10.540948"
           y="43.333344"
           transform="matrix(0.948683,-0.316228,0.000000,1.000000,0.000000,0.000000)" />
        <rect
           width="63.245518"
           height="2.5000000"
           x="10.540971"
           y="38.333359"
           transform="matrix(0.948683,-0.316228,0.000000,1.000000,0.000000,0.000000)" />
        <rect
           width="63.245506"
           height="2.5000000"
           x="5.2704635"
           y="26.666672"
           transform="matrix(0.948683,-0.316228,0.000000,1.000000,0.000000,0.000000)" />
        <rect
           width="63.245495"
           height="2.5000000"
           x="5.2705302"
           y="31.666689"
           transform="matrix(0.948683,-0.316228,0.000000,1.000000,0.000000,0.000000)" />
      </g>
    </g>
  </g>
</svg>
