<?xml version="1.0" encoding="UTF-8" standalone="no"?>
<?xml-stylesheet type="text/css" href="css/default.css" ?>
<?xml-stylesheet type="text/css" title="Menu" href="css/menu.css" alternate="yes" ?>
<?xml-stylesheet type="text/css" title="MenuOver" href="css/menu_over.css" alternate="yes" ?>
<?xml-stylesheet type="text/css" title="MenuDisable" href="css/menu_disable.css" alternate="yes" ?>
<?xml-stylesheet type="text/css" title="MenuActivate" href="css/menu_activate.css" alternate="yes" ?>
<?xml-stylesheet type="text/css" title="Splash" href="css/splash.css" alternate="yes" ?>
<?xml-stylesheet type="text/css" title="Bar" href="css/bar.css" alternate="yes" ?>
<?xml-stylesheet type="text/css" title="BarOver" href="css/bar_over.css" alternate="yes" ?>
<?xml-stylesheet type="text/css" title="Cursor" href="css/cursor.css" alternate="yes" ?>
<svg width="80" height="80" xmlns:xlink="http://www.w3.org/1999/xlink">
  <g id="query" class="icon">
    <use xlink:href="css/backgroundBox.svg#root" x="0" y="0" />
    <path class="content" d="M 39.235,44.59 C 51.049988,40.765004 57.085,34.644992 57.085,26.315 C 57.085,17.050009 49.604988,10.675 37.96,10.675 C 28.695009,10.675 22.915,14.925005 22.915,20.025 C 22.915,23.339997 25.210004,25.295 29.205,25.295 C 29.799999,25.295 30.310001,25.295 30.905,25.21 L 34.73,15.605 C 34.815,15.605 34.9,15.605 34.985,15.605 C 41.954993,15.605 46.035,19.685007 46.035,26.315 C 46.035,33.114993 41.784992,38.045003 33.71,40.85 L 33.71,52.325 L 39.235,52.325 L 39.235,44.59 M 36.6,56.405 C 33.115003,56.405 30.31,59.295004 30.31,62.78 C 30.31,66.604996 33.285003,69.325 36.515,69.325 C 40.169996,69.325 43.06,66.434997 43.06,63.035 C 43.06,59.210004 40.169996,56.405 36.6,56.405" />
  </g>
</svg>
