<?xml version="1.0" encoding="UTF-8" standalone="no"?>
<?xml-stylesheet type="text/css" href="css/default.css" ?>
<?xml-stylesheet type="text/css" title="Menu" href="css/menu.css" alternate="yes" ?>
<?xml-stylesheet type="text/css" title="MenuOver" href="css/menu_over.css" alternate="yes" ?>
<?xml-stylesheet type="text/css" title="MenuDisable" href="css/menu_disable.css" alternate="yes" ?>
<?xml-stylesheet type="text/css" title="MenuActivate" href="css/menu_activate.css" alternate="yes" ?>
<?xml-stylesheet type="text/css" title="Splash" href="css/splash.css" alternate="yes" ?>
<?xml-stylesheet type="text/css" title="Bar" href="css/bar.css" alternate="yes" ?>
<?xml-stylesheet type="text/css" title="BarOver" href="css/bar_over.css" alternate="yes" ?>
<svg height="80" width="80">
  <g class="icon" id="vehicle">
    <rect
       ry="20.000000"
       rx="20.000000"
       y="0.0000000"
       x="0.0000000"
       height="80.000000"
       width="80.000000"
       class="contener" />
    <path class="content" transform="matrix(1.500000,0.000000,0.000000,1.500000,-15.00000,-25.00000)" d="M 30.000000 55.000000 A 5.0000000 5.0000000 0 1 1  20.000000,55.000000 A 5.0000000 5.0000000 0 1 1  30.000000 55.000000 z" />
    <path class="content" transform="matrix(1.500000,0.000000,0.000000,1.500000,20.00000,-25.00000)" d="M 30.000000 55.000000 A 5.0000000 5.0000000 0 1 1  20.000000,55.000000 A 5.0000000 5.0000000 0 1 1  30.000000 55.000000 z" />
    <path class="content" d="M 25.000000,25.000000 L 20.000000,40.000000 L 5.0000000,40.000000 L 5.0000000,55.000000 L 75.000000,55.000000 L 75.000000,40.000000 L 65.000000,40.000000 L 60.000000,25.000000 L 25.000000,25.000000 z " />
  </g>
</svg>
