<?xml version="1.0" encoding="UTF-8" standalone="no"?>
<!DOCTYPE svg PUBLIC "-//W3C//DTD SVG 20010904//EN"
"http://www.w3.org/TR/2001/REC-SVG-20010904/DTD/svg10.dtd">
<!-- Created with Inkscape (http://www.inkscape.org/) -->
<svg
   width="512.00000pt"
   height="256.00000pt"
   id="svg1"
   sodipodi:version="0.32"
   inkscape:version="0.40"
   sodipodi:docbase="/home/fred/work/r-opencity/graphism/frodrigo/2/residential/la_grande_motte"
   sodipodi:docname="sol.svg"
   xmlns="http://www.w3.org/2000/svg"
   xmlns:cc="http://web.resource.org/cc/"
   xmlns:inkscape="http://www.inkscape.org/namespaces/inkscape"
   xmlns:sodipodi="http://sodipodi.sourceforge.net/DTD/sodipodi-0.dtd"
   xmlns:rdf="http://www.w3.org/1999/02/22-rdf-syntax-ns#"
   xmlns:dc="http://purl.org/dc/elements/1.1/"
   xmlns:xlink="http://www.w3.org/1999/xlink"
   inkscape:export-filename="/home/fred/work/r-opencity/graphism/frodrigo/2/residential/la_grande_motte/sol.png"
   inkscape:export-xdpi="72.000000"
   inkscape:export-ydpi="72.000000">
  <defs
     id="defs3">
    <linearGradient
       id="linearGradient8719">
      <stop
         style="stop-color:#63524a;stop-opacity:1.0000000;"
         offset="0.0000000"
         id="stop8720" />
      <stop
         style="stop-color:#67504b;stop-opacity:1.0000000;"
         offset="1.0000000"
         id="stop8721" />
    </linearGradient>
    <linearGradient
       id="linearGradient7358">
      <stop
         style="stop-color:#b0773b;stop-opacity:1.0000000;"
         offset="0.0000000"
         id="stop7359" />
      <stop
         style="stop-color:#eb996c;stop-opacity:1.0000000;"
         offset="1.0000000"
         id="stop7360" />
    </linearGradient>
    <radialGradient
       inkscape:collect="always"
       xlink:href="#linearGradient7358"
       id="radialGradient8050"
       gradientUnits="userSpaceOnUse"
       gradientTransform="scale(1.224745,0.816497)"
       cx="-117.83363"
       cy="-160.77557"
       fx="-117.83363"
       fy="-160.77557"
       r="138.78822" />
    <radialGradient
       inkscape:collect="always"
       xlink:href="#linearGradient7358"
       id="radialGradient8051"
       gradientUnits="userSpaceOnUse"
       gradientTransform="scale(1.224745,0.816497)"
       cx="-117.83363"
       cy="-160.77557"
       fx="-117.83363"
       fy="-160.77557"
       r="138.78822" />
    <radialGradient
       inkscape:collect="always"
       xlink:href="#linearGradient7358"
       id="radialGradient8052"
       gradientUnits="userSpaceOnUse"
       gradientTransform="scale(1.224745,0.816497)"
       cx="-117.83363"
       cy="-160.77557"
       fx="-117.83363"
       fy="-160.77557"
       r="138.78822" />
    <radialGradient
       inkscape:collect="always"
       xlink:href="#linearGradient7358"
       id="radialGradient8053"
       gradientUnits="userSpaceOnUse"
       gradientTransform="scale(1.224745,0.816497)"
       cx="-117.83363"
       cy="-160.77557"
       fx="-117.83363"
       fy="-160.77557"
       r="138.78822" />
    <radialGradient
       inkscape:collect="always"
       xlink:href="#linearGradient7358"
       id="radialGradient8054"
       gradientUnits="userSpaceOnUse"
       gradientTransform="scale(1.224745,0.816497)"
       cx="-117.83363"
       cy="-160.77557"
       fx="-117.83363"
       fy="-160.77557"
       r="138.78822" />
    <pattern
       patternUnits="userSpaceOnUse"
       width="19.999920"
       height="19.999920"
       patternTransform="translate(-160.0000,-139.9999)"
       id="pattern8055">
      <g
         id="g8056"
         transform="matrix(0.166666,0.000000,0.000000,0.166666,26.66656,23.33324)">
        <path
           style="color:#000000;fill:url(#radialGradient8050);fill-opacity:1.0000000;fill-rule:evenodd;stroke:none;stroke-width:5.0000000;stroke-linecap:butt;stroke-linejoin:round;stroke-miterlimit:4.0000000;stroke-dashoffset:0.0000000;stroke-opacity:1.0000000;marker:none;marker-start:none;marker-mid:none;marker-end:none;visibility:visible;display:block"
           d="M -160.00000,-140.00000 L -160.00000,-60.000000 L -140.00000,-60.000000 L -120.00000,-80.000000 L -80.000000,-80.000000 L -60.000000,-60.000000 L -40.000000,-60.000000 L -40.000000,-140.00000 L -60.000000,-140.00000 L -80.000000,-120.00000 L -120.00000,-120.00000 L -140.00000,-140.00000 L -160.00000,-140.00000 z "
           id="path8057"
           sodipodi:nodetypes="ccccccccccccc" />
        <path
           style="color:#000000;fill:url(#radialGradient8051);fill-opacity:1.0000000;fill-rule:evenodd;stroke:none;stroke-width:5.0000000;stroke-linecap:butt;stroke-linejoin:round;stroke-miterlimit:4.0000000;stroke-dashoffset:0.0000000;stroke-opacity:1.0000000;marker:none;marker-start:none;marker-mid:none;marker-end:none;visibility:visible;display:block"
           d="M -140.00000,-140.00000 L -120.00000,-120.00000 L -100.00000,-120.00000 L -100.00000,-140.00000 L -140.00000,-140.00000 z "
           id="path8058" />
        <path
           style="color:#000000;fill:url(#radialGradient8052);fill-opacity:1.0000000;fill-rule:evenodd;stroke:none;stroke-width:5.0000000;stroke-linecap:butt;stroke-linejoin:round;stroke-miterlimit:4.0000000;stroke-dashoffset:0.0000000;stroke-opacity:1.0000000;marker:none;marker-start:none;marker-mid:none;marker-end:none;visibility:visible;display:block"
           d="M -100.00000,-140.00000 L -100.00000,-120.00000 L -80.000000,-120.00000 L -60.000000,-140.00000 L -100.00000,-140.00000 z "
           id="path8059" />
        <path
           style="color:#000000;fill:url(#radialGradient8053);fill-opacity:1.0000000;fill-rule:evenodd;stroke:none;stroke-width:5.0000000;stroke-linecap:butt;stroke-linejoin:round;stroke-miterlimit:4.0000000;stroke-dashoffset:0.0000000;stroke-opacity:1.0000000;marker:none;marker-start:none;marker-mid:none;marker-end:none;visibility:visible;display:block"
           d="M -100.00000,-80.000000 L -100.00000,-20.000000 L -60.000000,-20.000000 L -40.000000,-20.000000 L -40.000000,-60.000000 L -60.000000,-60.000000 L -80.000000,-80.000000 L -100.00000,-80.000000 z "
           id="path8060" />
        <path
           style="color:#000000;fill:url(#radialGradient8054);fill-opacity:1.0000000;fill-rule:evenodd;stroke:none;stroke-width:5.0000000;stroke-linecap:butt;stroke-linejoin:round;stroke-miterlimit:4.0000000;stroke-dashoffset:0.0000000;stroke-opacity:1.0000000;marker:none;marker-start:none;marker-mid:none;marker-end:none;visibility:visible;display:block"
           d="M -120.00000,-80.000000 L -140.00000,-60.000000 L -160.00000,-60.000000 L -160.00000,-20.000000 L -140.00000,-20.000000 L -100.00000,-20.000000 L -100.00000,-80.000000 L -120.00000,-80.000000 z "
           id="path8061" />
        <path
           style="color:#000000;fill:#954d12;fill-opacity:1.0000000;fill-rule:evenodd;stroke:none;stroke-width:5.0000000;stroke-linecap:butt;stroke-linejoin:round;stroke-miterlimit:4.0000000;stroke-dashoffset:0.0000000;stroke-opacity:1.0000000;marker:none;marker-start:none;marker-mid:none;marker-end:none;visibility:visible;display:block"
           d="M -160.00000,-140.00000 L -160.00000,-57.500000 L -140.00000,-57.500000 C -139.33423,-57.492858 -138.69312,-57.751554 -138.21875,-58.218750 L -118.93750,-77.500000 L -81.062500,-77.500000 L -61.781250,-58.218750 C -61.306884,-57.751554 -60.665766,-57.492858 -60.000000,-57.500000 L -40.000000,-57.500000 L -40.000000,-140.00000 L -63.562500,-140.00000 L -81.062500,-122.50000 L -118.93750,-122.50000 L -136.43750,-140.00000 L -160.00000,-140.00000 z M -157.50000,-137.50000 L -141.06250,-137.50000 L -121.78125,-118.21875 C -121.30688,-117.75155 -120.66577,-117.49286 -120.00000,-117.50000 L -80.000000,-117.50000 C -79.334234,-117.49286 -78.693116,-117.75155 -78.218750,-118.21875 L -58.937500,-137.50000 L -42.500000,-137.50000 L -42.500000,-62.500000 L -58.937500,-62.500000 L -78.218750,-81.781250 C -78.693116,-82.248446 -79.334234,-82.507142 -80.000000,-82.500000 L -120.00000,-82.500000 C -120.66577,-82.507142 -121.30688,-82.248446 -121.78125,-81.781250 L -141.06250,-62.500000 L -157.50000,-62.500000 L -157.50000,-137.50000 z "
           id="path8062" />
        <path
           style="color:#000000;fill:#954d12;fill-opacity:1.0000000;fill-rule:evenodd;stroke:none;stroke-width:5.0000000;stroke-linecap:butt;stroke-linejoin:round;stroke-miterlimit:4.0000000;stroke-dashoffset:0.0000000;stroke-opacity:1.0000000;marker:none;marker-start:none;marker-mid:none;marker-end:none;visibility:visible;display:block"
           d="M -102.50000,-140.00000 L -102.50000,-120.00000 C -102.49986,-118.61935 -101.38065,-117.50014 -100.00000,-117.50000 L -80.000000,-117.50000 C -79.334230,-117.49286 -78.693120,-117.75155 -78.218750,-118.21875 L -58.937500,-137.50000 L -40.000000,-137.50000 L -40.000000,-140.00000 L -63.562500,-140.00000 L -81.062500,-122.50000 L -97.500000,-122.50000 L -97.500000,-140.00000 L -102.50000,-140.00000 z "
           id="path8063" />
        <path
           style="color:#000000;fill:#954d12;fill-opacity:1.0000000;fill-rule:evenodd;stroke:none;stroke-width:5.0000000;stroke-linecap:butt;stroke-linejoin:round;stroke-miterlimit:4.0000000;stroke-dashoffset:0.0000000;stroke-opacity:1.0000000;marker:none;marker-start:none;marker-mid:none;marker-end:none;visibility:visible;display:block"
           d="M -160.00000,-140.00000 L -160.00000,-137.50000 L -141.06250,-137.50000 L -121.78125,-118.21875 C -121.30688,-117.75155 -120.66577,-117.49286 -120.00000,-117.50000 L -100.00000,-117.50000 C -98.619345,-117.50014 -97.500138,-118.61935 -97.500000,-120.00000 L -97.500000,-140.00000 L -102.50000,-140.00000 L -102.50000,-122.50000 L -118.93750,-122.50000 L -136.43750,-140.00000 L -160.00000,-140.00000 z "
           id="path8064" />
        <path
           style="color:#000000;fill:#954d12;fill-opacity:1.0000000;fill-rule:evenodd;stroke:none;stroke-width:5.0000000;stroke-linecap:butt;stroke-linejoin:round;stroke-miterlimit:4.0000000;stroke-dashoffset:0.0000000;stroke-opacity:1.0000000;marker:none;marker-start:none;marker-mid:none;marker-end:none;visibility:visible;display:block"
           d="M -120.00000,-82.500000 C -120.66577,-82.507140 -121.30688,-82.248450 -121.78125,-81.781250 L -141.06250,-62.500000 L -160.00000,-62.500000 L -160.00000,-57.500000 L -140.00000,-57.500000 C -139.33423,-57.492860 -138.69312,-57.751550 -138.21875,-58.218750 L -118.93750,-77.500000 L -102.50000,-77.500000 L -102.50000,-20.000000 L -97.500000,-20.000000 L -97.500000,-80.000000 C -97.500138,-81.380650 -98.619345,-82.499860 -100.00000,-82.500000 L -120.00000,-82.500000 z M -160.00000,-22.500000 L -160.00000,-20.000000 L -136.43750,-20.000000 L -138.21875,-21.781250 C -138.69312,-22.248446 -139.33423,-22.507142 -140.00000,-22.500000 L -160.00000,-22.500000 z "
           id="path8065" />
        <path
           style="color:#000000;fill:#954d12;fill-opacity:1.0000000;fill-rule:evenodd;stroke:none;stroke-width:5.0000000;stroke-linecap:butt;stroke-linejoin:round;stroke-miterlimit:4.0000000;stroke-dashoffset:0.0000000;stroke-opacity:1.0000000;marker:none;marker-start:none;marker-mid:none;marker-end:none;visibility:visible;display:block"
           d="M -100.25000,-82.500000 C -101.53220,-82.371030 -102.50634,-81.288650 -102.50000,-80.000000 L -102.50000,-20.000000 L -97.500000,-20.000000 L -97.500000,-77.500000 L -81.062500,-77.500000 L -61.781250,-58.218750 C -61.306880,-57.751550 -60.665770,-57.492860 -60.000000,-57.500000 L -40.000000,-57.500000 L -40.000000,-62.500000 L -58.937500,-62.500000 L -78.218750,-81.781250 C -78.693120,-82.248450 -79.334230,-82.507140 -80.000000,-82.500000 L -100.00000,-82.500000 C -100.08328,-82.504170 -100.16672,-82.504170 -100.25000,-82.500000 z M -60.000000,-22.500000 C -60.665770,-22.507142 -61.306880,-22.248446 -61.781250,-21.781250 L -63.562500,-20.000000 L -40.000000,-20.000000 L -40.000000,-22.500000 L -60.000000,-22.500000 z "
           id="path8066" />
      </g>
    </pattern>
    <radialGradient
       inkscape:collect="always"
       xlink:href="#linearGradient7358"
       id="radialGradient8080"
       gradientUnits="userSpaceOnUse"
       gradientTransform="scale(1.224745,0.816497)"
       cx="-117.83363"
       cy="-160.77557"
       fx="-117.83363"
       fy="-160.77557"
       r="138.78822" />
    <radialGradient
       inkscape:collect="always"
       xlink:href="#linearGradient7358"
       id="radialGradient8081"
       gradientUnits="userSpaceOnUse"
       gradientTransform="scale(1.224745,0.816497)"
       cx="-117.83363"
       cy="-160.77557"
       fx="-117.83363"
       fy="-160.77557"
       r="138.78822" />
    <radialGradient
       inkscape:collect="always"
       xlink:href="#linearGradient7358"
       id="radialGradient8082"
       gradientUnits="userSpaceOnUse"
       gradientTransform="scale(1.224745,0.816497)"
       cx="-117.83363"
       cy="-160.77557"
       fx="-117.83363"
       fy="-160.77557"
       r="138.78822" />
    <radialGradient
       inkscape:collect="always"
       xlink:href="#linearGradient7358"
       id="radialGradient8083"
       gradientUnits="userSpaceOnUse"
       gradientTransform="scale(1.224745,0.816497)"
       cx="-117.83363"
       cy="-160.77557"
       fx="-117.83363"
       fy="-160.77557"
       r="138.78822" />
    <radialGradient
       inkscape:collect="always"
       xlink:href="#linearGradient7358"
       id="radialGradient8084"
       gradientUnits="userSpaceOnUse"
       gradientTransform="scale(1.224745,0.816497)"
       cx="-117.83363"
       cy="-160.77557"
       fx="-117.83363"
       fy="-160.77557"
       r="138.78822" />
    <pattern
       patternUnits="userSpaceOnUse"
       width="19.999921"
       height="19.999920"
       patternTransform="translate(-160.0000,-140.0000)"
       id="pattern8085">
      <g
         id="g8086"
         transform="matrix(0.000000,0.166666,-0.166666,0.000000,-3.333319,26.66656)">
        <path
           style="color:#000000;fill:url(#radialGradient8080);fill-opacity:1.0000000;fill-rule:evenodd;stroke:none;stroke-width:5.0000000;stroke-linecap:butt;stroke-linejoin:round;stroke-miterlimit:4.0000000;stroke-dashoffset:0.0000000;stroke-opacity:1.0000000;marker:none;marker-start:none;marker-mid:none;marker-end:none;visibility:visible;display:block"
           d="M -160.00000,-140.00000 L -160.00000,-60.000000 L -140.00000,-60.000000 L -120.00000,-80.000000 L -80.000000,-80.000000 L -60.000000,-60.000000 L -40.000000,-60.000000 L -40.000000,-140.00000 L -60.000000,-140.00000 L -80.000000,-120.00000 L -120.00000,-120.00000 L -140.00000,-140.00000 L -160.00000,-140.00000 z "
           id="path8087"
           sodipodi:nodetypes="ccccccccccccc" />
        <path
           style="color:#000000;fill:url(#radialGradient8081);fill-opacity:1.0000000;fill-rule:evenodd;stroke:none;stroke-width:5.0000000;stroke-linecap:butt;stroke-linejoin:round;stroke-miterlimit:4.0000000;stroke-dashoffset:0.0000000;stroke-opacity:1.0000000;marker:none;marker-start:none;marker-mid:none;marker-end:none;visibility:visible;display:block"
           d="M -140.00000,-140.00000 L -120.00000,-120.00000 L -100.00000,-120.00000 L -100.00000,-140.00000 L -140.00000,-140.00000 z "
           id="path8088" />
        <path
           style="color:#000000;fill:url(#radialGradient8082);fill-opacity:1.0000000;fill-rule:evenodd;stroke:none;stroke-width:5.0000000;stroke-linecap:butt;stroke-linejoin:round;stroke-miterlimit:4.0000000;stroke-dashoffset:0.0000000;stroke-opacity:1.0000000;marker:none;marker-start:none;marker-mid:none;marker-end:none;visibility:visible;display:block"
           d="M -100.00000,-140.00000 L -100.00000,-120.00000 L -80.000000,-120.00000 L -60.000000,-140.00000 L -100.00000,-140.00000 z "
           id="path8089" />
        <path
           style="color:#000000;fill:url(#radialGradient8083);fill-opacity:1.0000000;fill-rule:evenodd;stroke:none;stroke-width:5.0000000;stroke-linecap:butt;stroke-linejoin:round;stroke-miterlimit:4.0000000;stroke-dashoffset:0.0000000;stroke-opacity:1.0000000;marker:none;marker-start:none;marker-mid:none;marker-end:none;visibility:visible;display:block"
           d="M -100.00000,-80.000000 L -100.00000,-20.000000 L -60.000000,-20.000000 L -40.000000,-20.000000 L -40.000000,-60.000000 L -60.000000,-60.000000 L -80.000000,-80.000000 L -100.00000,-80.000000 z "
           id="path8090" />
        <path
           style="color:#000000;fill:url(#radialGradient8084);fill-opacity:1.0000000;fill-rule:evenodd;stroke:none;stroke-width:5.0000000;stroke-linecap:butt;stroke-linejoin:round;stroke-miterlimit:4.0000000;stroke-dashoffset:0.0000000;stroke-opacity:1.0000000;marker:none;marker-start:none;marker-mid:none;marker-end:none;visibility:visible;display:block"
           d="M -120.00000,-80.000000 L -140.00000,-60.000000 L -160.00000,-60.000000 L -160.00000,-20.000000 L -140.00000,-20.000000 L -100.00000,-20.000000 L -100.00000,-80.000000 L -120.00000,-80.000000 z "
           id="path8091" />
        <path
           style="color:#000000;fill:#954d12;fill-opacity:1.0000000;fill-rule:evenodd;stroke:none;stroke-width:5.0000000;stroke-linecap:butt;stroke-linejoin:round;stroke-miterlimit:4.0000000;stroke-dashoffset:0.0000000;stroke-opacity:1.0000000;marker:none;marker-start:none;marker-mid:none;marker-end:none;visibility:visible;display:block"
           d="M -160.00000,-140.00000 L -160.00000,-57.500000 L -140.00000,-57.500000 C -139.33423,-57.492858 -138.69312,-57.751554 -138.21875,-58.218750 L -118.93750,-77.500000 L -81.062500,-77.500000 L -61.781250,-58.218750 C -61.306884,-57.751554 -60.665766,-57.492858 -60.000000,-57.500000 L -40.000000,-57.500000 L -40.000000,-140.00000 L -63.562500,-140.00000 L -81.062500,-122.50000 L -118.93750,-122.50000 L -136.43750,-140.00000 L -160.00000,-140.00000 z M -157.50000,-137.50000 L -141.06250,-137.50000 L -121.78125,-118.21875 C -121.30688,-117.75155 -120.66577,-117.49286 -120.00000,-117.50000 L -80.000000,-117.50000 C -79.334234,-117.49286 -78.693116,-117.75155 -78.218750,-118.21875 L -58.937500,-137.50000 L -42.500000,-137.50000 L -42.500000,-62.500000 L -58.937500,-62.500000 L -78.218750,-81.781250 C -78.693116,-82.248446 -79.334234,-82.507142 -80.000000,-82.500000 L -120.00000,-82.500000 C -120.66577,-82.507142 -121.30688,-82.248446 -121.78125,-81.781250 L -141.06250,-62.500000 L -157.50000,-62.500000 L -157.50000,-137.50000 z "
           id="path8092" />
        <path
           style="color:#000000;fill:#954d12;fill-opacity:1.0000000;fill-rule:evenodd;stroke:none;stroke-width:5.0000000;stroke-linecap:butt;stroke-linejoin:round;stroke-miterlimit:4.0000000;stroke-dashoffset:0.0000000;stroke-opacity:1.0000000;marker:none;marker-start:none;marker-mid:none;marker-end:none;visibility:visible;display:block"
           d="M -102.50000,-140.00000 L -102.50000,-120.00000 C -102.49986,-118.61935 -101.38065,-117.50014 -100.00000,-117.50000 L -80.000000,-117.50000 C -79.334230,-117.49286 -78.693120,-117.75155 -78.218750,-118.21875 L -58.937500,-137.50000 L -40.000000,-137.50000 L -40.000000,-140.00000 L -63.562500,-140.00000 L -81.062500,-122.50000 L -97.500000,-122.50000 L -97.500000,-140.00000 L -102.50000,-140.00000 z "
           id="path8093" />
        <path
           style="color:#000000;fill:#954d12;fill-opacity:1.0000000;fill-rule:evenodd;stroke:none;stroke-width:5.0000000;stroke-linecap:butt;stroke-linejoin:round;stroke-miterlimit:4.0000000;stroke-dashoffset:0.0000000;stroke-opacity:1.0000000;marker:none;marker-start:none;marker-mid:none;marker-end:none;visibility:visible;display:block"
           d="M -160.00000,-140.00000 L -160.00000,-137.50000 L -141.06250,-137.50000 L -121.78125,-118.21875 C -121.30688,-117.75155 -120.66577,-117.49286 -120.00000,-117.50000 L -100.00000,-117.50000 C -98.619345,-117.50014 -97.500138,-118.61935 -97.500000,-120.00000 L -97.500000,-140.00000 L -102.50000,-140.00000 L -102.50000,-122.50000 L -118.93750,-122.50000 L -136.43750,-140.00000 L -160.00000,-140.00000 z "
           id="path8094" />
        <path
           style="color:#000000;fill:#954d12;fill-opacity:1.0000000;fill-rule:evenodd;stroke:none;stroke-width:5.0000000;stroke-linecap:butt;stroke-linejoin:round;stroke-miterlimit:4.0000000;stroke-dashoffset:0.0000000;stroke-opacity:1.0000000;marker:none;marker-start:none;marker-mid:none;marker-end:none;visibility:visible;display:block"
           d="M -120.00000,-82.500000 C -120.66577,-82.507140 -121.30688,-82.248450 -121.78125,-81.781250 L -141.06250,-62.500000 L -160.00000,-62.500000 L -160.00000,-57.500000 L -140.00000,-57.500000 C -139.33423,-57.492860 -138.69312,-57.751550 -138.21875,-58.218750 L -118.93750,-77.500000 L -102.50000,-77.500000 L -102.50000,-20.000000 L -97.500000,-20.000000 L -97.500000,-80.000000 C -97.500138,-81.380650 -98.619345,-82.499860 -100.00000,-82.500000 L -120.00000,-82.500000 z M -160.00000,-22.500000 L -160.00000,-20.000000 L -136.43750,-20.000000 L -138.21875,-21.781250 C -138.69312,-22.248446 -139.33423,-22.507142 -140.00000,-22.500000 L -160.00000,-22.500000 z "
           id="path8095" />
        <path
           style="color:#000000;fill:#954d12;fill-opacity:1.0000000;fill-rule:evenodd;stroke:none;stroke-width:5.0000000;stroke-linecap:butt;stroke-linejoin:round;stroke-miterlimit:4.0000000;stroke-dashoffset:0.0000000;stroke-opacity:1.0000000;marker:none;marker-start:none;marker-mid:none;marker-end:none;visibility:visible;display:block"
           d="M -100.25000,-82.500000 C -101.53220,-82.371030 -102.50634,-81.288650 -102.50000,-80.000000 L -102.50000,-20.000000 L -97.500000,-20.000000 L -97.500000,-77.500000 L -81.062500,-77.500000 L -61.781250,-58.218750 C -61.306880,-57.751550 -60.665770,-57.492860 -60.000000,-57.500000 L -40.000000,-57.500000 L -40.000000,-62.500000 L -58.937500,-62.500000 L -78.218750,-81.781250 C -78.693120,-82.248450 -79.334230,-82.507140 -80.000000,-82.500000 L -100.00000,-82.500000 C -100.08328,-82.504170 -100.16672,-82.504170 -100.25000,-82.500000 z M -60.000000,-22.500000 C -60.665770,-22.507142 -61.306880,-22.248446 -61.781250,-21.781250 L -63.562500,-20.000000 L -40.000000,-20.000000 L -40.000000,-22.500000 L -60.000000,-22.500000 z "
           id="path8096" />
      </g>
    </pattern>
    <linearGradient
       inkscape:collect="always"
       xlink:href="#linearGradient8719"
       id="linearGradient8722"
       gradientTransform="scale(3.543384,0.282216)"
       x1="49.355656"
       y1="717.53522"
       x2="106.54517"
       y2="835.64795"
       gradientUnits="userSpaceOnUse" />
  </defs>
  <sodipodi:namedview
     id="base"
     pagecolor="#ffffff"
     bordercolor="#666666"
     borderopacity="1.0"
     inkscape:pageopacity="0.0"
     inkscape:pageshadow="2"
     inkscape:zoom="1.7366335"
     inkscape:cx="246.95782"
     inkscape:cy="34.193896"
     inkscape:current-layer="svg1"
     gridspacingy="8.0000000pt"
     gridspacingx="8.0000000pt"
     gridoriginy="0.0000000pt"
     gridoriginx="0.0000000pt"
     gridempspacing="4"
     showgrid="true"
     inkscape:grid-points="true"
     inkscape:window-width="992"
     inkscape:window-height="746"
     inkscape:window-x="0"
     inkscape:window-y="0" />
  <metadata
     id="metadata4">
    <rdf:RDF
       id="RDF5">
      <cc:Work
         rdf:about=""
         id="Work6">
        <dc:format
           id="format7">image/svg+xml</dc:format>
        <dc:type
           id="type9"
           rdf:resource="http://purl.org/dc/dcmitype/StillImage" />
      </cc:Work>
    </rdf:RDF>
  </metadata>
  <g
     inkscape:label="Layer 1"
     inkscape:groupmode="layer"
     id="layer1" />
  <rect
     style="color:#000000;fill:#c47d48;fill-opacity:1.0000000;fill-rule:evenodd;stroke:none;stroke-width:3.7500000;stroke-linecap:butt;stroke-linejoin:round;stroke-miterlimit:4.0000000;stroke-dashoffset:0.0000000;stroke-opacity:1.0000000;marker:none;marker-start:none;marker-mid:none;marker-end:none;visibility:visible;display:block;"
     id="rect8068"
     width="640.00000"
     height="320.00000"
     x="0.0000000"
     y="0.0000000" />
  <rect
     style="color:#000000;fill:url(#pattern8085);fill-opacity:1.0000000;fill-rule:evenodd;stroke:none;stroke-width:3.7500000;stroke-linecap:butt;stroke-linejoin:round;stroke-miterlimit:4.0000000;stroke-dashoffset:0.0000000;stroke-opacity:1.0000000;marker:none;marker-start:none;marker-mid:none;marker-end:none;visibility:visible;display:block;"
     id="rect1737"
     width="640.00000"
     height="320.00000"
     x="0.0000000"
     y="0.0000000" />
  <path
     id="path3601"
     style="fill:#9d9d9d;fill-opacity:1.0000000;fill-rule:evenodd;stroke:#727272;stroke-width:5.0000000;stroke-linecap:butt;stroke-linejoin:round;stroke-opacity:1.0000000;stroke-miterlimit:4.0000000;stroke-dasharray:none;"
     d="M 40.000000,320.00000 L 80.000000,240.00000 L 280.00000,240.00000 L 240.00000,320.00000 M 360.00000,320.00000 L 400.00000,240.00000 L 600.00000,240.00000 L 560.00000,320.00000"
     sodipodi:nodetypes="cccccccc" />
  <path
     style="color:#000000;fill:#76b12e;fill-opacity:1.0000000;fill-rule:evenodd;stroke:url(#linearGradient8722);stroke-width:5.0000000;stroke-linecap:butt;stroke-linejoin:round;stroke-miterlimit:4.0000000;stroke-dashoffset:0.0000000;stroke-opacity:1.0000000;marker:none;marker-start:none;marker-mid:none;marker-end:none;visibility:visible;display:block;"
     d="M 40.000000,200.00000 L 40.000000,240.00000 L 300.00000,240.00000 C 304.96311,233.71746 320.00000,200.00000 320.00000,200.00000 L 40.000000,200.00000 z M 400.00000,200.00000 L 380.00000,240.00000 L 600.00000,240.00000 L 600.00000,200.00000 L 400.00000,200.00000 z "
     id="rect4851"
     sodipodi:nodetypes="cccccccccc" />
  <path
     sodipodi:type="arc"
     style="color:#000000;fill:#b1882e;fill-opacity:1.0000000;fill-rule:evenodd;stroke:none;stroke-width:5.0000000;stroke-linecap:butt;stroke-linejoin:round;stroke-miterlimit:4.0000000;stroke-dashoffset:0.0000000;stroke-opacity:1.0000000;marker:none;marker-start:none;marker-mid:none;marker-end:none;visibility:visible;display:block"
     id="path6720"
     sodipodi:cx="-140.00000"
     sodipodi:cy="-100.00000"
     sodipodi:rx="10.000000"
     sodipodi:ry="0.0000000"
     d="M -130.00000 -100.00000 A 10.000000 0.0000000 0 1 1  -150.00000,-100.00000 A 10.000000 0.0000000 0 1 1  -130.00000 -100.00000 z" />
  <rect
     style="stroke:none;fill:none;"
     width="19.999920"
     height="19.999920"
     x="-159.99996"
     y="-139.99994"
     id="rect8067" />
  <rect
     style="stroke:none;fill:url(#pattern8085)"
     width="19.999921"
     height="19.999920"
     x="-159.99998"
     y="-139.99996"
     id="rect8097" />
  <path
     style="fill:none;fill-opacity:0.75000000;fill-rule:evenodd;stroke:#d2d2d2;stroke-width:3.4666257;stroke-linecap:round;stroke-linejoin:miter;stroke-miterlimit:4.0000000;stroke-opacity:1.0000000;stroke-dasharray:1.7333129,1.7333129;stroke-dashoffset:0.0000000;"
     d="M 89.972930,320.71978 C 90.000000,320.00000 130.00000,240.00000 130.00000,240.00000 M 180.00000,240.00000 L 140.00000,320.00000 M 190.00000,320.00000 L 230.00000,240.00000"
     id="path8724"
     sodipodi:nodetypes="cccccc"
     transform="matrix(1.000000,0.000000,0.000000,0.878927,0.000000,39.05753)" />
  <path
     style="fill:none;fill-opacity:0.75000000;fill-rule:evenodd;stroke:#d2d2d2;stroke-width:3.4666257;stroke-linecap:round;stroke-linejoin:miter;stroke-miterlimit:4.0000000;stroke-dasharray:1.7333129 1.7333129 ;stroke-dashoffset:0.0000000;stroke-opacity:1.0000000"
     d="M 89.972930,320.71978 C 90.000000,320.00000 130.00000,240.00000 130.00000,240.00000 M 180.00000,240.00000 L 140.00000,320.00000 M 190.00000,320.00000 L 230.00000,240.00000"
     id="path9967"
     sodipodi:nodetypes="cccccc"
     transform="matrix(1.000000,0.000000,0.000000,0.878927,320.0000,39.05752)" />
</svg>
