<?xml version="1.0" encoding="UTF-8" standalone="no"?>
<!-- Created with Inkscape (http://www.inkscape.org/) -->
<svg
   xmlns:dc="http://purl.org/dc/elements/1.1/"
   xmlns:cc="http://web.resource.org/cc/"
   xmlns:rdf="http://www.w3.org/1999/02/22-rdf-syntax-ns#"
   xmlns:svg="http://www.w3.org/2000/svg"
   xmlns="http://www.w3.org/2000/svg"
   xmlns:xlink="http://www.w3.org/1999/xlink"
   xmlns:sodipodi="http://sodipodi.sourceforge.net/DTD/sodipodi-0.dtd"
   xmlns:inkscape="http://www.inkscape.org/namespaces/inkscape"
   sodipodi:docname="texture.svg"
   sodipodi:docbase="/home/fred/work/r-opencity/graphism/models/commercial/station-p"
   inkscape:version="0.45.1"
   sodipodi:version="0.32"
   id="svg1"
   height="512.00000pt"
   width="512.00000pt"
   inkscape:output_extension="org.inkscape.output.svg.inkscape"
   inkscape:export-filename="/home/fred/work/r-opencity/graphism/models/commercial/station-p/texture.png"
   inkscape:export-xdpi="72"
   inkscape:export-ydpi="72">
  <metadata
     id="metadata1294">
    <rdf:RDF>
      <cc:Work
         rdf:about="">
        <dc:format>image/svg+xml</dc:format>
        <dc:type
           rdf:resource="http://purl.org/dc/dcmitype/StillImage" />
      </cc:Work>
    </rdf:RDF>
  </metadata>
  <defs
     id="defs3">
    <linearGradient
       gradientUnits="userSpaceOnUse"
       y2="56.568542"
       x2="113.13708"
       y1="56.568542"
       x1="0.0000000"
       gradientTransform="scale(0.707107,1.414214)"
       id="linearGradient2156"
       xlink:href="#linearGradient2150"
       inkscape:collect="always" />
    <linearGradient
       gradientUnits="userSpaceOnUse"
       y2="52.076230"
       x2="107.76434"
       y1="52.076230"
       x1="14.172295"
       gradientTransform="scale(0.656078,1.524208)"
       id="linearGradient2148"
       xlink:href="#linearGradient2142"
       inkscape:collect="always" />
    <linearGradient
       id="linearGradient2142">
      <stop
         id="stop2144"
         offset="0.0000000"
         style="stop-color:#f7f7f7;stop-opacity:1.0000000;" />
      <stop
         id="stop2146"
         offset="1.0000000"
         style="stop-color:#c9c9c9;stop-opacity:1.0000000;" />
    </linearGradient>
    <linearGradient
       id="linearGradient2150">
      <stop
         id="stop2152"
         offset="0.0000000"
         style="stop-color:#e30000;stop-opacity:1.0000000;" />
      <stop
         id="stop2154"
         offset="1.0000000"
         style="stop-color:#ac0000;stop-opacity:1.0000000;" />
    </linearGradient>
    <linearGradient
       id="linearGradient2933">
      <stop
         style="stop-color:#0000ff;stop-opacity:1.0000000;"
         offset="0.0000000"
         id="stop2935" />
      <stop
         style="stop-color:#0000ff;stop-opacity:1.0000000;"
         offset="0.50000000"
         id="stop2955" />
      <stop
         style="stop-color:#ff0000;stop-opacity:1.0000000;"
         offset="0.50000000"
         id="stop2957" />
      <stop
         style="stop-color:#ff0000;stop-opacity:1.0000000;"
         offset="1.0000000"
         id="stop2937" />
    </linearGradient>
    <linearGradient
       inkscape:collect="always"
       xlink:href="#linearGradient2933"
       id="linearGradient1650"
       gradientUnits="userSpaceOnUse"
       gradientTransform="scale(2.602744,0.384210)"
       x1="6.3194103"
       y1="39.443348"
       x2="45.843502"
       y2="39.443348" />
    <linearGradient
       inkscape:collect="always"
       xlink:href="#linearGradient2933"
       id="linearGradient1652"
       gradientUnits="userSpaceOnUse"
       gradientTransform="scale(2.602744,0.384210)"
       x1="6.3194103"
       y1="39.443348"
       x2="45.843502"
       y2="39.443348" />
    <linearGradient
       inkscape:collect="always"
       xlink:href="#linearGradient2933"
       id="linearGradient1821"
       gradientUnits="userSpaceOnUse"
       gradientTransform="scale(2.602744,0.384210)"
       x1="6.3194103"
       y1="39.443348"
       x2="45.843502"
       y2="39.443348" />
    <linearGradient
       inkscape:collect="always"
       xlink:href="#linearGradient2933"
       id="linearGradient1823"
       gradientUnits="userSpaceOnUse"
       gradientTransform="scale(2.602744,0.384210)"
       x1="6.3194103"
       y1="39.443348"
       x2="45.843502"
       y2="39.443348" />
  </defs>
  <sodipodi:namedview
     inkscape:current-layer="layer1"
     gridtolerance="4.0000000pt"
     inkscape:grid-bbox="false"
     inkscape:window-y="256"
     inkscape:window-x="256"
     inkscape:window-height="746"
     inkscape:window-width="992"
     inkscape:grid-points="true"
     showgrid="true"
     gridempspacing="4"
     gridoriginx="0.0000000pt"
     gridoriginy="0.0000000pt"
     gridspacingx="16.000000pt"
     gridspacingy="16.000000pt"
     inkscape:cy="332.70503"
     inkscape:cx="379.35494"
     inkscape:zoom="0.61399265"
     inkscape:pageshadow="2"
     inkscape:pageopacity="0.0"
     borderopacity="1.0"
     bordercolor="#666666"
     pagecolor="#ffffff"
     id="base" />
  <image
     xlink:href="include/mur.jpeg"
     sodipodi:absref="include/mur.jpeg"
     width="647.00000"
     height="227.00000"
     id="image1391"
     transform="matrix(0.989181,0.000000,0.000000,1.057269,0.000000,400.0000)" />
  <g
     id="g1479">
    <rect
       transform="scale(2.000000,1.000000)"
       y="0.0000000"
       x="0.0000000"
       height="160.00000"
       width="80.000000"
       id="rect1304"
       style="color:#000000;fill:url(#linearGradient2156);fill-opacity:1.0000000;fill-rule:nonzero;stroke:none;stroke-width:1.4037248;stroke-linecap:butt;stroke-linejoin:round;stroke-miterlimit:4.0000000;stroke-dashoffset:0.0000000;stroke-opacity:1.0000000;marker:none;marker-start:none;marker-mid:none;marker-end:none;visibility:visible;display:inline;overflow:visible" />
    <rect
       transform="translate(40.00000,0.000000)"
       y="25.000000"
       x="20.000000"
       height="45.000000"
       width="40.000000"
       id="rect2108"
       style="color:#000000;fill:#dadada;fill-opacity:1.0000000;fill-rule:nonzero;stroke:none;stroke-width:1.4037248;stroke-linecap:butt;stroke-linejoin:round;stroke-miterlimit:4.0000000;stroke-dashoffset:0.0000000;stroke-opacity:1.0000000;marker:none;marker-start:none;marker-mid:none;marker-end:none;visibility:visible;display:inline;overflow:visible" />
    <rect
       transform="translate(40.00000,0.000000)"
       y="55.000000"
       x="20.000000"
       height="15.000000"
       width="40.000000"
       id="rect2101"
       style="color:#000000;fill:#cac6c6;fill-opacity:1.0000000;fill-rule:nonzero;stroke:#686868;stroke-width:1.4037248;stroke-linecap:butt;stroke-linejoin:round;stroke-miterlimit:4.0000000;stroke-dashoffset:0.0000000;stroke-opacity:1.0000000;marker:none;marker-start:none;marker-mid:none;marker-end:none;visibility:visible;display:inline;overflow:visible" />
    <path
       transform="translate(40.00000,0.000000)"
       id="rect1310"
       d="M 40.000000,8.7500000 C 27.500000,8.7500000 15.000000,12.500000 10.000000,20.000000 L 10.000000,150.00000 L 70.000000,150.00000 L 70.000000,20.000000 C 65.000000,12.500000 52.500000,8.7500000 40.000000,8.7500000 z M 26.250000,25.000000 L 53.750000,25.000000 C 57.212500,25.000000 60.000000,27.787500 60.000000,31.250000 L 60.000000,63.750000 C 60.000000,67.212500 57.212500,70.000000 53.750000,70.000000 L 26.250000,70.000000 C 22.787500,70.000000 20.000000,67.212500 20.000000,63.750000 L 20.000000,31.250000 C 20.000000,27.787500 22.787500,25.000000 26.250000,25.000000 z "
       style="color:#000000;fill:url(#linearGradient2148);fill-opacity:1.0000000;fill-rule:nonzero;stroke:#686868;stroke-width:1.4037248;stroke-linecap:butt;stroke-linejoin:round;stroke-miterlimit:4.0000000;stroke-dashoffset:0.0000000;stroke-opacity:1.0000000;marker:none;marker-start:none;marker-mid:none;marker-end:none;visibility:visible;display:inline;overflow:visible" />
    <rect
       y="150.00000"
       x="0.0000000"
       height="10.000000"
       width="160.00000"
       id="rect2071"
       style="color:#000000;fill:#181818;fill-opacity:1.0000000;fill-rule:nonzero;stroke:none;stroke-width:1.4037248;stroke-linecap:butt;stroke-linejoin:round;stroke-miterlimit:4.0000000;stroke-dashoffset:0.0000000;stroke-opacity:1.0000000;marker:none;marker-start:none;marker-mid:none;marker-end:none;visibility:visible;display:inline;overflow:visible" />
    <text
       transform="matrix(0.445075,0.000000,0.000000,0.445075,61.58880,38.13592)"
       sodipodi:linespacing="100%"
       id="text2103"
       y="61.871792"
       x="40.717098"
       style="font-size:20.000000;font-style:normal;font-variant:normal;font-weight:bold;font-stretch:normal;fill:#ff0000;fill-opacity:1.0000000;stroke:none;stroke-width:1.0000000pt;stroke-linecap:butt;stroke-linejoin:miter;stroke-opacity:1.0000000;font-family:Sans;text-anchor:middle;writing-mode:lr-tb"
       xml:space="preserve"><tspan
         y="61.871792"
         x="40.717098"
         id="tspan2105"
         sodipodi:role="line">SUPER</tspan></text>
    <rect
       transform="translate(40.00000,0.000000)"
       y="35.000000"
       x="30.000000"
       height="5.0000000"
       width="20.000000"
       id="rect2110"
       style="color:#000000;fill:#000000;fill-opacity:1.0000000;fill-rule:nonzero;stroke:none;stroke-width:1.4037248;stroke-linecap:butt;stroke-linejoin:round;stroke-miterlimit:4.0000000;stroke-dashoffset:0.0000000;stroke-opacity:1.0000000;marker:none;marker-start:none;marker-mid:none;marker-end:none;visibility:visible;display:inline;overflow:visible" />
    <rect
       transform="translate(40.00000,10.00000)"
       y="35.000000"
       x="30.000000"
       height="5.0000000"
       width="20.000000"
       id="rect2112"
       style="color:#000000;fill:#000000;fill-opacity:1.0000000;fill-rule:nonzero;stroke:none;stroke-width:1.4037248;stroke-linecap:butt;stroke-linejoin:round;stroke-miterlimit:4.0000000;stroke-dashoffset:0.0000000;stroke-opacity:1.0000000;marker:none;marker-start:none;marker-mid:none;marker-end:none;visibility:visible;display:inline;overflow:visible" />
    <path
       transform="translate(40.42238,0.000000)"
       sodipodi:nodetypes="cccc"
       id="path2128"
       d="M 89.577620,20.000000 L 89.577620,100.00000 C 89.577620,120.00000 109.57762,120.00000 109.57762,100.00000 L 109.57762,40.000000"
       style="fill:none;fill-opacity:0.75000000;fill-rule:evenodd;stroke:#000000;stroke-width:6.2500000;stroke-linecap:round;stroke-linejoin:miter;stroke-miterlimit:4.0000000;stroke-opacity:1.0000000" />
    <path
       sodipodi:nodetypes="cc"
       id="path2130"
       d="M 150.00000,40.000000 L 150.00000,20.000000"
       style="fill:none;fill-opacity:0.75000000;fill-rule:evenodd;stroke:#979797;stroke-width:12.500000;stroke-linecap:round;stroke-linejoin:miter;stroke-miterlimit:4.0000000;stroke-opacity:1.0000000" />
  </g>
  <g
     id="g1640"
     transform="translate(160.0624,-2.516296e-6)">
    <path
       id="rect3770"
       d="M 0.0000000,0.0000000 L 0.0000000,160.00000 L 20.000000,160.00000 L 20.000000,120.00000 L 80.000000,120.00000 L 80.000000,160.00000 L 100.00000,160.00000 L 100.00000,0.0000000 L 0.0000000,0.0000000 z "
       style="color:#000000;fill:#000000;fill-opacity:1.0000000;fill-rule:nonzero;stroke:none;stroke-width:12.500000;stroke-linecap:round;stroke-linejoin:round;stroke-miterlimit:4.0000000;stroke-dashoffset:0.0000000;stroke-opacity:1.0000000;marker:none;marker-start:none;marker-mid:none;marker-end:none;visibility:visible;display:inline;overflow:visible" />
    <rect
       y="85.000000"
       x="10.000000"
       height="25.000000"
       width="80.000000"
       id="rect4632"
       style="color:#000000;fill:#ffffff;fill-opacity:1.0000000;fill-rule:nonzero;stroke:none;stroke-width:12.500000;stroke-linecap:round;stroke-linejoin:round;stroke-miterlimit:4.0000000;stroke-dashoffset:0.0000000;stroke-opacity:1.0000000;marker:none;marker-start:none;marker-mid:none;marker-end:none;visibility:visible;display:inline;overflow:visible" />
    <text
       xml:space="preserve"
       style="font-size:20.000000;font-style:normal;font-variant:normal;font-weight:bold;font-stretch:normal;fill:url(#linearGradient1650);fill-opacity:1.0000000;stroke:url(#linearGradient1652);stroke-width:1.0000000pt;stroke-linecap:butt;stroke-linejoin:miter;stroke-opacity:1.0000000;font-family:Luxi Sans;text-anchor:middle;writing-mode:lr-tb"
       x="67.590385"
       y="22.376204"
       id="text2171"
       sodipodi:linespacing="100%"
       transform="matrix(0.575210,0.000000,0.000000,1.029151,10.95282,81.90371)"><tspan
         x="67.590385"
         y="22.376204"
         sodipodi:role="line"
         id="tspan3731"
         dx="0 0 0 0 1.221513"
         dy="0 0 0 0 0">STATION-P</tspan></text>
    <text
       sodipodi:linespacing="100%"
       transform="matrix(1.144824,0.000000,0.000000,1.144824,-46.63254,45.86719)"
       id="text5392"
       y="17.49015"
       x="50.082031"
       style="font-size:20.000000;font-style:normal;font-variant:normal;font-weight:bold;font-stretch:normal;fill:#ffffff;fill-opacity:1.0000000;stroke:none;stroke-width:1.0000000pt;stroke-linecap:butt;stroke-linejoin:miter;stroke-opacity:1.0000000;font-family:Luxi Sans;text-anchor:start;writing-mode:lr-tb"
       xml:space="preserve"><tspan
         y="17.49015"
         x="50.082031"
         id="tspan5394"
         sodipodi:role="line">E 1.123</tspan></text>
    <text
       sodipodi:linespacing="100%"
       transform="matrix(1.144824,0.000000,0.000000,1.144824,-47.96854,16.93680)"
       id="text6158"
       y="17.49015"
       x="50.082031"
       style="font-size:20.000000;font-style:normal;font-variant:normal;font-weight:bold;font-stretch:normal;fill:#ffffff;fill-opacity:1.0000000;stroke:none;stroke-width:1.0000000pt;stroke-linecap:butt;stroke-linejoin:miter;stroke-opacity:1.0000000;font-family:Luxi Sans;text-anchor:start;writing-mode:lr-tb"
       xml:space="preserve"><tspan
         y="17.49015"
         x="50.082031"
         id="tspan6160"
         sodipodi:role="line">G 1.056</tspan></text>
  </g>
  <image
     xlink:href="include/roof.jpeg"
     sodipodi:absref="include/roof.jpeg"
     width="512.00000"
     height="256.00000"
     id="image1715"
     transform="matrix(1.250000,0.000000,0.000000,0.937500,0.000000,160.0000)" />
  <text
     transform="matrix(1.288205,0.000000,0.000000,2.304823,477.7057,162.0695)"
     sodipodi:linespacing="100%"
     id="text1817"
     y="22.376204"
     x="67.590385"
     style="font-size:20.000000;font-style:normal;font-variant:normal;font-weight:bold;font-stretch:normal;fill:url(#linearGradient1821);fill-opacity:1.0000000;stroke:url(#linearGradient1823);stroke-width:1.0000000pt;stroke-linecap:butt;stroke-linejoin:miter;stroke-opacity:1.0000000;font-family:Luxi Sans;text-anchor:middle;writing-mode:lr-tb"
     xml:space="preserve"><tspan
       dy="0 0 0 0 0"
       dx="0 0 0 0 1.221513"
       id="tspan1819"
       sodipodi:role="line"
       y="22.376204"
       x="67.590385">STATION-P</tspan></text>
  <g
     id="layer1"
     inkscape:groupmode="layer"
     inkscape:label="Layer 1"
     transform="matrix(3.474519e-2,0.000000,0.000000,3.474519e-2,168.1453,160.9064)">
    <g
       id="g1887"
       transform="translate(-4688.390,3471.294)">
      <rect
         rx="39.957127"
         ry="40.106804"
         transform="matrix(1.001073,0.000000,0.000000,0.997337,2.022472,90.44026)"
         y="510.92041"
         x="-2.0203052"
         height="541.44177"
         width="539.42145"
         id="rect2157"
         style="color:#000000;fill:#525252;fill-opacity:1.0000000;fill-rule:nonzero;stroke:none;stroke-width:1.4037248;stroke-linecap:butt;stroke-linejoin:round;stroke-miterlimit:4.0000000;stroke-dashoffset:0.0000000;stroke-opacity:1.0000000;marker:none;marker-start:none;marker-mid:none;marker-end:none;visibility:visible;display:inline;overflow:visible" />
      <use
         height="1052.3622"
         width="744.09448"
         transform="translate(-1.472347e-16,-599.9998)"
         id="use4435"
         xlink:href="#rect2157"
         y="0.0000000"
         x="0.0000000" />
      <path
         transform="translate(-74.74918,151.5421)"
         sodipodi:nodetypes="cccccccccccccccccccccccccccccccccccccccccccccccccccccccccccccccccccccccccccccccccccccccccccccccccccccccccccccccccccccccccccccccccccccccccccccccccccccccccccccccccccccccccccccccccccccccccccccccccccccccccccccccccccccccccccccccccccccccccccccccccccccccccccccccccccccccccccccccccccccccccccccccccccccccccccccccccccccccccccccccccccccccccccccccccccccccccccccccccccccccccccccccccccccccccccccccccccccccccccccccc"
         id="path1368"
         d="M 142.87500,-130.56250 C 145.05125,-129.72739 143.84705,-127.76612 136.37500,-120.12500 C 131.62591,-115.26845 129.30384,-111.79415 126.21875,-104.84375 C 120.63961,-92.274502 119.59211,-85.897375 121.68750,-77.406250 C 124.18060,-67.303514 129.03963,-60.289695 141.59375,-48.687500 C 147.69961,-43.044620 156.32657,-35.105381 160.75000,-31.031250 C 170.96463,-21.623235 175.83394,-15.909231 178.18750,-9.8750000 C 178.97202,-7.8635895 179.48659,-5.7961175 179.81250,-3.5625000 C 181.46656,7.7735600 173.15158,25.108859 162.53125,32.468750 C 158.99494,34.919410 155.34374,35.894339 155.34375,34.406250 C 155.34375,34.042090 157.35429,30.329589 159.78125,26.156250 C 167.35133,13.138940 168.19483,5.8275700 163.28125,-3.5625000 C 159.53371,-10.724230 155.65547,-14.826241 138.34375,-29.875000 C 112.92277,-51.972980 105.34375,-64.156630 105.34375,-82.937500 C 105.34375,-96.517675 109.87927,-107.24330 119.53125,-116.56250 C 125.75159,-122.56838 140.55840,-131.45146 142.87500,-130.56250 z M 129.93750,-76.937500 C 130.26186,-76.937500 133.07436,-74.656958 136.18750,-71.875000 C 143.70129,-65.160548 149.89328,-61.129238 161.34375,-55.500000 C 166.56875,-52.931306 171.74374,-50.309780 172.84375,-49.687500 C 173.94375,-49.065210 176.19374,-47.884179 177.84375,-47.062500 C 186.96904,-42.518210 196.34734,-32.982139 201.25000,-23.218750 C 204.07715,-17.588630 206.31567,-7.6994100 206.31250,-0.93750000 C 206.30682,11.151980 200.62497,27.748260 193.15625,37.437500 C 186.91994,45.527920 171.91358,62.683990 163.96875,70.812500 C 159.53378,75.350000 155.16883,79.062500 154.28125,79.062500 C 152.33475,79.062500 150.34374,73.128368 150.34375,67.281250 C 150.34375,63.480760 151.10348,62.356822 161.65625,50.875000 C 173.51745,37.969550 180.93157,28.807630 185.21875,20.812500 C 186.29055,18.813717 187.16914,16.892248 187.87500,15.000000 C 189.99257,9.3232559 190.55857,3.9417800 190.15625,-2.2187500 C 189.20427,-16.796000 183.13310,-23.959280 155.00000,-43.687500 C 150.88233,-46.575000 147.11446,-48.937500 146.62500,-48.937500 C 144.64749,-48.937500 135.81095,-59.067610 132.68750,-64.937500 C 129.74976,-70.458391 128.26445,-76.937500 129.93750,-76.937500 z M 182.18750,93.437500 C 182.64367,93.416835 183.12945,93.476257 183.62500,93.625000 C 191.65304,96.034660 192.43908,97.901461 190.03125,108.87500 C 188.17098,117.35305 187.00203,125.76588 187.78125,125.00000 C 188.10933,124.67754 189.68023,119.73431 191.28125,114.03125 C 193.61233,105.72763 194.76570,103.16263 197.15625,101.12500 C 198.79813,99.725520 200.65642,97.550000 201.28125,96.312500 C 202.63814,93.625120 204.85628,93.386220 205.90625,95.812500 C 206.32277,96.775000 206.86607,104.94709 207.12500,113.96875 C 208.00005,144.45754 203.80341,159.97232 194.34375,161.25000 C 192.13733,161.54801 191.78502,162.14964 191.34375,166.56250 C 191.09412,169.05884 190.98889,170.33408 190.43750,171.00000 C 190.16181,171.33296 189.77545,171.50138 189.21875,171.62500 C 188.66205,171.74862 187.91224,171.82647 186.93750,171.90625 C 184.78993,172.08202 182.00200,171.94706 180.71875,171.62500 C 178.06231,170.95827 175.03325,165.60450 173.87500,159.56250 L 173.09375,155.56250 L 171.71875,158.56250 C 170.96848,160.21250 170.43411,163.81249 170.50000,166.56250 C 170.68739,174.38287 170.48805,175.08677 168.09375,175.96875 C 163.10170,177.80766 160.71900,177.91899 157.84375,176.50000 C 148.21869,171.74988 141.33287,149.23577 142.68750,127.06250 C 144.03263,105.04482 152.85062,92.128968 162.12500,98.625000 C 164.94392,100.59945 164.99067,104.21311 162.34375,114.56250 C 160.34125,122.39220 159.72562,136.64319 161.21875,140.43750 C 161.83348,141.99964 162.13373,142.03814 163.12500,140.84375 C 164.50115,139.18559 168.71376,126.42257 173.43750,109.56250 C 176.66455,98.044420 178.99433,93.582152 182.18750,93.437500 z M 136.37500,102.12500 C 137.26046,102.48478 138.10694,103.61823 138.90625,105.53125 C 140.60879,109.60600 140.76391,114.23477 139.34375,119.09375 C 136.78490,127.84873 136.30972,136.12313 137.84375,145.65625 C 138.67464,150.81977 139.34374,157.24893 139.34375,159.93750 C 139.34375,166.26815 137.64658,167.86173 133.96875,164.96875 C 125.21763,158.08511 122.52113,139.10784 127.50000,119.56250 C 130.71968,106.92315 133.71861,101.04566 136.37500,102.12500 z M 342.40625,481.87500 C 343.21250,482.10385 344.16110,482.69757 345.46875,483.65625 C 358.59712,493.28104 373.24852,521.51465 373.68750,538.06250 C 373.85322,544.30947 373.75317,544.59339 371.34375,544.87500 C 368.44495,545.21376 366.34374,543.48666 366.34375,540.78125 C 366.34375,537.11522 362.32858,523.18392 359.34375,516.53125 C 356.16517,509.44679 348.71092,498.47701 342.21875,491.34375 C 338.00912,486.71843 337.34168,483.69602 340.21875,482.15625 C 340.93609,481.77234 341.60000,481.64615 342.40625,481.87500 z M 276.06250,537.59375 C 281.14117,536.64098 288.19909,540.37857 291.09375,545.56250 C 294.77583,552.15663 293.75357,558.17577 287.71875,565.40625 C 285.45760,568.11536 285.34374,568.88953 285.34375,584.09375 C 285.34375,592.81909 285.00624,600.16138 284.59375,600.40625 C 283.03976,601.32876 271.80868,602.08594 270.71875,601.34375 C 269.98795,600.84613 269.35970,594.39052 268.93750,583.25000 C 268.32192,567.00683 268.11920,565.65789 265.78125,562.12500 C 262.19398,556.70426 261.73467,552.29504 264.18750,546.75000 C 266.40487,541.73727 270.37267,538.66116 276.06250,537.59375 z M 84.031250,545.28125 C 86.304921,545.06099 87.492492,545.48967 88.156250,546.78125 C 88.667407,547.77587 89.376671,554.67990 89.718750,562.15625 C 91.545167,602.07334 105.70692,638.68528 132.00000,671.37500 C 137.15327,677.78197 138.10474,679.55860 137.43750,681.37500 C 136.99124,682.58985 135.73271,683.70841 134.62500,683.87500 C 128.92596,684.73209 104.57156,648.54588 95.375000,625.56250 C 93.614384,621.16250 91.364561,615.53752 90.375000,613.06250 C 85.075786,599.80854 80.143084,571.16333 80.562500,556.06250 L 80.843750,545.56250 L 84.031250,545.28125 z M 128.90625,546.06250 C 130.79755,546.06250 132.38365,546.17502 132.40625,546.31250 C 132.42885,546.45000 132.86084,552.63752 133.37500,560.06250 C 135.49813,590.72255 144.73744,615.73129 162.40625,638.62500 C 169.11325,647.31536 169.55550,648.35981 167.75000,650.93750 C 166.91997,652.12254 165.61386,653.06252 164.84375,653.06250 C 163.15508,653.06250 154.28281,642.20787 148.09375,632.56250 C 135.03322,612.20833 128.09972,591.86081 125.31250,565.71875 C 124.67638,559.75241 124.44942,552.88988 124.81250,550.46875 C 125.44554,546.24736 125.60869,546.06252 128.90625,546.06250 z M 179.84375,546.56250 L 183.34375,546.56250 L 186.84375,546.56250 L 187.09375,552.06250 C 187.63212,564.77108 190.92612,579.59703 195.31250,589.06250 C 197.98916,594.83856 203.35721,603.83944 204.90625,605.12500 C 206.66306,606.58303 206.81254,611.21868 205.15625,612.87500 C 203.03404,614.99721 201.51185,614.17227 197.53125,608.81250 C 185.64331,592.80578 178.68105,571.43807 179.53125,553.56250 L 179.84375,546.56250 z M 282.78125,607.09375 C 288.17377,607.23825 289.31458,608.31494 289.90625,611.46875 C 290.60133,615.17387 289.44752,618.12095 285.78125,622.06250 C 282.62145,625.45956 276.32976,639.23568 271.84375,652.56250 C 268.67620,661.97253 266.54291,666.75495 266.28125,665.03125 C 266.24368,664.78375 266.01505,652.41252 265.75000,637.56250 C 265.43950,620.16556 265.62812,610.02902 266.28125,609.06250 C 267.01403,607.97811 269.65806,607.47424 275.84375,607.21875 C 278.72691,607.09966 280.98374,607.04558 282.78125,607.09375 z M 341.21875,615.09375 C 363.40483,615.12655 376.79830,618.62420 386.43750,626.87500 C 393.22622,632.68589 393.11065,632.84389 368.84375,657.09375 L 347.34375,678.56250 L 321.43750,679.06250 C 307.18554,679.33750 295.14453,679.94525 294.68750,680.40625 C 294.23047,680.86724 293.84374,692.69128 293.84375,706.65625 L 293.84375,732.03125 L 284.87500,741.06250 C 279.93647,746.02402 275.36016,750.06252 274.71875,750.06250 C 273.25505,750.06250 272.29425,689.99687 273.59375,679.84375 C 274.70361,671.17226 277.90201,660.58965 284.31250,644.31250 C 288.76184,633.01502 290.05725,630.67585 294.18750,626.81250 C 302.81245,618.74487 317.62965,615.05888 341.21875,615.09375 z M 327.81250,641.06250 C 326.05568,641.06250 325.05338,642.80964 325.75000,644.62500 C 326.41764,646.36483 327.57043,646.49205 329.09375,644.96875 C 330.46825,643.59425 329.63705,641.06252 327.81250,641.06250 z M 352.81250,641.06250 C 351.94212,641.06250 351.34374,642.05247 351.34375,643.56250 C 351.34375,646.35897 353.77693,647.03579 354.75000,644.50000 C 355.50899,642.52209 354.70568,641.06252 352.81250,641.06250 z M 340.28125,641.28125 C 339.08629,641.31859 338.06241,642.87103 338.68750,644.50000 C 339.01827,645.36197 339.75922,646.06252 340.34375,646.06250 C 341.96358,646.06250 342.78003,643.09255 341.50000,641.81250 C 341.12137,641.43387 340.67957,641.26880 340.28125,641.28125 z M 327.46875,653.25000 C 326.99007,653.30142 326.53715,653.49409 326.15625,653.87500 C 325.57019,654.46106 325.37238,655.69113 325.71875,656.59375 C 326.51932,658.67998 329.71295,658.11436 330.15625,655.81250 C 330.45474,654.26256 328.90478,653.09574 327.46875,653.25000 z M 353.21875,653.28125 C 351.48561,652.94748 349.94452,655.61209 350.93750,657.21875 C 351.26557,657.74957 352.27628,658.05050 353.18750,657.87500 C 355.32400,657.46355 355.34940,653.69160 353.21875,653.28125 z M 340.00000,653.50000 C 338.61871,654.01577 337.15131,655.89891 337.81250,656.96875 C 338.99030,658.87447 342.34374,658.24903 342.34375,656.12500 C 342.34375,655.05746 341.85279,653.90377 341.25000,653.53125 C 340.89339,653.31085 340.46043,653.32808 340.00000,653.50000 z M 319.90625,684.06250 C 334.28921,684.06250 339.34374,684.40187 339.34375,685.28125 C 339.34375,685.93582 330.94973,694.93585 320.65625,705.28125 C 310.36277,715.62668 301.42735,724.06252 300.81250,724.06250 C 300.19765,724.06250 299.39792,723.77290 299.03125,723.40625 C 297.92847,722.30348 298.27171,688.11991 299.40625,686.00000 C 300.37528,684.18936 301.68541,684.06252 319.90625,684.06250 z M 407.18750,686.03125 C 407.28966,686.17547 407.41454,686.25093 407.50000,686.50000 C 408.19257,688.94192 409.07509,769.09322 409.46875,857.62500 L 409.53125,880.15625 C 409.67572,923.41721 409.56959,930.01991 407.68750,934.78125 L 407.53125,935.15625 C 406.32857,938.22495 403.74786,942.58266 401.81250,944.84375 C 398.27913,948.97165 388.79608,954.25445 382.84375,955.40625 C 377.73160,956.39545 313.22142,956.92404 306.53125,956.03125 C 303.05149,955.56685 298.67184,954.65526 296.78125,954.03125 C 292.02474,952.46145 283.85403,945.83112 280.84375,941.06250 C 278.27174,936.98821 276.92546,934.16013 276.12500,925.06250 C 275.72657,920.53033 275.45725,914.40302 275.25000,905.81250 C 275.24943,905.78897 275.25057,905.74232 275.25000,905.71875 C 275.23946,905.27963 275.22902,904.42099 275.21875,903.96875 C 275.02775,895.55274 274.88995,885.27338 274.71875,871.46875 L 274.15625,826.75000 L 274.03125,817.21875 L 279.43750,811.56250 C 281.25966,809.65620 285.26599,805.72364 287.78125,803.15625 L 311.43750,779.78125 C 332.01595,759.46329 349.91419,742.45498 351.18750,741.96875 C 351.78057,741.74228 354.12654,741.53430 357.12500,741.37500 L 365.00000,741.15625 C 366.63072,741.12729 367.96694,741.06412 369.68750,741.06250 C 378.58919,741.05408 386.40731,740.69785 387.06250,740.28125 C 387.09937,740.25781 387.12084,740.07543 387.15625,740.03125 C 387.18443,740.02038 387.77080,740.01052 387.78125,740.00000 C 387.85484,739.92595 387.86620,736.82950 387.93750,736.03125 C 388.18040,733.41064 388.34757,728.97725 388.46875,723.56250 C 388.47366,723.34330 388.49527,723.25533 388.50000,723.03125 C 388.50551,722.41316 388.55334,721.92711 388.56250,721.31250 L 388.56250,720.43750 C 388.70536,712.44969 389.10695,704.96238 389.56250,703.31250 C 389.70772,702.78656 390.45157,701.79078 390.90625,701.03125 L 397.84375,694.09375 C 402.54954,689.36606 406.49592,685.99159 407.18750,686.03125 z M 382.87500,710.25000 C 383.16549,710.54050 383.64464,715.71394 383.96875,721.75000 C 384.46244,730.94421 384.31903,732.99348 383.00000,734.31250 C 382.38707,734.92543 381.31986,735.30482 379.50000,735.56250 C 377.75913,735.79700 375.30473,735.89420 371.62500,735.90625 C 367.36664,735.92020 365.20843,735.78307 363.34375,735.59375 C 362.10479,735.46154 360.86821,735.33858 360.53125,735.15625 C 360.48434,735.13652 360.41797,735.11451 360.37500,735.09375 C 359.79818,734.70703 359.63355,734.08929 359.75000,733.31250 C 360.96386,730.29451 381.92169,709.29667 382.87500,710.25000 z M 383.68750,802.06250 C 374.67582,802.06250 373.08597,802.32029 371.34375,804.06250 C 369.07201,806.33424 368.74980,809.89302 370.59375,812.34375 C 371.52938,813.58727 373.85570,814.10797 379.84375,814.37500 C 394.22584,815.01628 397.34374,814.01728 397.34375,808.78125 C 397.34375,803.08478 395.28634,802.06252 383.68750,802.06250 z M 343.03125,802.12500 C 338.26164,802.08552 333.26817,802.26351 331.68750,802.68750 C 328.73340,803.47990 326.98688,807.93933 328.28125,811.34375 C 329.15752,813.64853 329.92217,814.02050 334.56250,814.34375 C 349.85917,815.40926 353.30782,814.87492 355.28125,811.18750 C 356.44971,809.00422 355.15530,804.22558 353.03125,802.87500 C 352.33480,802.43216 347.80086,802.16448 343.03125,802.12500 z M 342.62500,828.06250 C 330.55414,828.06250 328.34374,829.06870 328.34375,834.59375 C 328.34375,838.15903 329.59347,839.62248 333.34375,840.40625 C 334.71875,840.69360 339.65846,840.77481 344.31250,840.59375 C 351.60890,840.30990 353.02067,839.96657 354.56250,838.06250 C 356.76056,835.34800 356.84323,833.21180 354.81250,830.31250 C 353.37010,828.25318 352.46016,828.06252 342.62500,828.06250 z M 384.28125,828.06250 C 381.23491,828.06250 378.84628,828.13286 376.96875,828.28125 C 375.09122,828.42964 373.73020,828.68328 372.75000,829.09375 C 370.78960,829.91469 370.34375,831.35485 370.34375,833.90625 C 370.34375,835.97690 370.90251,838.21497 371.56250,838.87500 C 373.50066,840.81316 394.78517,840.49609 396.78125,838.50000 C 398.94617,836.33508 398.74061,832.45939 396.34375,830.06250 C 394.60868,828.32743 393.01365,828.06252 384.28125,828.06250 z M 299.68750,828.78125 C 293.39786,828.89209 288.62751,829.45393 287.78125,830.15625 C 285.51565,832.03652 286.00920,837.72098 288.59375,839.53125 C 291.79425,841.77297 310.53622,841.74504 312.78125,839.50000 C 314.99862,837.28263 314.75429,832.73808 312.28125,830.50000 C 310.48042,828.87027 308.74095,828.62168 299.68750,828.78125 z M 348.68750,856.25000 C 346.69116,856.13079 344.24253,856.16540 341.18750,856.31250 C 332.87280,856.71290 330.78914,857.11839 329.68750,858.62500 C 327.90997,861.05590 327.99429,864.11405 329.90625,866.84375 C 331.34225,868.89395 332.25923,869.06252 341.68750,869.06250 C 353.79704,869.06250 356.34374,867.92616 356.34375,862.53125 C 356.34375,858.32150 354.67653,856.60764 348.68750,856.25000 z M 392.96875,856.43750 C 391.25715,856.25415 388.52631,856.38010 383.56250,856.68750 C 377.66630,857.05260 372.28124,857.80016 371.59375,858.34375 C 369.99995,859.60375 369.98358,866.29607 371.56250,867.87500 C 371.95509,868.26760 373.16898,868.57940 375.18750,868.78125 C 377.20602,868.98310 380.02917,869.06251 383.56250,869.06250 C 393.02917,869.06250 394.59065,868.81562 396.34375,867.06250 C 398.91086,864.49540 398.89651,860.64652 396.31250,858.06250 C 395.37272,857.12270 394.68035,856.62085 392.96875,856.43750 z M 300.37500,856.96875 C 295.26998,856.96047 290.18485,857.51056 288.59375,858.62500 C 285.53153,860.76990 285.53153,866.38637 288.59375,868.53125 C 291.39238,870.49145 307.60242,870.66423 311.34375,868.78125 C 314.90062,866.99105 315.41139,860.91434 312.18750,858.65625 C 310.58901,857.53665 305.48002,856.97703 300.37500,856.96875 z M 385.06250,884.06250 C 372.93897,884.06250 370.34374,885.20162 370.34375,890.56250 C 370.34375,891.74550 370.51346,892.72713 370.87500,893.53125 C 371.23654,894.33537 371.81739,894.98746 372.59375,895.53125 C 375.23935,897.38425 389.31911,897.68619 394.15625,896.00000 C 398.04655,894.64380 399.34961,890.21256 396.93750,886.53125 C 395.39914,884.18335 394.85191,884.06252 385.06250,884.06250 z M 340.28125,884.62500 C 338.27079,884.65438 336.42189,884.76883 335.00000,885.00000 C 332.33106,885.43390 329.76640,886.42143 329.28125,887.18750 C 327.87926,889.40160 328.22465,893.78707 329.93750,895.50000 C 332.18253,897.74500 350.92449,897.77297 354.12500,895.53125 C 356.62221,893.78215 357.22749,888.02714 355.09375,886.34375 C 353.74236,885.27755 346.31262,884.53685 340.28125,884.62500 z M 300.87500,884.78125 C 290.77378,884.74515 289.90387,884.91163 288.18750,887.03125 C 285.70579,890.09605 285.89052,893.63787 288.59375,895.53125 C 290.26977,896.70515 293.44656,897.06252 301.53125,897.06250 C 311.47619,897.06250 312.36844,896.90545 313.81250,894.84375 C 315.84866,891.93675 315.75215,889.80519 313.53125,887.06250 C 311.86132,885.00030 310.87288,884.81695 300.87500,884.78125 z M 342.40625,910.06250 C 333.69413,910.06250 332.07828,910.32802 330.34375,912.06250 C 327.91416,914.49210 327.75514,918.76940 330.00000,921.25000 C 331.40604,922.80360 333.26117,923.06252 342.31250,923.06250 C 353.87522,923.06250 355.81898,922.38733 356.90625,917.87500 C 357.41070,915.78150 356.97765,914.60273 355.00000,912.62500 C 352.60474,910.22980 351.84093,910.06252 342.40625,910.06250 z M 294.06250,910.18750 C 288.01195,910.49880 287.25293,912.08401 287.56250,916.84375 C 287.82075,920.81445 288.20739,921.59106 290.34375,922.21875 C 291.71875,922.62285 297.27991,922.88818 302.68750,922.78125 C 311.13231,922.61425 312.71956,922.29222 313.93750,920.62500 C 315.74580,918.14960 315.74566,915.00687 313.93750,912.53125 C 312.72168,910.86665 311.02124,910.54002 302.03125,910.25000 C 298.68844,910.14217 296.07935,910.08373 294.06250,910.18750 z M 385.43750,910.28125 C 380.29329,910.13290 375.00070,910.43945 373.34375,911.31250 C 370.22440,912.95600 369.36247,918.92501 371.87500,921.43750 C 374.26053,923.82310 393.88836,923.79804 396.53125,921.40625 C 398.80818,919.34565 398.93986,913.78614 396.75000,911.96875 C 395.60056,911.01480 390.58171,910.42960 385.43750,910.28125 z M 341.96875,941.06250 C 341.10602,941.19646 340.26375,941.58000 339.56250,942.28125 C 338.02000,943.82375 338.02001,947.33247 339.56250,948.87500 C 342.36750,951.68000 347.34374,949.55422 347.34375,945.56250 C 347.34375,942.56872 344.55695,940.66062 341.96875,941.06250 z M 232.21875,176.03125 C 208.48853,176.08636 204.20637,175.90526 203.50000,173.21875 C 203.41596,172.89911 203.38370,172.51928 203.37500,172.12500 C 203.37325,172.04588 203.34375,171.98856 203.34375,171.90625 C 203.34375,171.89864 203.34370,171.88267 203.34375,171.87500 C 203.34373,171.86333 203.34375,171.85549 203.34375,171.84375 C 203.34375,171.19340 203.59257,170.30855 203.96875,169.28125 C 203.97160,169.27339 203.96588,169.25787 203.96875,169.25000 C 204.14190,168.78034 204.45157,168.20696 204.68750,167.68750 C 204.97514,167.04997 205.19674,166.46250 205.56250,165.78125 C 206.89285,163.31128 208.66681,160.65040 210.50000,158.56250 C 216.20215,152.06811 216.10975,152.06249 249.25000,152.06250 C 261.82224,152.06250 551.55122,153.52059 552.93750,151.62500 C 553.48438,150.87719 553.84502,149.37527 554.06250,146.34375 C 554.06341,146.33077 554.06159,146.29428 554.06250,146.28125 C 554.27675,143.23495 554.34178,138.56479 554.34375,131.62500 C 554.34368,131.53354 554.34387,131.52882 554.34375,131.43750 C 554.34375,124.43658 554.13614,118.88745 553.84375,115.06250 C 553.78626,114.32837 553.78147,111.51537 553.71875,111.28125 C 553.33529,109.84975 552.88906,108.86885 550.93750,108.12500 C 550.51703,107.84025 550.11575,107.47515 549.68750,107.31250 C 549.41477,107.20892 546.12990,107.10465 544.71875,107.00000 C 543.55653,106.89081 541.58621,106.80775 540.06250,106.71875 C 536.35108,106.55574 230.30772,104.44617 226.78125,104.03125 C 222.93081,103.41407 220.56307,102.66336 219.18750,101.34375 C 219.11801,101.27709 219.00187,101.22598 218.93750,101.15625 C 218.62330,100.81586 218.54391,100.29713 218.34375,99.875000 C 218.11358,99.371489 217.78623,98.947917 217.68750,98.312500 C 217.50965,97.167837 217.51654,95.789875 217.68750,94.125000 C 217.99480,91.132360 219.11233,87.532360 220.15625,86.125000 C 224.12918,80.768900 331.02610,80.631745 340.28125,80.875000 C 340.32737,80.876212 521.02246,81.781565 531.50000,81.968750 C 531.61555,81.970814 549.54011,82.410080 554.53125,82.812500 C 554.55197,82.814151 554.60435,82.810843 554.62500,82.812500 C 557.07004,83.012076 559.02568,83.244767 560.59375,83.531250 C 560.61002,83.534208 560.64006,83.528282 560.65625,83.531250 C 562.21272,83.819238 563.39878,84.163725 564.37500,84.562500 C 564.39229,84.569547 564.42034,84.586664 564.43750,84.593750 C 565.39420,84.991887 566.16434,85.469525 566.84375,86.000000 C 566.85041,86.005234 566.86836,85.994752 566.87500,86.000000 C 567.20529,86.258932 567.49732,86.611851 567.81250,86.906250 C 568.15931,87.231875 568.50237,87.502369 568.87500,87.875000 C 569.57294,88.572935 569.95566,89.125802 570.50000,89.718750 C 571.71809,91.046874 572.83426,92.355582 573.43750,94.281250 C 573.72936,95.212913 573.93994,96.284548 574.12500,97.625000 C 574.12665,97.636878 574.12336,97.644333 574.12500,97.656250 C 574.86226,103.02147 574.84376,112.35793 574.84375,131.25000 C 574.84375,170.89025 575.19338,169.32278 565.81250,174.06250 L 560.84375,176.56250 L 232.21875,176.03125 z M 375.12500,450.03125 C 372.46868,449.58156 392.03835,449.76088 391.71875,450.59375 C 391.39915,451.42662 391.75064,452.93181 392.50000,453.93750 C 393.24937,454.94321 396.79471,459.63946 400.37500,464.37500 C 403.95530,469.11054 408.14739,475.59288 409.71875,478.78125 C 411.29011,481.96963 414.08975,487.58032 415.93750,491.25000 C 421.94517,503.18141 425.92911,516.91088 428.40625,534.37500 C 429.52327,542.25008 428.57049,545.06252 424.84375,545.06250 C 421.73548,545.06250 420.78032,543.09487 419.93750,535.06250 C 417.27886,509.72474 405.86764,484.05634 387.15625,461.28125 C 379.99246,452.56163 377.78132,450.48094 375.12500,450.03125 z M 434.78125,450.56250 L 449.59375,449.84375 C 447.05360,450.19423 446.34374,450.78934 446.34375,452.50000 C 446.34375,453.70379 446.75483,455.10250 447.25000,455.62500 C 449.14331,457.62282 456.46825,472.36171 459.84375,481.00000 C 466.58841,498.26043 471.17263,517.25168 472.96875,535.31250 C 473.71672,542.83368 472.73982,545.06252 468.71875,545.06250 C 467.95216,545.06250 467.33321,544.93285 466.81250,544.56250 C 465.25037,543.45146 464.60955,540.23766 463.96875,532.31250 C 462.00741,508.05530 453.32300,482.31988 438.56250,457.06250 L 434.78125,450.56250 z "
         style="fill:#ffffff;fill-opacity:1.0000000" />
      <path
         transform="translate(-74.74918,151.5421)"
         sodipodi:nodetypes="cccccccccccccccccccccccccccccccccccccccccccccccccccccccc"
         id="path1392"
         d="M 530.53125,-88.437500 C 530.02006,-88.547402 529.55300,-88.486571 529.09375,-88.343750 C 529.08051,-88.339600 529.07591,-88.347919 529.06250,-88.343750 C 528.73446,-88.241765 527.58614,-87.253980 526.46875,-86.312500 C 525.47285,-85.493522 524.33237,-84.547694 522.21875,-82.593750 C 520.73253,-81.219569 518.75955,-79.353923 516.56250,-77.250000 C 514.32136,-75.115202 511.99224,-72.860572 509.40625,-70.343750 C 498.40967,-59.687047 175.29431,261.52891 166.43750,270.68750 C 166.15452,270.98101 166.24544,270.90012 165.96875,271.18750 C 157.10351,280.39530 151.42104,286.51612 151.06250,287.31250 C 150.98112,287.55081 150.80282,287.75646 150.75000,288.00000 C 150.63740,288.90081 150.91431,290.14508 151.34375,291.46875 C 154.26746,296.39782 171.49914,314.02278 176.59375,317.37500 C 177.12542,317.64681 177.76215,318.01368 178.06250,318.03125 C 178.30204,318.00041 178.85107,317.60097 179.37500,317.25000 C 179.70742,317.01904 179.80211,317.04390 180.28125,316.65625 C 181.40817,315.74452 182.93306,314.41688 184.75000,312.75000 C 185.89053,311.70367 187.73606,309.82492 189.09375,308.53125 C 191.98157,305.76431 194.56375,303.35433 198.56250,299.31250 C 206.29125,291.50048 549.33119,-48.652969 554.75000,-55.500000 C 554.77996,-55.542346 554.84564,-55.614314 554.87500,-55.656250 C 558.14048,-60.320184 557.57916,-62.488739 555.50000,-64.968750 L 554.75000,-65.843750 C 554.67892,-65.928228 554.63207,-66.036857 554.56250,-66.125000 C 553.69602,-67.028582 552.69949,-67.990851 551.59375,-69.187500 C 548.43127,-72.610010 542.58756,-78.502441 538.59375,-82.250000 C 534.12448,-86.443701 532.06481,-88.107795 530.53125,-88.437500 z M 514.31250,517.06250 C 513.50527,517.06251 508.95938,521.04576 499.43750,530.18750 C 499.40886,530.21500 499.40373,530.22241 499.37500,530.25000 C 489.83157,539.41372 169.19484,860.66351 155.34375,874.78125 C 155.30965,874.81601 155.19024,874.93411 155.15625,874.96875 C 148.33469,881.92332 143.79918,886.60612 140.90625,889.68750 C 138.00684,892.77526 136.76574,894.24354 136.46875,894.81250 C 135.64774,896.38541 135.40904,897.41003 137.03125,899.65625 C 137.03899,899.66703 137.02342,899.67667 137.03125,899.68750 C 137.84280,900.80861 139.13896,902.21188 141.03125,904.15625 C 142.93091,906.10819 145.44329,908.59140 148.75000,911.81250 C 152.45792,915.42446 155.52060,918.24674 157.84375,920.15625 C 157.84809,920.15982 157.87067,920.15269 157.87500,920.15625 C 160.19830,922.06576 161.75110,923.06250 162.43750,923.06250 C 162.93886,923.06251 164.50990,921.90603 167.68750,919.06250 C 170.82038,916.25899 175.58439,911.72054 182.31250,905.18750 C 182.34991,905.15107 182.49369,905.03658 182.53125,905.00000 C 196.29813,891.62535 510.82359,577.06095 522.00000,565.59375 C 522.16695,565.42242 522.11604,565.48212 522.28125,565.31250 C 534.14266,553.13830 541.57122,545.34364 541.71875,544.81250 C 541.71991,544.80806 541.71773,544.78582 541.71875,544.78125 C 541.80246,544.46115 541.47893,543.79077 540.87500,542.87500 C 540.87152,542.86973 540.87850,542.84903 540.87500,542.84375 C 540.25792,541.91361 539.32064,540.72566 538.18750,539.37500 C 538.18341,539.37012 538.19159,539.34864 538.18750,539.34375 C 535.90768,536.62831 532.75903,533.26571 529.50000,529.96875 C 526.23722,526.66532 522.83800,523.42691 520.06250,521.03125 C 518.65875,519.81961 517.43359,518.84914 516.43750,518.15625 C 515.44897,517.46423 514.71826,517.06250 514.31250,517.06250 z "
         style="fill:#cf0000;fill-opacity:1.0000000" />
    </g>
  </g>
</svg>
