<?xml version="1.0" encoding="UTF-8" standalone="no"?>
<!-- Created with Inkscape (http://www.inkscape.org/) -->
<svg
   xmlns:dc="http://purl.org/dc/elements/1.1/"
   xmlns:cc="http://web.resource.org/cc/"
   xmlns:rdf="http://www.w3.org/1999/02/22-rdf-syntax-ns#"
   xmlns:svg="http://www.w3.org/2000/svg"
   xmlns="http://www.w3.org/2000/svg"
   xmlns:xlink="http://www.w3.org/1999/xlink"
   xmlns:sodipodi="http://sodipodi.sourceforge.net/DTD/sodipodi-0.dtd"
   xmlns:inkscape="http://www.inkscape.org/namespaces/inkscape"
   sodipodi:docname="tex.svg"
   sodipodi:docbase="/home/fred/work/r-opencity/graphism/frodrigo/2/industrial/hazard"
   inkscape:version="0.44"
   sodipodi:version="0.32"
   id="svg1"
   height="320"
   width="320"
   inkscape:export-filename="/home/fred/work/r-opencity/graphism/frodrigo/2/industrial/hazard/tex.png"
   inkscape:export-xdpi="72.000000"
   inkscape:export-ydpi="72.000000"
   version="1.0">
  <metadata
     id="metadata1294">
    <rdf:RDF>
      <cc:Work
         rdf:about="">
        <dc:format>image/svg+xml</dc:format>
        <dc:type
           rdf:resource="http://purl.org/dc/dcmitype/StillImage" />
      </cc:Work>
    </rdf:RDF>
  </metadata>
  <defs
     id="defs3" />
  <sodipodi:namedview
     inkscape:current-layer="svg1"
     gridtolerance="4.0000000pt"
     inkscape:grid-bbox="false"
     inkscape:window-y="0"
     inkscape:window-x="0"
     inkscape:window-height="1002"
     inkscape:window-width="1248"
     inkscape:grid-points="true"
     showgrid="true"
     gridempspacing="4"
     gridoriginx="0.0000000pt"
     gridoriginy="0.0000000pt"
     gridspacingx="16.000000pt"
     gridspacingy="16.000000pt"
     inkscape:cy="95.503051"
     inkscape:cx="310.60929"
     inkscape:zoom="1.7366335"
     inkscape:pageshadow="2"
     inkscape:pageopacity="0.0"
     borderopacity="1.0"
     bordercolor="#666666"
     pagecolor="#ffffff"
     id="base"
     width="320px" />
  <image
     y="0"
     x="0"
     id="image2123"
     height="160"
     width="160"
     sodipodi:absref="/home/fred/work/r-opencity/graphism/frodrigo/2/industrial/hazard/include/sol.jpeg"
     xlink:href="include/sol.jpeg" />
  <rect
     style="opacity:1;color:black;fill:#837b7b;fill-opacity:1;fill-rule:nonzero;stroke:none;stroke-width:0.30000001;stroke-linecap:butt;stroke-linejoin:miter;marker:none;marker-start:none;marker-mid:none;marker-end:none;stroke-miterlimit:4;stroke-dasharray:none;stroke-dashoffset:0;stroke-opacity:1;visibility:visible;display:inline;overflow:visible"
     id="rect3017"
     width="80"
     height="40"
     x="240"
     y="120" />
  <g
     id="g1989"
     inkscape:label="Layer 1"
     transform="matrix(0.411446,0,0,0.411446,246.2616,125.137)">
    <text
       sodipodi:linespacing="100%"
       transform="matrix(1.626898,0,0,3.723404,-19.23502,-44.5462)"
       id="text2414"
       y="29.255266"
       x="12.59621"
       style="font-size:20px;font-style:normal;font-variant:normal;font-weight:bold;font-stretch:normal;line-height:100%;writing-mode:lr-tb;text-anchor:start;fill:#ff5f00;fill-opacity:1;stroke:black;stroke-width:0.76181763;stroke-linecap:butt;stroke-linejoin:round;stroke-miterlimit:4;stroke-dasharray:none;stroke-opacity:1;font-family:Helvetica"
       xml:space="preserve"><tspan
         style="fill:#ff5f00;fill-opacity:1;stroke:black;stroke-width:0.76181763;stroke-linejoin:round;stroke-miterlimit:4;stroke-dasharray:none;stroke-opacity:1;font-family:Helvetica"
         y="29.255266"
         x="12.59621"
         id="tspan2415"
         sodipodi:role="line">BIO-TECH</tspan></text>
  </g>
  <g
     id="g2031"
     inkscape:label="Layer 1"
     transform="translate(240,0)">
    <path
       sodipodi:nodetypes="cccccccccccccccccccccccccccc"
       id="path1701"
       d="M 0,60 L 20,80 L 40,80 L 0,40 L 0,20 L 60,80 L 80,80 L 0,0 L 20,0 L 80,60 L 80,40 L 40,0 L 60,0 L 80,20 L 80,60 L 60,80 L 40,80 L 80,40 L 80,20 L 20,80 L 0,80 L 80,0 L 60,0 L 0,60 L 0,40 L 40,0 L 20,0 L 0,20"
       style="fill:none;fill-opacity:0.75;fill-rule:evenodd;stroke:#575757;stroke-width:3.75;stroke-linecap:butt;stroke-linejoin:bevel;stroke-miterlimit:4;stroke-dasharray:none;stroke-opacity:1" />
    <path
       sodipodi:nodetypes="cccc"
       id="rect1078"
       d="M 0,80 L 0,0 L 80,0 L 80,80"
       style="color:black;fill:none;fill-opacity:1;fill-rule:nonzero;stroke:#7a7a7a;stroke-width:7.1316309;stroke-linecap:butt;stroke-linejoin:miter;marker:none;marker-start:none;marker-mid:none;marker-end:none;stroke-miterlimit:4;stroke-dashoffset:0;stroke-opacity:1;visibility:visible;display:block" />
  </g>
  <image
     y="-0.039916992"
     x="160"
     id="image2128"
     height="160.03992"
     width="80"
     sodipodi:absref="/home/fred/work/r-opencity/graphism/frodrigo/2/industrial/hazard/include/sol.jpeg"
     xlink:href="include/sol.jpeg"
     style="opacity:1;fill:#500" />
  <rect
     style="opacity:0.7359736;color:black;fill:red;fill-opacity:1;fill-rule:nonzero;stroke:none;stroke-width:0.30000001;stroke-linecap:butt;stroke-linejoin:miter;marker:none;marker-start:none;marker-mid:none;marker-end:none;stroke-miterlimit:4;stroke-dasharray:none;stroke-dashoffset:0;stroke-opacity:1;visibility:visible;display:inline;overflow:visible"
     id="rect2126"
     width="80"
     height="160"
     x="160"
     y="0"
     inkscape:export-xdpi="72"
     inkscape:export-ydpi="72" />
  <g
     id="g3147">
    <image
       y="160"
       x="0"
       id="image3019"
       height="20"
       width="20"
       sodipodi:absref="/home/fred/work/r-opencity/graphism/frodrigo/2/industrial/hazard/include/sol.jpeg"
       xlink:href="include/sol.jpeg" />
    <image
       y="160"
       x="20"
       id="image3021"
       height="20"
       width="20"
       sodipodi:absref="/home/fred/work/r-opencity/graphism/frodrigo/2/industrial/hazard/include/sol.jpeg"
       xlink:href="include/sol.jpeg" />
    <image
       y="180"
       x="20"
       id="image3023"
       height="20"
       width="20"
       sodipodi:absref="/home/fred/work/r-opencity/graphism/frodrigo/2/industrial/hazard/include/sol.jpeg"
       xlink:href="include/sol.jpeg" />
    <image
       y="180"
       x="0"
       id="image3025"
       height="20"
       width="20"
       sodipodi:absref="/home/fred/work/r-opencity/graphism/frodrigo/2/industrial/hazard/include/sol.jpeg"
       xlink:href="include/sol.jpeg" />
    <image
       y="160"
       x="40"
       id="image3027"
       height="20"
       width="20"
       sodipodi:absref="/home/fred/work/r-opencity/graphism/frodrigo/2/industrial/hazard/include/sol.jpeg"
       xlink:href="include/sol.jpeg" />
    <image
       y="160"
       x="60"
       id="image3029"
       height="20"
       width="20"
       sodipodi:absref="/home/fred/work/r-opencity/graphism/frodrigo/2/industrial/hazard/include/sol.jpeg"
       xlink:href="include/sol.jpeg" />
    <image
       y="180"
       x="60"
       id="image3031"
       height="20"
       width="20"
       sodipodi:absref="/home/fred/work/r-opencity/graphism/frodrigo/2/industrial/hazard/include/sol.jpeg"
       xlink:href="include/sol.jpeg" />
    <image
       y="180"
       x="40"
       id="image3033"
       height="20"
       width="20"
       sodipodi:absref="/home/fred/work/r-opencity/graphism/frodrigo/2/industrial/hazard/include/sol.jpeg"
       xlink:href="include/sol.jpeg" />
    <image
       y="200"
       x="0"
       id="image3035"
       height="20"
       width="20"
       sodipodi:absref="/home/fred/work/r-opencity/graphism/frodrigo/2/industrial/hazard/include/sol.jpeg"
       xlink:href="include/sol.jpeg" />
    <image
       y="200"
       x="20"
       id="image3037"
       height="20"
       width="20"
       sodipodi:absref="/home/fred/work/r-opencity/graphism/frodrigo/2/industrial/hazard/include/sol.jpeg"
       xlink:href="include/sol.jpeg" />
    <image
       y="220"
       x="20"
       id="image3039"
       height="20"
       width="20"
       sodipodi:absref="/home/fred/work/r-opencity/graphism/frodrigo/2/industrial/hazard/include/sol.jpeg"
       xlink:href="include/sol.jpeg" />
    <image
       y="220"
       x="0"
       id="image3041"
       height="20"
       width="20"
       sodipodi:absref="/home/fred/work/r-opencity/graphism/frodrigo/2/industrial/hazard/include/sol.jpeg"
       xlink:href="include/sol.jpeg" />
    <image
       y="200"
       x="40"
       id="image3043"
       height="20"
       width="20"
       sodipodi:absref="/home/fred/work/r-opencity/graphism/frodrigo/2/industrial/hazard/include/sol.jpeg"
       xlink:href="include/sol.jpeg" />
    <image
       y="200"
       x="60"
       id="image3045"
       height="20"
       width="20"
       sodipodi:absref="/home/fred/work/r-opencity/graphism/frodrigo/2/industrial/hazard/include/sol.jpeg"
       xlink:href="include/sol.jpeg" />
    <image
       y="220"
       x="60"
       id="image3047"
       height="20"
       width="20"
       sodipodi:absref="/home/fred/work/r-opencity/graphism/frodrigo/2/industrial/hazard/include/sol.jpeg"
       xlink:href="include/sol.jpeg" />
    <image
       y="220"
       x="40"
       id="image3049"
       height="20"
       width="20"
       sodipodi:absref="/home/fred/work/r-opencity/graphism/frodrigo/2/industrial/hazard/include/sol.jpeg"
       xlink:href="include/sol.jpeg" />
    <image
       y="240"
       x="0"
       id="image3051"
       height="20"
       width="20"
       sodipodi:absref="/home/fred/work/r-opencity/graphism/frodrigo/2/industrial/hazard/include/sol.jpeg"
       xlink:href="include/sol.jpeg" />
    <image
       y="240"
       x="20"
       id="image3053"
       height="20"
       width="20"
       sodipodi:absref="/home/fred/work/r-opencity/graphism/frodrigo/2/industrial/hazard/include/sol.jpeg"
       xlink:href="include/sol.jpeg" />
    <image
       y="260"
       x="20"
       id="image3055"
       height="20"
       width="20"
       sodipodi:absref="/home/fred/work/r-opencity/graphism/frodrigo/2/industrial/hazard/include/sol.jpeg"
       xlink:href="include/sol.jpeg" />
    <image
       y="260"
       x="0"
       id="image3057"
       height="20"
       width="20"
       sodipodi:absref="/home/fred/work/r-opencity/graphism/frodrigo/2/industrial/hazard/include/sol.jpeg"
       xlink:href="include/sol.jpeg" />
    <image
       y="240"
       x="40"
       id="image3059"
       height="20"
       width="20"
       sodipodi:absref="/home/fred/work/r-opencity/graphism/frodrigo/2/industrial/hazard/include/sol.jpeg"
       xlink:href="include/sol.jpeg" />
    <image
       y="240"
       x="60"
       id="image3061"
       height="20"
       width="20"
       sodipodi:absref="/home/fred/work/r-opencity/graphism/frodrigo/2/industrial/hazard/include/sol.jpeg"
       xlink:href="include/sol.jpeg" />
    <image
       y="260"
       x="60"
       id="image3063"
       height="20"
       width="20"
       sodipodi:absref="/home/fred/work/r-opencity/graphism/frodrigo/2/industrial/hazard/include/sol.jpeg"
       xlink:href="include/sol.jpeg" />
    <image
       y="260"
       x="40"
       id="image3065"
       height="20"
       width="20"
       sodipodi:absref="/home/fred/work/r-opencity/graphism/frodrigo/2/industrial/hazard/include/sol.jpeg"
       xlink:href="include/sol.jpeg" />
    <image
       y="280"
       x="0"
       id="image3067"
       height="20"
       width="20"
       sodipodi:absref="/home/fred/work/r-opencity/graphism/frodrigo/2/industrial/hazard/include/sol.jpeg"
       xlink:href="include/sol.jpeg" />
    <image
       y="280"
       x="20"
       id="image3069"
       height="20"
       width="20"
       sodipodi:absref="/home/fred/work/r-opencity/graphism/frodrigo/2/industrial/hazard/include/sol.jpeg"
       xlink:href="include/sol.jpeg" />
    <image
       y="300"
       x="20"
       id="image3071"
       height="20"
       width="20"
       sodipodi:absref="/home/fred/work/r-opencity/graphism/frodrigo/2/industrial/hazard/include/sol.jpeg"
       xlink:href="include/sol.jpeg" />
    <image
       y="300"
       x="0"
       id="image3073"
       height="20"
       width="20"
       sodipodi:absref="/home/fred/work/r-opencity/graphism/frodrigo/2/industrial/hazard/include/sol.jpeg"
       xlink:href="include/sol.jpeg" />
    <image
       y="280"
       x="40"
       id="image3075"
       height="20"
       width="20"
       sodipodi:absref="/home/fred/work/r-opencity/graphism/frodrigo/2/industrial/hazard/include/sol.jpeg"
       xlink:href="include/sol.jpeg" />
    <image
       y="280"
       x="60"
       id="image3077"
       height="20"
       width="20"
       sodipodi:absref="/home/fred/work/r-opencity/graphism/frodrigo/2/industrial/hazard/include/sol.jpeg"
       xlink:href="include/sol.jpeg" />
    <image
       y="300"
       x="60"
       id="image3079"
       height="20"
       width="20"
       sodipodi:absref="/home/fred/work/r-opencity/graphism/frodrigo/2/industrial/hazard/include/sol.jpeg"
       xlink:href="include/sol.jpeg" />
    <image
       y="300"
       x="40"
       id="image3081"
       height="20"
       width="20"
       sodipodi:absref="/home/fred/work/r-opencity/graphism/frodrigo/2/industrial/hazard/include/sol.jpeg"
       xlink:href="include/sol.jpeg" />
    <image
       y="160"
       x="80"
       id="image3083"
       height="20"
       width="20"
       sodipodi:absref="/home/fred/work/r-opencity/graphism/frodrigo/2/industrial/hazard/include/sol.jpeg"
       xlink:href="include/sol.jpeg" />
    <image
       y="160"
       x="100"
       id="image3085"
       height="20"
       width="20"
       sodipodi:absref="/home/fred/work/r-opencity/graphism/frodrigo/2/industrial/hazard/include/sol.jpeg"
       xlink:href="include/sol.jpeg" />
    <image
       y="180"
       x="100"
       id="image3087"
       height="20"
       width="20"
       sodipodi:absref="/home/fred/work/r-opencity/graphism/frodrigo/2/industrial/hazard/include/sol.jpeg"
       xlink:href="include/sol.jpeg" />
    <image
       y="180"
       x="80"
       id="image3089"
       height="20"
       width="20"
       sodipodi:absref="/home/fred/work/r-opencity/graphism/frodrigo/2/industrial/hazard/include/sol.jpeg"
       xlink:href="include/sol.jpeg" />
    <image
       y="160"
       x="120"
       id="image3091"
       height="20"
       width="20"
       sodipodi:absref="/home/fred/work/r-opencity/graphism/frodrigo/2/industrial/hazard/include/sol.jpeg"
       xlink:href="include/sol.jpeg" />
    <image
       y="160"
       x="140"
       id="image3093"
       height="20"
       width="20"
       sodipodi:absref="/home/fred/work/r-opencity/graphism/frodrigo/2/industrial/hazard/include/sol.jpeg"
       xlink:href="include/sol.jpeg" />
    <image
       y="180"
       x="140"
       id="image3095"
       height="20"
       width="20"
       sodipodi:absref="/home/fred/work/r-opencity/graphism/frodrigo/2/industrial/hazard/include/sol.jpeg"
       xlink:href="include/sol.jpeg" />
    <image
       y="180"
       x="120"
       id="image3097"
       height="20"
       width="20"
       sodipodi:absref="/home/fred/work/r-opencity/graphism/frodrigo/2/industrial/hazard/include/sol.jpeg"
       xlink:href="include/sol.jpeg" />
    <image
       y="200"
       x="80"
       id="image3099"
       height="20"
       width="20"
       sodipodi:absref="/home/fred/work/r-opencity/graphism/frodrigo/2/industrial/hazard/include/sol.jpeg"
       xlink:href="include/sol.jpeg" />
    <image
       y="200"
       x="100"
       id="image3101"
       height="20"
       width="20"
       sodipodi:absref="/home/fred/work/r-opencity/graphism/frodrigo/2/industrial/hazard/include/sol.jpeg"
       xlink:href="include/sol.jpeg" />
    <image
       y="220"
       x="100"
       id="image3103"
       height="20"
       width="20"
       sodipodi:absref="/home/fred/work/r-opencity/graphism/frodrigo/2/industrial/hazard/include/sol.jpeg"
       xlink:href="include/sol.jpeg" />
    <image
       y="220"
       x="80"
       id="image3105"
       height="20"
       width="20"
       sodipodi:absref="/home/fred/work/r-opencity/graphism/frodrigo/2/industrial/hazard/include/sol.jpeg"
       xlink:href="include/sol.jpeg" />
    <image
       y="200"
       x="120"
       id="image3107"
       height="20"
       width="20"
       sodipodi:absref="/home/fred/work/r-opencity/graphism/frodrigo/2/industrial/hazard/include/sol.jpeg"
       xlink:href="include/sol.jpeg" />
    <image
       y="200"
       x="140"
       id="image3109"
       height="20"
       width="20"
       sodipodi:absref="/home/fred/work/r-opencity/graphism/frodrigo/2/industrial/hazard/include/sol.jpeg"
       xlink:href="include/sol.jpeg" />
    <image
       y="220"
       x="140"
       id="image3111"
       height="20"
       width="20"
       sodipodi:absref="/home/fred/work/r-opencity/graphism/frodrigo/2/industrial/hazard/include/sol.jpeg"
       xlink:href="include/sol.jpeg" />
    <image
       y="220"
       x="120"
       id="image3113"
       height="20"
       width="20"
       sodipodi:absref="/home/fred/work/r-opencity/graphism/frodrigo/2/industrial/hazard/include/sol.jpeg"
       xlink:href="include/sol.jpeg" />
    <image
       y="240"
       x="80"
       id="image3115"
       height="20"
       width="20"
       sodipodi:absref="/home/fred/work/r-opencity/graphism/frodrigo/2/industrial/hazard/include/sol.jpeg"
       xlink:href="include/sol.jpeg" />
    <image
       y="240"
       x="100"
       id="image3117"
       height="20"
       width="20"
       sodipodi:absref="/home/fred/work/r-opencity/graphism/frodrigo/2/industrial/hazard/include/sol.jpeg"
       xlink:href="include/sol.jpeg" />
    <image
       y="260"
       x="100"
       id="image3119"
       height="20"
       width="20"
       sodipodi:absref="/home/fred/work/r-opencity/graphism/frodrigo/2/industrial/hazard/include/sol.jpeg"
       xlink:href="include/sol.jpeg" />
    <image
       y="260"
       x="80"
       id="image3121"
       height="20"
       width="20"
       sodipodi:absref="/home/fred/work/r-opencity/graphism/frodrigo/2/industrial/hazard/include/sol.jpeg"
       xlink:href="include/sol.jpeg" />
    <image
       y="240"
       x="120"
       id="image3123"
       height="20"
       width="20"
       sodipodi:absref="/home/fred/work/r-opencity/graphism/frodrigo/2/industrial/hazard/include/sol.jpeg"
       xlink:href="include/sol.jpeg" />
    <image
       y="240"
       x="140"
       id="image3125"
       height="20"
       width="20"
       sodipodi:absref="/home/fred/work/r-opencity/graphism/frodrigo/2/industrial/hazard/include/sol.jpeg"
       xlink:href="include/sol.jpeg" />
    <image
       y="260"
       x="140"
       id="image3127"
       height="20"
       width="20"
       sodipodi:absref="/home/fred/work/r-opencity/graphism/frodrigo/2/industrial/hazard/include/sol.jpeg"
       xlink:href="include/sol.jpeg" />
    <image
       y="260"
       x="120"
       id="image3129"
       height="20"
       width="20"
       sodipodi:absref="/home/fred/work/r-opencity/graphism/frodrigo/2/industrial/hazard/include/sol.jpeg"
       xlink:href="include/sol.jpeg" />
    <image
       y="280"
       x="80"
       id="image3131"
       height="20"
       width="20"
       sodipodi:absref="/home/fred/work/r-opencity/graphism/frodrigo/2/industrial/hazard/include/sol.jpeg"
       xlink:href="include/sol.jpeg" />
    <image
       y="280"
       x="100"
       id="image3133"
       height="20"
       width="20"
       sodipodi:absref="/home/fred/work/r-opencity/graphism/frodrigo/2/industrial/hazard/include/sol.jpeg"
       xlink:href="include/sol.jpeg" />
    <image
       y="300"
       x="100"
       id="image3135"
       height="20"
       width="20"
       sodipodi:absref="/home/fred/work/r-opencity/graphism/frodrigo/2/industrial/hazard/include/sol.jpeg"
       xlink:href="include/sol.jpeg" />
    <image
       y="300"
       x="80"
       id="image3137"
       height="20"
       width="20"
       sodipodi:absref="/home/fred/work/r-opencity/graphism/frodrigo/2/industrial/hazard/include/sol.jpeg"
       xlink:href="include/sol.jpeg" />
    <image
       y="280"
       x="120"
       id="image3139"
       height="20"
       width="20"
       sodipodi:absref="/home/fred/work/r-opencity/graphism/frodrigo/2/industrial/hazard/include/sol.jpeg"
       xlink:href="include/sol.jpeg" />
    <image
       y="280"
       x="140"
       id="image3141"
       height="20"
       width="20"
       sodipodi:absref="/home/fred/work/r-opencity/graphism/frodrigo/2/industrial/hazard/include/sol.jpeg"
       xlink:href="include/sol.jpeg" />
    <image
       y="300"
       x="140"
       id="image3143"
       height="20"
       width="20"
       sodipodi:absref="/home/fred/work/r-opencity/graphism/frodrigo/2/industrial/hazard/include/sol.jpeg"
       xlink:href="include/sol.jpeg" />
    <image
       y="300"
       x="120"
       id="image3145"
       height="20"
       width="20"
       sodipodi:absref="/home/fred/work/r-opencity/graphism/frodrigo/2/industrial/hazard/include/sol.jpeg"
       xlink:href="include/sol.jpeg" />
  </g>
  <rect
     style="opacity:0.6260726;color:black;fill:#bea955;fill-opacity:0.69281048;fill-rule:nonzero;stroke:none;stroke-width:0.30000001;stroke-linecap:butt;stroke-linejoin:miter;marker:none;marker-start:none;marker-mid:none;marker-end:none;stroke-miterlimit:4;stroke-dasharray:none;stroke-dashoffset:0;stroke-opacity:1;visibility:visible;display:inline;overflow:visible"
     id="rect3213"
     width="160"
     height="160"
     x="0"
     y="160" />
  <image
     y="160"
     x="160"
     id="image3215"
     height="560"
     width="480"
     sodipodi:absref="/home/fred/work/r-opencity/graphism/frodrigo/2/industrial/hazard/include/sol.jpeg"
     xlink:href="include/sol.jpeg" />
  <rect
     style="opacity:0.8260726;color:black;fill:#421733;fill-opacity:1;fill-rule:nonzero;stroke:none;stroke-width:0.30000001;stroke-linecap:butt;stroke-linejoin:miter;marker:none;marker-start:none;marker-mid:none;marker-end:none;stroke-miterlimit:4;stroke-dasharray:none;stroke-dashoffset:0;stroke-opacity:1;visibility:visible;display:inline;overflow:visible"
     id="rect3217"
     width="160"
     height="160"
     x="160"
     y="160" />
  <path
     style="opacity:1;color:black;fill:black;fill-opacity:1;fill-rule:nonzero;stroke:none;stroke-width:5;stroke-linecap:butt;stroke-linejoin:miter;marker:none;stroke-miterlimit:4;stroke-dasharray:none;stroke-dashoffset:0;stroke-opacity:1;visibility:visible;display:inline;overflow:visible"
     d="M 160 160 L 160 320 L 320 320 L 320 160 L 160 160 z M 162.5 162.5 L 317.5 162.5 L 317.5 317.5 L 162.5 317.5 L 162.5 162.5 z "
     id="rect3219" />
  <g
     id="g3228"
     transform="matrix(0.141114,0,0,0.142011,202.8358,43.32019)"
     style="fill:#029800;fill-opacity:1">
    <g
       id="g3230"
       inkscape:label="Layer 1"
       style="fill:#029800;fill-opacity:1" />
    <path
       id="path3232"
       d="M 61.845393,117.45435 C 58.187698,116.92808 54.173144,115.10211 50.980951,112.51279 C 49.032799,110.93256 46.238832,107.53555 46.509676,107.07645 C 46.617702,106.89334 47.562528,107.56289 48.60929,108.56434 C 52.380225,112.17204 57.24983,113.76259 61.87379,112.8969 C 70.204259,111.33727 75.399029,104.81981 75.365238,95.970269 C 75.357333,93.900158 75.11829,92.161252 74.649836,90.766113 C 73.763471,88.12636 73.764191,88.005381 74.669785,87.412897 C 75.319337,86.98793 75.560638,87.050642 76.515867,87.892692 C 77.944494,89.152044 80.780829,89.239343 82.596262,88.079835 C 83.695727,87.377614 83.895683,87.356269 84.633058,87.862421 L 85.450705,88.423675 L 84.605113,91.023465 C 81.939102,99.220181 85.572636,108.09545 93.129978,111.8463 C 95.418847,112.9823 95.800094,113.05183 99.740745,113.05183 C 103.67406,113.05183 104.06569,112.98078 106.33107,111.85632 C 107.65574,111.19879 109.39376,110.04165 110.19332,109.28489 C 110.99288,108.52814 111.83179,107.90897 112.05755,107.90897 C 112.96732,107.90897 112.36626,109.04629 110.55893,110.74464 C 107.92426,113.22044 105.16136,114.90612 101.73725,116.12683 C 99.282687,117.00191 98.238963,117.16024 95.013473,117.14681 C 89.75404,117.12491 85.324153,115.59002 80.980211,112.28449 C 80.274956,111.74783 80.116374,111.79321 78.798393,112.90896 C 77.127916,114.32312 72.973452,116.3957 70.649836,116.97412 C 68.236121,117.57498 64.210042,117.79457 61.845393,117.45435 z M 114.42504,103.28073 C 115.89413,97.862901 115.99254,96.832471 115.36958,93.391187 C 114.78999,90.189499 113.13494,86.908936 110.94895,84.628821 C 104.50822,77.910767 93.936116,78.125275 87.95424,85.095385 C 86.482069,86.810764 86.162687,87.015282 85.465225,86.689244 C 84.772833,86.365579 84.664069,86.012151 84.657465,84.064475 C 84.648123,81.308657 83.706938,79.710951 81.563618,78.812528 C 80.545182,78.385625 80.104382,77.971961 80.104382,77.443122 C 80.104382,76.668258 80.332069,76.568678 83.195291,76.091313 C 85.451942,75.715076 88.820283,73.759195 90.942756,71.592625 C 94.464989,67.997214 96.323407,62.087178 95.460429,57.225776 C 94.303203,50.706812 90.253102,45.756383 84.569814,43.914208 C 82.449207,43.226837 81.596974,42.385161 83.021589,42.385161 C 86.33836,42.385161 92.262949,45.307071 95.623131,48.600033 C 100.31848,53.201454 102.68185,58.807783 102.87965,65.813732 L 102.99796,70.004208 L 104.55117,70.9049 C 111.0501,74.673564 114.6075,78.979515 116.86824,85.813732 C 117.53948,87.842882 117.68826,89.115225 117.69237,92.861351 C 117.69686,96.952985 117.58437,97.772246 116.62063,100.66718 C 115.84739,102.98985 115.35195,103.9403 114.86303,104.03894 C 114.30376,104.15177 114.22556,104.01638 114.42504,103.28073 z M 86.538054,101.90897 C 86.197556,100.91373 85.919774,99.97436 85.920763,99.821473 C 85.921753,99.668589 86.610622,99.175766 87.451585,98.726307 C 88.292549,98.276852 89.898971,96.944795 91.021418,95.766185 C 94.051887,92.584078 95.712025,88.444791 95.731854,84.021469 C 95.740585,82.074238 95.762683,82.034421 96.96584,81.79796 C 97.63964,81.665534 98.580549,81.614909 99.056749,81.685457 C 99.896782,81.809911 99.920156,81.907534 99.841756,84.964029 C 99.695851,90.652014 97.604025,95.328939 93.334465,99.513092 C 91.480302,101.33017 88.041407,103.71849 87.279214,103.71849 C 87.212073,103.71849 86.878553,102.90421 86.538054,101.90897 z M 68.889724,101.79385 C 63.424244,97.970345 59.740745,90.81412 59.740745,84.019408 L 59.740745,81.623256 L 61.2862,81.629088 C 63.476878,81.637358 63.781478,81.967656 63.953742,84.521675 C 64.147075,87.388082 64.998859,90.492596 66.189633,92.670875 C 67.315364,94.730174 70.004735,97.530269 71.852631,98.567027 C 72.609886,98.991884 73.195291,99.609111 73.195291,99.982676 C 73.195291,100.9842 72.029254,103.33754 71.533014,103.33754 C 71.292847,103.33754 70.103367,102.64288 68.889724,101.79385 z M 43.725705,101.96276 C 41.491985,95.807869 41.911334,88.710364 44.881667,82.398056 C 46.860752,78.192265 50.678574,74.110457 54.663937,71.939384 L 57.405309,70.445989 L 57.259505,66.953546 C 56.815807,56.32568 63.184749,46.854134 73.195291,43.254708 C 75.678185,42.36195 77.922563,42.126533 77.922563,42.758855 C 77.922563,42.964387 77.472563,43.236926 76.922563,43.364498 C 73.345113,44.194281 70.041674,46.073265 68.001943,48.438515 C 66.215556,50.509989 64.541599,54.390384 64.134163,57.404406 C 62.960243,66.088506 68.451895,74.333774 76.559347,76.059812 C 78.385949,76.448686 78.853367,76.696871 78.942349,77.325112 C 79.026582,77.919819 78.676967,78.297374 77.479858,78.904478 C 75.477728,79.919846 74.649836,81.375579 74.649836,83.880676 C 74.649836,85.561046 74.531073,85.886756 73.789245,86.240848 C 73.013505,86.61113 72.756813,86.459176 71.185803,84.699659 C 67.825414,80.936059 62.129586,78.891141 57.221481,79.686181 C 53.99745,80.208429 50.018986,82.362315 47.904929,84.730036 C 45.315458,87.630216 43.989781,90.979069 43.801952,95.094753 C 43.709144,97.128337 43.834855,99.303381 44.116209,100.53205 C 44.627835,102.7663 44.365772,103.72644 43.725705,101.96276 z M 87.723622,69.407938 C 83.267378,66.477249 77.370062,66.44949 71.93359,69.333613 L 70.126435,70.292333 L 68.93359,68.846705 C 68.277526,68.051609 67.741038,67.301067 67.741395,67.178833 C 67.742526,66.792416 70.757614,64.949698 72.687523,64.155929 C 76.786552,62.470005 82.530207,62.424524 86.602963,64.04574 C 89.113927,65.045265 91.743836,66.69411 91.727091,67.258362 C 91.719582,67.511434 91.187763,68.343291 90.545273,69.106931 L 89.377109,70.495368 L 87.723622,69.407938 z "
       style="fill:#029800;fill-opacity:1" />
  </g>
  <g
     id="g3234"
     transform="matrix(0.141114,0,0,0.142011,163.6796,43.32019)"
     style="fill:#029800;fill-opacity:1">
    <g
       id="g3236"
       inkscape:label="Layer 1"
       style="fill:#029800;fill-opacity:1" />
    <path
       id="path3238"
       d="M 61.845393,117.45435 C 58.187698,116.92808 54.173144,115.10211 50.980951,112.51279 C 49.032799,110.93256 46.238832,107.53555 46.509676,107.07645 C 46.617702,106.89334 47.562528,107.56289 48.60929,108.56434 C 52.380225,112.17204 57.24983,113.76259 61.87379,112.8969 C 70.204259,111.33727 75.399029,104.81981 75.365238,95.970269 C 75.357333,93.900158 75.11829,92.161252 74.649836,90.766113 C 73.763471,88.12636 73.764191,88.005381 74.669785,87.412897 C 75.319337,86.98793 75.560638,87.050642 76.515867,87.892692 C 77.944494,89.152044 80.780829,89.239343 82.596262,88.079835 C 83.695727,87.377614 83.895683,87.356269 84.633058,87.862421 L 85.450705,88.423675 L 84.605113,91.023465 C 81.939102,99.220181 85.572636,108.09545 93.129978,111.8463 C 95.418847,112.9823 95.800094,113.05183 99.740745,113.05183 C 103.67406,113.05183 104.06569,112.98078 106.33107,111.85632 C 107.65574,111.19879 109.39376,110.04165 110.19332,109.28489 C 110.99288,108.52814 111.83179,107.90897 112.05755,107.90897 C 112.96732,107.90897 112.36626,109.04629 110.55893,110.74464 C 107.92426,113.22044 105.16136,114.90612 101.73725,116.12683 C 99.282687,117.00191 98.238963,117.16024 95.013473,117.14681 C 89.75404,117.12491 85.324153,115.59002 80.980211,112.28449 C 80.274956,111.74783 80.116374,111.79321 78.798393,112.90896 C 77.127916,114.32312 72.973452,116.3957 70.649836,116.97412 C 68.236121,117.57498 64.210042,117.79457 61.845393,117.45435 z M 114.42504,103.28073 C 115.89413,97.862901 115.99254,96.832471 115.36958,93.391187 C 114.78999,90.189499 113.13494,86.908936 110.94895,84.628821 C 104.50822,77.910767 93.936116,78.125275 87.95424,85.095385 C 86.482069,86.810764 86.162687,87.015282 85.465225,86.689244 C 84.772833,86.365579 84.664069,86.012151 84.657465,84.064475 C 84.648123,81.308657 83.706938,79.710951 81.563618,78.812528 C 80.545182,78.385625 80.104382,77.971961 80.104382,77.443122 C 80.104382,76.668258 80.332069,76.568678 83.195291,76.091313 C 85.451942,75.715076 88.820283,73.759195 90.942756,71.592625 C 94.464989,67.997214 96.323407,62.087178 95.460429,57.225776 C 94.303203,50.706812 90.253102,45.756383 84.569814,43.914208 C 82.449207,43.226837 81.596974,42.385161 83.021589,42.385161 C 86.33836,42.385161 92.262949,45.307071 95.623131,48.600033 C 100.31848,53.201454 102.68185,58.807783 102.87965,65.813732 L 102.99796,70.004208 L 104.55117,70.9049 C 111.0501,74.673564 114.6075,78.979515 116.86824,85.813732 C 117.53948,87.842882 117.68826,89.115225 117.69237,92.861351 C 117.69686,96.952985 117.58437,97.772246 116.62063,100.66718 C 115.84739,102.98985 115.35195,103.9403 114.86303,104.03894 C 114.30376,104.15177 114.22556,104.01638 114.42504,103.28073 z M 86.538054,101.90897 C 86.197556,100.91373 85.919774,99.97436 85.920763,99.821473 C 85.921753,99.668589 86.610622,99.175766 87.451585,98.726307 C 88.292549,98.276852 89.898971,96.944795 91.021418,95.766185 C 94.051887,92.584078 95.712025,88.444791 95.731854,84.021469 C 95.740585,82.074238 95.762683,82.034421 96.96584,81.79796 C 97.63964,81.665534 98.580549,81.614909 99.056749,81.685457 C 99.896782,81.809911 99.920156,81.907534 99.841756,84.964029 C 99.695851,90.652014 97.604025,95.328939 93.334465,99.513092 C 91.480302,101.33017 88.041407,103.71849 87.279214,103.71849 C 87.212073,103.71849 86.878553,102.90421 86.538054,101.90897 z M 68.889724,101.79385 C 63.424244,97.970345 59.740745,90.81412 59.740745,84.019408 L 59.740745,81.623256 L 61.2862,81.629088 C 63.476878,81.637358 63.781478,81.967656 63.953742,84.521675 C 64.147075,87.388082 64.998859,90.492596 66.189633,92.670875 C 67.315364,94.730174 70.004735,97.530269 71.852631,98.567027 C 72.609886,98.991884 73.195291,99.609111 73.195291,99.982676 C 73.195291,100.9842 72.029254,103.33754 71.533014,103.33754 C 71.292847,103.33754 70.103367,102.64288 68.889724,101.79385 z M 43.725705,101.96276 C 41.491985,95.807869 41.911334,88.710364 44.881667,82.398056 C 46.860752,78.192265 50.678574,74.110457 54.663937,71.939384 L 57.405309,70.445989 L 57.259505,66.953546 C 56.815807,56.32568 63.184749,46.854134 73.195291,43.254708 C 75.678185,42.36195 77.922563,42.126533 77.922563,42.758855 C 77.922563,42.964387 77.472563,43.236926 76.922563,43.364498 C 73.345113,44.194281 70.041674,46.073265 68.001943,48.438515 C 66.215556,50.509989 64.541599,54.390384 64.134163,57.404406 C 62.960243,66.088506 68.451895,74.333774 76.559347,76.059812 C 78.385949,76.448686 78.853367,76.696871 78.942349,77.325112 C 79.026582,77.919819 78.676967,78.297374 77.479858,78.904478 C 75.477728,79.919846 74.649836,81.375579 74.649836,83.880676 C 74.649836,85.561046 74.531073,85.886756 73.789245,86.240848 C 73.013505,86.61113 72.756813,86.459176 71.185803,84.699659 C 67.825414,80.936059 62.129586,78.891141 57.221481,79.686181 C 53.99745,80.208429 50.018986,82.362315 47.904929,84.730036 C 45.315458,87.630216 43.989781,90.979069 43.801952,95.094753 C 43.709144,97.128337 43.834855,99.303381 44.116209,100.53205 C 44.627835,102.7663 44.365772,103.72644 43.725705,101.96276 z M 87.723622,69.407938 C 83.267378,66.477249 77.370062,66.44949 71.93359,69.333613 L 70.126435,70.292333 L 68.93359,68.846705 C 68.277526,68.051609 67.741038,67.301067 67.741395,67.178833 C 67.742526,66.792416 70.757614,64.949698 72.687523,64.155929 C 76.786552,62.470005 82.530207,62.424524 86.602963,64.04574 C 89.113927,65.045265 91.743836,66.69411 91.727091,67.258362 C 91.719582,67.511434 91.187763,68.343291 90.545273,69.106931 L 89.377109,70.495368 L 87.723622,69.407938 z "
       style="fill:#029800;fill-opacity:1" />
  </g>
  <rect
     style="opacity:1;color:black;fill:#017300;fill-opacity:1;fill-rule:nonzero;stroke:none;stroke-width:5;stroke-linecap:butt;stroke-linejoin:miter;marker:none;marker-start:none;marker-mid:none;marker-end:none;stroke-miterlimit:4;stroke-dasharray:none;stroke-dashoffset:0;stroke-opacity:1;visibility:visible;display:inline;overflow:visible"
     id="rect3240"
     width="80"
     height="40"
     x="240"
     y="80" />
</svg>
